<svg width="350" height="222" viewBox="0 0 229 222" xmlns="http://www.w3.org/2000/svg"><g><path d="M.661 215.659c-.415-.794-.661-1.833-.661-3.095 0-4.378 2.852-9.693 6.365-11.892a7.047 7.047 0 011.568-.733c.51-7.657 5.44-16.473 11.465-20.22 3.93-2.444 7.386-2.159 9.463.285 1.228-1.487 2.607-2.769 4.061-3.665 4.647-2.892 8.5-1.141 9.331 3.807l.17-.122c3.117-1.934 5.648-.366 5.648 3.523 0 .916-.151 1.894-.416 2.871L.661 215.659z" fill="#DADADA"/><path d="M39.204 175.354l-3.863 7.213 9.144 5.691 3.863-7.213-9.144-5.691zm-11.721 3.488l-3.863 7.212 9.144 5.692 3.863-7.213-9.144-5.691z" fill="#DADADA"/><path d="M46.146 179.413L.474 215.516l8.953 5.58 45.672-36.103-8.953-5.58z" fill="#DADADA"/><path d="M9.427 221.096c-.416-.794-.662-1.833-.662-3.095 0-4.378 2.853-9.693 6.366-11.892a7.045 7.045 0 011.568-.733c.51-7.657 5.44-16.473 11.465-20.22 3.929-2.444 7.385-2.159 9.463.285 1.228-1.487 2.606-2.769 4.06-3.665 4.629-2.892 8.5-1.141 9.332 3.807l.17-.122c3.116-1.934 5.647-.366 5.647 3.523 0 .916-.15 1.894-.415 2.871L9.427 221.096z" fill="#fff"/><path d="M160.198 42.862c-.283-.651-.434-1.486-.434-2.443 0-3.849 2.512-8.532 5.591-10.446a5.363 5.363 0 011.737-.733c.983-5.233 4.364-10.752 8.387-13.236 1.624-1.018 3.135-1.384 4.42-1.242 1.851-5.416 5.477-10.568 9.633-13.154 4.967-3.095 9.161-1.568 10.502 3.258.736-.774 1.53-1.446 2.342-1.955 3.985-2.484 7.215-.468 7.215 4.48 0 1.73-.396 3.604-1.095 5.416l-48.317 30.076.019-.02z" fill="#DADADA"/><path d="M207.325 2.239l-47.126 40.623 8.745 5.437L216.09 7.696l-8.765-5.457z" fill="#DADADA"/><path d="M197.644 1l-4.212 7.865 8.342 5.192 4.212-7.865L197.644 1z" fill="#DADADA"/><path d="M168.944 48.298c-.284-.651-.435-1.486-.435-2.443 0-3.849 2.513-8.532 5.591-10.446a5.372 5.372 0 011.738-.733c.982-5.233 4.363-10.731 8.387-13.236 1.624-.998 3.135-1.384 4.419-1.242 1.851-5.416 5.478-10.568 9.633-13.154 4.968-3.095 9.161-1.568 10.502 3.258.737-.774 1.53-1.446 2.343-1.955 3.985-2.484 7.215-.468 7.215 4.48 0 1.73-.397 3.604-1.096 5.416L168.925 48.32l.019-.02z" fill="#fff"/><path d="M33.098 128.507s-.057-.04-.095-.061a.837.837 0 00-.094.183L2.763 147.404c-.02-.204-.057-.387-.057-.611 0-2.586 1.681-5.722 3.759-7.025.057-.041.094-.041.151-.082.435-4.296 3.192-9.122 6.554-11.199a8.06 8.06 0 011.266-.631c1-6.862 5.42-14.315 10.729-17.634 3.89-2.423 7.31-2.016 9.236.59 1.605-2.545 3.608-4.744 5.799-6.109 4.476-2.789 8.216-1.221 9.16 3.421.794-.977 1.682-1.812 2.626-2.382 3.343-2.077 6.044-.387 6.044 3.767 0 1.263-.245 2.606-.699 3.91l-24.233 15.088z" fill="#DADADA"/><path d="M32.286 109.061L2.745 147.383l8.764 5.457 29.523-38.322-8.746-5.457z" fill="#DADADA"/><path d="M11.509 152.84l44.18-43.311-8.764-5.457-44.18 43.311 8.764 5.457z" fill="#DADADA"/><path d="M11.509 152.84l53.756-41.947-8.764-5.437-53.756 41.927 8.764 5.457z" fill="#DADADA"/><path d="M41.843 133.944s-.056-.041-.094-.061a.795.795 0 00-.094.183L11.509 152.84c-.02-.203-.057-.387-.057-.611 0-2.586 1.681-5.721 3.759-7.025.056-.02.094-.04.151-.061.434-4.296 3.192-9.122 6.554-11.199a8.06 8.06 0 011.266-.631c1-6.863 5.42-14.315 10.728-17.614 3.891-2.423 7.31-2.016 9.237.591 1.605-2.546 3.607-4.745 5.799-6.109 4.476-2.79 8.216-1.222 9.16 3.421.794-.978 1.681-1.813 2.626-2.383 3.343-2.077 6.044-.387 6.044 3.767 0 1.263-.245 2.607-.699 3.91l-24.233 15.089v-.041z" fill="#fff"/><path d="M115.702 120.26c-.415-.794-.661-1.833-.661-3.095 0-4.378 2.852-9.693 6.366-11.892a7.029 7.029 0 011.567-.733c.51-7.656 5.44-16.473 11.466-20.22 3.928-2.443 7.385-2.158 9.463.285 1.227-1.486 2.606-2.77 4.061-3.665 4.646-2.892 8.499-1.14 9.331 3.808l.17-.123c3.116-1.934 5.647-.366 5.647 3.523 0 .917-.151 1.894-.415 2.871l-46.995 29.241z" fill="#DADADA"/><path d="M154.226 79.951l-3.862 7.213 9.144 5.691 3.862-7.212-9.144-5.692zm-11.728 3.461l-3.862 7.212 9.144 5.691 3.862-7.212-9.144-5.691z" fill="#DADADA"/><path d="M161.165 84.036l-45.672 36.102 8.953 5.58 45.672-36.103-8.953-5.58z" fill="#DADADA"/><path d="M124.448 125.717c-.415-.794-.661-1.832-.661-3.095 0-4.378 2.852-9.692 6.366-11.891a6.94 6.94 0 011.567-.733c.51-7.657 5.44-16.474 11.466-20.22 3.928-2.444 7.385-2.159 9.463.285 1.227-1.487 2.606-2.77 4.061-3.666 4.646-2.891 8.499-1.14 9.331 3.808l.17-.122c3.116-1.934 5.647-.367 5.647 3.502 0 .917-.151 1.894-.415 2.872l-46.995 29.24v.02z" fill="#fff"/><animateTransform attributeName="transform" attributeType="XML" type="translate" values="0, 0; 30, 0; 0, 0" dur="5s" repeatCount="indefinite"/></g></svg>