<svg width="567" height="791" fill="none" xmlns="http://www.w3.org/2000/svg"><path d="M224.692 74.376c0 .713-.434 1.425-1.303 1.955-1.738 1.079-4.571 1.079-6.309 0-.869-.55-1.303-1.263-1.303-1.955 0-.692.434-1.425 1.303-1.975 1.738-1.08 4.571-1.08 6.309 0 .869.55 1.303 1.262 1.303 1.975z" fill="#AB261F"/><path d="M224.692 74.375c0 .713-.434 1.425-1.303 1.955-1.738 1.08-4.571 1.08-6.309 0-.869-.55-1.303-1.263-1.303-1.955 0-2.667 2.002-4.805 4.458-4.805 2.455 0 4.457 2.158 4.457 4.805z" fill="#AB261F"/><path d="M219.986 70.812l-13.467-37.955.359-.143 13.486 37.936-.378.162z" fill="#706F6F"/><path d="M219.968 70.75l-3.759-35.023.378-.06 3.777 35.043-.396.04z" fill="#B2B2B2"/><path d="M225.474 34.984L219.98 70.68l.392.07 5.493-35.696-.391-.07z" fill="#C6C6C6"/><path d="M220.342 70.812l-.358-.163 14.166-39.503.378.163-14.186 39.503z" fill="#575756"/><path d="M212.763 25.872l-.39.078 7.62 44.804.39-.077-7.62-44.805z" fill="#706F6F"/><path d="M224.989 15.985l-5.021 54.712.394.042 5.021-54.712-.394-.042z" fill="#9D9D9C"/><path d="M219.987 70.812l-.548-64.753.397-.02.529 64.732-.378.04z" fill="#706F6F"/><path d="M226.313 9.073c-.321 4.622-3.57 8.124-7.253 7.84-3.665-.306-6.385-4.297-6.063-8.94.321-4.622 3.569-8.125 7.253-7.84 3.683.306 6.384 4.297 6.063 8.94z" fill="#F9B233"/><path d="M220.532 19.376l-3.287-.264 1.889-3.258 1.398 3.522z" fill="#E6332A"/><path d="M216.039 6.04c-.396 1.18-1.095 1.995-1.586 1.812-.491-.184-.567-1.303-.189-2.485.396-1.18 1.095-1.995 1.586-1.812.491.183.567 1.303.189 2.484z" fill="#fff"/><path d="M211.203 22.267c.869 4.541-1.341 8.879-4.948 9.693-3.608.815-7.235-2.22-8.122-6.76-.869-4.541 1.341-8.878 4.948-9.693 3.608-.814 7.235 2.22 8.122 6.76z" fill="#F9B233"/><path d="M200.814 21.066c-.245 1.242-.849 2.138-1.359 2.016-.51-.122-.718-1.201-.492-2.443.246-1.243.85-2.139 1.36-2.016.51.122.718 1.201.491 2.443z" fill="#fff"/><path d="M218.57 16.343c0 4.642-2.984 8.41-6.667 8.41s-6.668-3.768-6.668-8.41c0-4.643 2.985-8.41 6.668-8.41 3.683 0 6.667 3.767 6.667 8.41z" fill="#E6332A"/><path d="M213.548 27.114h-3.287l1.643-3.4 1.644 3.4z" fill="#E6332A"/><path d="M208.109 14.163c-.302 1.222-.963 2.097-1.454 1.955-.51-.143-.661-1.242-.359-2.464.302-1.222.963-2.097 1.454-1.955.51.143.661 1.242.359 2.464z" fill="#fff"/><path d="M231.884 16.444c0 4.642-2.984 8.41-6.667 8.41-3.684 0-6.668-3.768-6.668-8.41 0-4.643 2.984-8.41 6.668-8.41 3.683 0 6.667 3.767 6.667 8.41z" fill="#63D4CF"/><path d="M226.861 27.215h-3.286l1.643-3.42 1.643 3.42z" fill="#E6332A"/><path d="M221.422 14.265c-.302 1.222-.964 2.097-1.455 1.955-.491-.143-.661-1.242-.359-2.464.303-1.222.964-2.097 1.455-1.955.51.143.661 1.242.359 2.464z" fill="#fff"/><path d="M222.405 25.281c.359 4.622-2.343 8.634-6.007 8.98-3.664.326-6.932-3.156-7.291-7.779-.359-4.622 2.342-8.633 6.007-8.96 3.664-.325 6.932 3.157 7.291 7.78v-.021z" fill="#00A19A"/><path d="M211.809 24.04c-.208 1.242-.793 2.158-1.303 2.077-.51-.102-.756-1.181-.548-2.423.208-1.242.793-2.159 1.303-2.077.51.101.756 1.18.548 2.423z" fill="#fff"/><path d="M233.266 26.585c-.396 4.622-3.702 8.063-7.366 7.697-3.665-.367-6.309-4.42-5.912-9.041.396-4.623 3.702-8.064 7.366-7.697 3.665.366 6.309 4.418 5.912 9.04z" fill="#E6332A"/><path d="M223.03 23.367c-.396 1.181-1.133 1.995-1.624 1.792-.491-.204-.548-1.303-.151-2.505.396-1.18 1.133-1.995 1.624-1.792.491.204.548 1.324.151 2.505z" fill="#fff"/><path d="M241.575 22.756c-.321 4.623-3.57 8.125-7.253 7.84-3.683-.305-6.384-4.297-6.063-8.94.321-4.621 3.57-8.124 7.253-7.839 3.664.306 6.384 4.297 6.063 8.94z" fill="#F9B233"/><path d="M231.299 19.722c-.397 1.181-1.096 1.996-1.587 1.812-.491-.183-.567-1.303-.189-2.484.397-1.18 1.096-1.995 1.587-1.812.491.183.566 1.303.189 2.484z" fill="#fff"/><path d="M232.565 32.776l.057-.082s-.057.102-.057.082z" fill="#F9B233"/><path d="M235.739 32.775v-.06s-.076-.103-.095-.143l-.831-1.955-.415-1.059-.567.977-1.095 1.894-.114.183-.056.082s-.076.203-.076.244c0 .265.151.51.472.713.642.387 1.662.387 2.305 0 .264-.163.415-.367.453-.57 0-.102 0-.204-.057-.306h.076zm-30.448.938l.057-.083s-.057.103-.057.083z" fill="#F9B233"/><path d="M208.446 33.12l-2.361-3.46-.755 3.97s-.114.631.453.916c.661.326 1.625.163 2.229-.285.472-.366.434-.61.472-.814 0-.102-.038-.306-.038-.306v-.02z" fill="#F9B233"/><path d="M224.294 35.566l.057-.083s-.057.103-.057.083z" fill="#E6332A"/><path d="M227.468 35.565v-.061s-.075-.102-.094-.143l-.831-1.955-.416-1.059-.567.978-1.095 1.893-.113.184-.057.081s-.076.204-.076.245c0 .264.151.509.473.712.642.387 1.662.387 2.304 0 .264-.163.416-.366.453-.57 0-.102 0-.204-.056-.305h.075z" fill="#E6332A"/><path d="M224.294 35.566l.057-.083s-.057.103-.057.083z" fill="#F9B233"/><path d="M227.468 35.565v-.061s-.075-.102-.094-.143l-.831-1.955-.416-1.059-.567.978-1.095 1.893-.113.184-.057.081s-.076.204-.076.245c0 .264.151.509.473.712.642.387 1.662.387 2.304 0 .264-.163.416-.366.453-.57 0-.102 0-.204-.056-.305h.075z" fill="#E6332A"/><path d="M214.767 35.769l.057-.083s-.057.103-.057.083z" fill="#00A19A"/><path d="M217.939 35.788l-.019-.06c-.019-.062-.038-.103-.056-.143l-.831-1.955-.416-1.059-.567.977-1.095 1.894-.114.183-.056.082s-.076.203-.076.244c0 .265.151.51.472.713.643.387 1.663.387 2.305 0 .264-.163.415-.346.453-.57 0-.102 0-.204-.056-.306h.056z" fill="#00A19A"/><path d="M214.767 35.769l.057-.083s-.057.103-.057.083z" fill="#F9B233"/><path d="M217.939 35.788l-.019-.06c-.019-.062-.038-.103-.056-.143l-.831-1.955-.416-1.059-.567.977-1.095 1.894-.114.183-.056.082s-.076.203-.076.244c0 .265.151.51.472.713.643.387 1.663.387 2.305 0 .264-.163.415-.346.453-.57 0-.102 0-.204-.056-.306h.056z" fill="#00A19A"/><path d="M46.028 228.581c0 .713-.435 1.426-1.304 1.955-1.737 1.079-4.57 1.079-6.308 0-.87-.55-1.304-1.262-1.304-1.955 0-.692.435-1.425 1.304-1.975 1.737-1.079 4.57-1.079 6.308 0 .87.55 1.304 1.263 1.304 1.975z" fill="#AB261F"/><path d="M46.028 228.581c0 .713-.435 1.426-1.304 1.955-1.737 1.079-4.57 1.079-6.308 0-.87-.55-1.304-1.262-1.304-1.955 0-2.667 2.002-4.805 4.458-4.805 2.455 0 4.458 2.158 4.458 4.805z" fill="#AB261F"/><path d="M28.237 186.922l-.37.153 13.473 37.938.37-.153-13.473-37.938z" fill="#706F6F"/><path d="M41.322 224.956l-3.778-35.023.397-.061 3.778 35.044-.397.04z" fill="#B2B2B2"/><path d="M46.83 189.192l-5.505 35.694.392.07 5.505-35.694-.391-.07z" fill="#C6C6C6"/><path d="M41.7 225.018l-.358-.163 14.166-39.503.359.163-14.166 39.503z" fill="#575756"/><path d="M34.095 180.094l-.39.077 7.62 44.804.39-.077-7.62-44.804z" fill="#706F6F"/><path d="M46.355 170.219l-5.04 54.71.396.042 5.038-54.71-.395-.042z" fill="#9D9D9C"/><path d="M41.338 225.018l-.547-64.753.377-.02.548 64.732-.378.041z" fill="#706F6F"/><path d="M47.673 163.279c-.321 4.622-3.57 8.145-7.254 7.839-3.664-.305-6.384-4.296-6.063-8.939.322-4.622 3.57-8.124 7.253-7.839 3.665.305 6.385 4.296 6.064 8.939z" fill="#F9B233"/><path d="M41.892 173.603l-3.287-.285 1.89-3.258 1.397 3.543z" fill="#E6332A"/><path d="M37.38 160.244c-.397 1.181-1.096 1.996-1.587 1.813-.491-.184-.567-1.304-.189-2.485.397-1.181 1.096-1.995 1.587-1.812.49.183.566 1.303.189 2.484z" fill="#fff"/><path d="M32.539 176.474c.869 4.541-1.341 8.878-4.949 9.692-3.607.815-7.234-2.219-8.122-6.76-.869-4.541 1.341-8.878 4.949-9.693 3.608-.814 7.234 2.22 8.122 6.761z" fill="#F9B233"/><path d="M22.169 175.272c-.246 1.242-.85 2.138-1.36 2.036-.51-.122-.718-1.221-.491-2.443.245-1.242.85-2.138 1.36-2.016.51.122.717 1.201.49 2.443v-.02z" fill="#fff"/><path d="M39.917 170.548c0 4.643-2.984 8.41-6.667 8.41s-6.668-3.767-6.668-8.41c0-4.642 2.985-8.41 6.668-8.41 3.683 0 6.667 3.768 6.667 8.41z" fill="#E6332A"/><path d="M34.894 181.32h-3.305l1.662-3.401 1.643 3.401z" fill="#E6332A"/><path d="M29.456 168.369c-.302 1.222-.963 2.097-1.454 1.955-.51-.143-.661-1.242-.36-2.464.303-1.222.964-2.097 1.455-1.955.51.143.661 1.242.36 2.464z" fill="#fff"/><path d="M53.241 170.65c0 4.643-2.984 8.41-6.668 8.41-3.683 0-6.667-3.767-6.667-8.41 0-4.643 2.984-8.41 6.667-8.41 3.684 0 6.668 3.767 6.668 8.41z" fill="#63D4CF"/><path d="M48.218 181.422h-3.287l1.644-3.421 1.643 3.421z" fill="#E6332A"/><path d="M42.78 168.472c-.303 1.222-.964 2.097-1.455 1.955-.51-.143-.66-1.242-.359-2.464.303-1.222.964-2.097 1.455-1.955.49.143.66 1.242.359 2.464z" fill="#fff"/><path d="M43.74 179.487c.359 4.623-2.342 8.634-6.007 8.96-3.664.326-6.932-3.156-7.29-7.779-.36-4.622 2.342-8.633 6.006-8.959 3.664-.326 6.932 3.156 7.29 7.778z" fill="#00A19A"/><path d="M33.145 178.245c-.208 1.243-.794 2.159-1.304 2.077-.51-.101-.755-1.181-.547-2.423.207-1.242.793-2.158 1.303-2.077.51.102.755 1.181.548 2.423z" fill="#fff"/><path d="M54.62 180.79c-.396 4.622-3.701 8.064-7.366 7.697-3.664-.366-6.308-4.418-5.912-9.041.397-4.622 3.702-8.063 7.367-7.697 3.664.367 6.308 4.419 5.912 9.041z" fill="#E6332A"/><path d="M44.378 177.573c-.415 1.181-1.133 1.996-1.624 1.792-.491-.204-.548-1.303-.151-2.505.415-1.181 1.133-1.995 1.624-1.791.491.203.548 1.303.151 2.504z" fill="#fff"/><path d="M62.93 176.962c-.32 4.622-3.57 8.124-7.253 7.839-3.683-.305-6.384-4.296-6.063-8.939.321-4.622 3.57-8.125 7.253-7.84 3.665.306 6.384 4.297 6.063 8.94z" fill="#F9B233"/><path d="M52.634 173.928c-.397 1.181-1.096 1.996-1.587 1.813-.49-.184-.566-1.304-.189-2.485.397-1.181 1.096-1.995 1.587-1.812.491.183.566 1.303.189 2.484z" fill="#fff"/><path d="M53.906 186.981l.057-.082s-.057.103-.057.082z" fill="#F9B233"/><path d="M57.08 186.981v-.061s-.075-.102-.094-.143l-.831-1.955-.416-1.058-.566.977-1.096 1.894-.113.183-.057.081s-.076.204-.076.245c0 .265.151.509.473.713.642.386 1.662.386 2.304 0 .265-.163.416-.367.453-.571 0-.101 0-.203-.056-.305h.075zm-30.438.937l.057-.082s-.058.103-.058.082z" fill="#F9B233"/><path d="M29.797 187.327l-2.361-3.462-.756 3.971s-.113.631.454.916c.66.326 1.624.163 2.229-.285.472-.367.434-.611.472-.815 0-.101-.038-.305-.038-.305v-.02z" fill="#F9B233"/><path d="M45.646 189.77l.057-.082s-.057.103-.057.082z" fill="#E6332A"/><path d="M48.82 189.77v-.061s-.075-.102-.094-.143l-.83-1.955-.416-1.059-.567.978-1.095 1.894-.114.183-.056.081s-.076.204-.076.245c0 .264.151.509.472.712.642.387 1.662.387 2.305 0 .264-.163.415-.346.453-.57 0-.102 0-.204-.057-.305h.076z" fill="#E6332A"/><path d="M45.646 189.77l.057-.082s-.057.103-.057.082z" fill="#F9B233"/><path d="M48.82 189.77v-.061s-.075-.102-.094-.143l-.83-1.955-.416-1.059-.567.978-1.095 1.894-.114.183-.056.081s-.076.204-.076.245c0 .264.151.509.472.712.642.387 1.662.387 2.305 0 .264-.163.415-.346.453-.57 0-.102 0-.204-.057-.305h.076z" fill="#E6332A"/><path d="M36.107 189.974l.058-.082s-.058.103-.058.082z" fill="#00A19A"/><path d="M39.28 189.994v-.061s-.076-.101-.095-.142l-.831-1.955-.416-1.059-.567.978-1.095 1.893-.113.184-.038.081s-.076.204-.076.244c0 .265.151.509.473.713.642.387 1.662.387 2.304 0 .264-.163.416-.367.453-.57 0-.102 0-.204-.056-.306h.056z" fill="#00A19A"/><path d="M36.107 189.974l.058-.082s-.058.103-.058.082z" fill="#F9B233"/><path d="M39.28 189.994v-.061s-.076-.101-.095-.142l-.831-1.955-.416-1.059-.567.978-1.095 1.893-.113.184-.038.081s-.076.204-.076.244c0 .265.151.509.473.713.642.387 1.662.387 2.304 0 .264-.163.416-.367.453-.57 0-.102 0-.204-.056-.306h.056z" fill="#00A19A"/><path d="M361.486 218.522c0 .712-.435 1.425-1.304 1.955-1.737 1.079-4.571 1.079-6.308 0-.869-.55-1.304-1.263-1.304-1.955 0-.693.435-1.426 1.304-1.975 1.737-1.08 4.571-1.08 6.308 0 .869.549 1.304 1.262 1.304 1.975z" fill="#AB261F"/><path d="M361.486 218.522c0 .713-.435 1.426-1.304 1.955-1.737 1.079-4.571 1.079-6.308 0-.869-.55-1.304-1.262-1.304-1.955 0-2.667 2.003-4.805 4.458-4.805s4.477 2.158 4.477 4.805h-.019z" fill="#AB261F"/><path d="M343.675 176.887l-.37.153 13.473 37.938.371-.153-13.474-37.938z" fill="#706F6F"/><path d="M356.779 214.899l-3.777-35.024.377-.061 3.778 35.023-.378.062z" fill="#B2B2B2"/><path d="M362.331 179.167l-5.522 35.691.391.07 5.522-35.691-.391-.07z" fill="#C6C6C6"/><path d="M357.154 214.959l-.377-.163 14.166-39.503.378.163-14.167 39.503z" fill="#575756"/><path d="M349.552 170.017l-.39.077 7.62 44.804.391-.077-7.621-44.804z" fill="#706F6F"/><path d="M361.855 160.157l-5.03 54.711.395.042 5.029-54.711-.394-.042z" fill="#9D9D9C"/><path d="M356.779 214.939l-.548-64.753h.397l.529 64.713-.378.04z" fill="#706F6F"/><path d="M363.103 153.2c-.321 4.622-3.57 8.124-7.253 7.839-3.683-.305-6.384-4.296-6.063-8.939.321-4.622 3.57-8.124 7.253-7.839 3.664.305 6.384 4.296 6.063 8.939z" fill="#F9B233"/><path d="M357.323 163.524l-3.268-.265 1.87-3.258 1.398 3.523z" fill="#E6332A"/><path d="M352.83 150.165c-.397 1.202-1.096 1.996-1.587 1.813-.491-.184-.567-1.303-.189-2.484.378-1.182 1.096-1.996 1.587-1.813.491.184.566 1.303.189 2.484z" fill="#fff"/><path d="M347.996 166.415c.869 4.541-1.341 8.878-4.949 9.692-3.607.815-7.234-2.219-8.122-6.76-.869-4.541 1.341-8.878 4.949-9.693 3.608-.814 7.234 2.22 8.122 6.761z" fill="#F9B233"/><path d="M337.607 165.193c-.245 1.242-.85 2.138-1.36 2.036-.51-.122-.718-1.201-.491-2.443.246-1.242.85-2.138 1.36-2.016.51.122.718 1.201.491 2.443v-.02z" fill="#fff"/><path d="M355.363 160.489c0 4.643-2.984 8.41-6.667 8.41-3.684 0-6.668-3.767-6.668-8.41 0-4.642 2.984-8.41 6.668-8.41 3.683 0 6.667 3.768 6.667 8.41z" fill="#E6332A"/><path d="M350.34 171.261h-3.286l1.643-3.401 1.643 3.401z" fill="#E6332A"/><path d="M344.901 158.31c-.302 1.222-.964 2.098-1.455 1.955-.491-.142-.661-1.242-.359-2.464.303-1.221.964-2.097 1.455-1.954.51.142.661 1.242.359 2.463z" fill="#fff"/><path d="M368.678 160.592c0 4.643-2.985 8.41-6.668 8.41-3.683 0-6.668-3.767-6.668-8.41 0-4.643 2.985-8.41 6.668-8.41 3.683 0 6.668 3.767 6.668 8.41z" fill="#63D4CF"/><path d="M363.655 171.342h-3.287l1.643-3.4 1.644 3.4z" fill="#E6332A"/><path d="M358.216 158.412c-.302 1.222-.963 2.098-1.454 1.955-.51-.142-.661-1.242-.359-2.464.302-1.221.963-2.097 1.454-1.954.51.142.662 1.242.359 2.463z" fill="#fff"/><path d="M359.197 169.429c.359 4.622-2.342 8.633-6.006 8.98-3.664.325-6.932-3.157-7.291-7.779s2.342-8.634 6.007-8.959c3.664-.326 6.932 3.156 7.29 7.778v-.02z" fill="#00A19A"/><path d="M348.602 168.187c-.208 1.242-.794 2.158-1.304 2.077-.51-.102-.755-1.181-.547-2.423.207-1.242.793-2.159 1.303-2.077.51.102.755 1.181.548 2.423z" fill="#fff"/><path d="M370.059 170.732c-.397 4.623-3.702 8.064-7.367 7.697-3.664-.366-6.308-4.418-5.912-9.041.397-4.622 3.703-8.063 7.367-7.697 3.664.367 6.309 4.419 5.912 9.041z" fill="#E6332A"/><path d="M359.823 167.514c-.416 1.181-1.133 1.996-1.624 1.792-.492-.204-.548-1.303-.152-2.505.416-1.181 1.134-1.995 1.625-1.791.491.203.548 1.323.151 2.504z" fill="#fff"/><path d="M378.368 166.904c-.321 4.622-3.57 8.124-7.253 7.839-3.665-.305-6.384-4.296-6.063-8.939.321-4.622 3.57-8.125 7.253-7.839 3.683.305 6.384 4.296 6.063 8.939z" fill="#F9B233"/><path d="M368.091 163.869c-.397 1.181-1.095 1.996-1.587 1.813-.491-.184-.566-1.304-.188-2.485.396-1.201 1.095-1.995 1.586-1.812.491.183.567 1.303.189 2.484z" fill="#fff"/><path d="M369.357 176.902l.058-.082s-.058.103-.058.082z" fill="#F9B233"/><path d="M372.532 176.922v-.061s-.076-.102-.095-.143l-.831-1.954-.415-1.059-.567.977-1.095 1.894-.114.183-.056.082s-.076.203-.076.244c0 .265.151.509.472.713.642.386 1.662.386 2.305 0 .264-.163.415-.347.453-.571 0-.101 0-.203-.057-.305h.076zm-30.448.938l.057-.082s-.057.102-.057.082z" fill="#F9B233"/><path d="M345.239 177.268l-2.361-3.461-.756 3.97s-.113.632.454.917c.68.325 1.624.162 2.228-.285.473-.367.435-.611.473-.815 0-.102-.038-.305-.038-.305v-.021z" fill="#F9B233"/><path d="M361.083 179.712l.057-.082s-.057.103-.057.082z" fill="#E6332A"/><path d="M364.258 179.712v-.061s-.076-.102-.095-.143l-.831-1.955-.415-1.058-.567.977-1.095 1.894-.114.183-.056.081s-.076.204-.076.245c0 .264.151.509.472.712.642.387 1.662.387 2.305 0 .264-.163.415-.366.453-.57 0-.102 0-.203-.057-.305h.076z" fill="#E6332A"/><path d="M361.083 179.712l.057-.082s-.057.103-.057.082z" fill="#F9B233"/><path d="M364.258 179.712v-.061s-.076-.102-.095-.143l-.831-1.955-.415-1.058-.567.977-1.095 1.894-.114.183-.056.081s-.076.204-.076.245c0 .264.151.509.472.712.642.387 1.662.387 2.305 0 .264-.163.415-.366.453-.57 0-.102 0-.203-.057-.305h.076z" fill="#E6332A"/><path d="M351.539 179.916l.057-.082s-.057.103-.057.082z" fill="#00A19A"/><path d="M354.711 179.935v-.061s-.076-.101-.095-.142l-.831-1.955-.415-1.059-.567.978-1.095 1.893-.114.184-.038.081s-.075.204-.075.244c0 .265.151.509.472.713.642.387 1.662.387 2.305 0 .264-.163.415-.366.453-.57 0-.102 0-.204-.057-.306h.057z" fill="#00A19A"/><path d="M351.539 179.916l.057-.082s-.057.103-.057.082z" fill="#F9B233"/><path d="M354.711 179.935v-.061s-.076-.101-.095-.142l-.831-1.955-.415-1.059-.567.978-1.095 1.893-.114.184-.038.081s-.075.204-.075.244c0 .265.151.509.472.713.642.387 1.662.387 2.305 0 .264-.163.415-.366.453-.57 0-.102 0-.204-.057-.306h.057z" fill="#00A19A"/><path d="M435.049 365.842c0 .713-.435 1.426-1.303 1.955-1.738 1.079-4.571 1.079-6.309 0-.869-.55-1.303-1.262-1.303-1.955 0-.692.434-1.425 1.303-1.975 1.738-1.079 4.571-1.079 6.309 0 .868.55 1.303 1.263 1.303 1.975z" fill="#AB261F"/><path d="M435.049 365.842c0 .713-.434 1.426-1.303 1.955-1.738 1.079-4.571 1.079-6.309 0-.869-.55-1.303-1.262-1.303-1.955 0-2.667 2.002-4.805 4.457-4.805 2.456 0 4.477 2.158 4.477 4.805h-.019z" fill="#AB261F"/><path d="M417.237 324.186l-.37.153 13.473 37.938.371-.153-13.474-37.938z" fill="#706F6F"/><path d="M430.348 362.217l-3.778-35.044.397-.04 3.778 35.023-.397.061z" fill="#B2B2B2"/><path d="M435.866 326.454l-5.523 35.691.392.07 5.522-35.691-.391-.07z" fill="#C6C6C6"/><path d="M430.726 362.258l-.358-.142 14.166-39.503.359.162-14.167 39.483z" fill="#575756"/><path d="M423.108 317.345l-.39.077 7.62 44.804.39-.077-7.62-44.804z" fill="#706F6F"/><path d="M435.351 307.466l-4.906 54.724.395.041 4.906-54.724-.395-.041z" fill="#9D9D9C"/><path d="M430.364 362.258l-.548-64.753h.378l.548 64.712-.378.041z" fill="#706F6F"/><path d="M436.692 300.519c-.321 4.623-3.57 8.125-7.253 7.84-3.684-.306-6.385-4.297-6.064-8.939.321-4.623 3.57-8.125 7.254-7.84 3.683.306 6.384 4.297 6.063 8.939z" fill="#F9B233"/><path d="M430.91 310.843l-3.286-.265 1.889-3.258 1.397 3.523z" fill="#E6332A"/><path d="M426.398 297.485c-.377 1.181-1.095 1.996-1.586 1.813-.491-.184-.567-1.303-.189-2.485.397-1.201 1.095-1.995 1.586-1.812.492.183.567 1.303.189 2.484z" fill="#fff"/><path d="M421.565 313.734c.869 4.541-1.341 8.878-4.949 9.693-3.608.814-7.234-2.22-8.122-6.761-.869-4.54 1.341-8.878 4.949-9.692 3.607-.815 7.234 2.219 8.122 6.76z" fill="#F9B233"/><path d="M411.195 312.512c-.246 1.242-.85 2.138-1.36 2.037-.51-.123-.718-1.222-.491-2.444.245-1.242.85-2.138 1.36-2.036.51.122.718 1.221.491 2.443z" fill="#fff"/><path d="M428.952 307.808c0 4.643-2.985 8.41-6.668 8.41-3.683 0-6.667-3.767-6.667-8.41 0-4.643 2.984-8.41 6.667-8.41s6.668 3.767 6.668 8.41z" fill="#E6332A"/><path d="M423.928 318.58h-3.305l1.662-3.421 1.643 3.421z" fill="#E6332A"/><path d="M418.47 305.63c-.302 1.222-.963 2.098-1.454 1.955-.492-.142-.662-1.242-.359-2.464.302-1.221.963-2.097 1.454-1.955.51.143.661 1.243.359 2.464z" fill="#fff"/><path d="M442.269 307.891c0 4.643-2.984 8.41-6.668 8.41-3.683 0-6.667-3.767-6.667-8.41 0-4.643 2.984-8.41 6.667-8.41 3.684 0 6.668 3.767 6.668 8.41z" fill="#63D4CF"/><path d="M437.246 318.663h-3.286l1.643-3.401 1.643 3.401z" fill="#E6332A"/><path d="M431.808 305.732c-.302 1.222-.963 2.097-1.454 1.955-.51-.143-.662-1.242-.359-2.464.302-1.222.963-2.097 1.454-1.935.51.143.661 1.243.359 2.464v-.02z" fill="#fff"/><path d="M432.766 316.748c.358 4.622-2.343 8.634-6.007 8.959-3.664.326-6.932-3.156-7.291-7.778s2.342-8.634 6.007-8.96c3.664-.325 6.932 3.157 7.291 7.779z" fill="#00A19A"/><path d="M422.17 315.506c-.208 1.242-.793 2.158-1.303 2.077-.51-.102-.756-1.181-.548-2.423.208-1.242.793-2.159 1.303-2.077.51.102.756 1.181.548 2.423z" fill="#fff"/><path d="M443.647 318.051c-.397 4.623-3.702 8.064-7.367 7.697-3.664-.366-6.308-4.418-5.912-9.041.397-4.622 3.702-8.063 7.367-7.697 3.664.367 6.309 4.419 5.912 9.041z" fill="#E6332A"/><path d="M433.404 314.834c-.415 1.181-1.133 1.975-1.624 1.792-.491-.204-.548-1.303-.151-2.504.396-1.182 1.133-1.996 1.624-1.792.491.203.548 1.303.151 2.504z" fill="#fff"/><path d="M451.956 314.223c-.321 4.622-3.57 8.124-7.253 7.839-3.665-.305-6.384-4.296-6.063-8.939.321-4.622 3.57-8.125 7.253-7.84 3.683.306 6.384 4.297 6.063 8.94z" fill="#F9B233"/><path d="M441.66 311.189c-.397 1.181-1.096 1.996-1.587 1.813-.491-.184-.567-1.304-.189-2.485.397-1.181 1.096-1.995 1.587-1.812.491.183.566 1.303.189 2.484z" fill="#fff"/><path d="M442.927 324.222l.057-.082s-.057.103-.057.082z" fill="#F9B233"/><path d="M446.102 324.241v-.061s-.076-.102-.095-.143l-.831-1.955-.416-1.058-.566.977-1.096 1.894-.113.183-.057.081s-.075.204-.075.245c0 .264.151.509.472.712.642.387 1.662.387 2.304 0 .265-.162.416-.366.454-.57 0-.102 0-.203-.057-.305h.076zm-30.435.938l.057-.082s-.057.103-.057.082z" fill="#F9B233"/><path d="M418.821 324.588l-2.361-3.461-.755 3.97s-.113.632.453.917c.68.326 1.625.163 2.229-.285.472-.367.434-.611.472-.815 0-.102-.038-.305-.038-.305v-.021z" fill="#F9B233"/><path d="M434.667 327.032l.057-.082s-.057.102-.057.082z" fill="#E6332A"/><path d="M437.841 327.031v-.061s-.075-.102-.094-.143l-.831-1.955-.416-1.059-.567.978-1.095 1.894-.114.183-.056.081s-.076.204-.076.245c0 .264.151.509.472.712.643.387 1.663.387 2.305 0 .264-.163.415-.366.453-.57 0-.102 0-.203-.056-.305h.075z" fill="#E6332A"/><path d="M434.667 327.032l.057-.082s-.057.102-.057.082z" fill="#F9B233"/><path d="M437.841 327.031v-.061s-.075-.102-.094-.143l-.831-1.955-.416-1.059-.567.978-1.095 1.894-.114.183-.056.081s-.076.204-.076.245c0 .264.151.509.472.712.643.387 1.663.387 2.305 0 .264-.163.415-.366.453-.57 0-.102 0-.203-.056-.305h.075z" fill="#E6332A"/><path d="M425.129 327.235l.057-.082s-.057.102-.057.082z" fill="#00A19A"/><path d="M428.304 327.255v-.061s-.076-.101-.094-.142l-.832-1.955-.415-1.059-.567.978-1.095 1.893-.114.184-.056.081s-.076.204-.076.244c0 .265.151.509.472.713.643.387 1.663.387 2.305 0 .264-.163.415-.366.453-.57 0-.102 0-.204-.057-.306h.076z" fill="#00A19A"/><path d="M425.129 327.235l.057-.082s-.057.102-.057.082z" fill="#F9B233"/><path d="M428.304 327.255v-.061s-.076-.101-.094-.142l-.832-1.955-.415-1.059-.567.978-1.095 1.893-.114.184-.056.081s-.076.204-.076.244c0 .265.151.509.472.713.643.387 1.663.387 2.305 0 .264-.163.415-.366.453-.57 0-.102 0-.204-.057-.306h.076z" fill="#00A19A"/><path d="M481.263 263.004c0 .713-.434 1.426-1.303 1.955-1.738 1.079-4.571 1.079-6.309 0-.869-.55-1.303-1.262-1.303-1.955 0-.692.434-1.425 1.303-1.975 1.738-1.079 4.571-1.079 6.309 0 .869.55 1.303 1.263 1.303 1.975z" fill="#AB261F"/><path d="M481.263 263.004c0 .713-.435 1.426-1.303 1.955-1.738 1.079-4.571 1.079-6.309 0-.869-.55-1.303-1.262-1.303-1.955 0-2.667 2.002-4.805 4.457-4.805 2.456 0 4.458 2.158 4.458 4.805z" fill="#AB261F"/><path d="M463.458 221.345l-.371.153 13.474 37.938.37-.153-13.473-37.938z" fill="#706F6F"/><path d="M476.562 259.359l-3.778-35.023.397-.041 3.778 35.023-.397.041z" fill="#B2B2B2"/><path d="M482.045 223.579l-5.505 35.694.391.07 5.505-35.694-.391-.07z" fill="#C6C6C6"/><path d="M476.941 259.421l-.359-.163 14.166-39.483.359.163-14.166 39.483z" fill="#575756"/><path d="M469.319 214.515l-.39.077 7.62 44.804.39-.077-7.62-44.804z" fill="#706F6F"/><path d="M481.574 204.609l-5.012 54.712.395.042 5.012-54.712-.395-.042z" fill="#9D9D9C"/><path d="M476.578 259.42l-.548-64.753h.378l.548 64.713-.378.04z" fill="#706F6F"/><path d="M482.909 197.681c-.321 4.623-3.57 8.125-7.253 7.84-3.684-.306-6.385-4.297-6.064-8.939.322-4.623 3.57-8.125 7.254-7.84 3.664.306 6.384 4.297 6.063 8.939z" fill="#F9B233"/><path d="M477.127 208.005l-3.286-.285 1.888-3.258 1.398 3.543z" fill="#E6332A"/><path d="M472.615 194.647c-.396 1.181-1.095 1.995-1.586 1.812-.491-.183-.567-1.303-.189-2.484.396-1.201 1.095-1.996 1.586-1.812.491.183.567 1.303.189 2.484z" fill="#fff"/><path d="M467.779 210.876c.868 4.541-1.342 8.878-4.949 9.693-3.608.814-7.234-2.22-8.122-6.761-.869-4.541 1.341-8.878 4.948-9.692 3.608-.815 7.235 2.219 8.123 6.76z" fill="#F9B233"/><path d="M457.409 209.675c-.245 1.242-.85 2.138-1.36 2.036-.51-.122-.718-1.222-.491-2.444.246-1.242.85-2.138 1.36-2.016.51.123.718 1.202.491 2.444v-.02z" fill="#fff"/><path d="M475.162 204.97c0 4.643-2.984 8.41-6.667 8.41s-6.668-3.767-6.668-8.41c0-4.642 2.985-8.41 6.668-8.41 3.683 0 6.667 3.768 6.667 8.41z" fill="#E6332A"/><path d="M470.139 215.722h-3.305l1.662-3.401 1.643 3.401z" fill="#E6332A"/><path d="M464.701 202.792c-.302 1.222-.963 2.097-1.454 1.955-.51-.143-.661-1.243-.359-2.464.302-1.222.963-2.098 1.455-1.955.509.142.661 1.242.358 2.464z" fill="#fff"/><path d="M488.479 205.052c0 4.643-2.984 8.41-6.667 8.41s-6.668-3.767-6.668-8.41c0-4.642 2.985-8.409 6.668-8.409 3.683 0 6.667 3.767 6.667 8.409z" fill="#63D4CF"/><path d="M483.457 215.825h-3.287l1.643-3.401 1.644 3.401z" fill="#E6332A"/><path d="M478.018 202.874c-.302 1.222-.963 2.097-1.454 1.955-.51-.143-.661-1.243-.359-2.464.302-1.222.963-2.098 1.455-1.935.509.143.661 1.242.358 2.464v-.02z" fill="#fff"/><path d="M478.98 213.889c.358 4.623-2.343 8.634-6.007 8.96-3.664.326-6.932-3.156-7.291-7.778-.359-4.623 2.342-8.634 6.007-8.98 3.664-.326 6.932 3.156 7.291 7.778v.02z" fill="#00A19A"/><path d="M468.384 212.668c-.207 1.242-.793 2.158-1.303 2.077-.51-.102-.755-1.181-.548-2.423.208-1.242.794-2.159 1.304-2.077.51.102.755 1.181.547 2.423z" fill="#fff"/><path d="M489.861 215.213c-.397 4.623-3.702 8.064-7.367 7.697-3.664-.366-6.308-4.418-5.912-9.041.397-4.622 3.702-8.063 7.367-7.697 3.664.367 6.309 4.419 5.912 9.041z" fill="#E6332A"/><path d="M479.618 211.996c-.415 1.181-1.133 1.996-1.624 1.792-.491-.203-.548-1.323-.151-2.504.415-1.181 1.133-1.996 1.624-1.792.491.203.548 1.303.151 2.504z" fill="#fff"/><path d="M498.17 211.365c-.321 4.622-3.57 8.124-7.254 7.839-3.664-.305-6.384-4.296-6.063-8.939.321-4.622 3.57-8.125 7.253-7.84 3.665.306 6.385 4.297 6.064 8.94z" fill="#F9B233"/><path d="M487.874 208.331c-.397 1.181-1.096 1.995-1.587 1.812-.491-.183-.567-1.303-.189-2.484.397-1.181 1.096-1.996 1.587-1.813.491.184.566 1.304.189 2.485z" fill="#fff"/><path d="M489.141 221.384l.057-.082s-.057.102-.057.082z" fill="#F9B233"/><path d="M492.315 221.382l-.037-.061a.99.99 0 00-.057-.142l-.831-1.955-.416-1.059-.566.977-1.096 1.894-.113.183-.057.082s-.075.203-.075.244c0 .265.151.509.472.713.642.387 1.662.387 2.304 0 .265-.163.416-.346.453-.57 0-.102 0-.204-.056-.306h.075zm-30.432.959l.058-.082s-.058.102-.058.082z" fill="#F9B233"/><path d="M465.038 221.75l-2.361-3.462-.756 3.971s-.113.631.454.916c.661.326 1.624.163 2.229-.285.472-.367.434-.611.472-.815 0-.101-.038-.305-.038-.305v-.02z" fill="#F9B233"/><path d="M480.883 224.174l.057-.082s-.057.102-.057.082z" fill="#E6332A"/><path d="M484.058 224.193v-.061s-.076-.102-.095-.142l-.831-1.955-.415-1.059-.567.977-1.096 1.894-.113.183-.057.082s-.075.204-.075.244c0 .265.151.509.472.713.642.387 1.662.387 2.304 0 .265-.163.416-.346.454-.57 0-.102 0-.204-.057-.306h.076z" fill="#E6332A"/><path d="M480.883 224.174l.057-.082s-.057.102-.057.082z" fill="#F9B233"/><path d="M484.058 224.193v-.061s-.076-.102-.095-.142l-.831-1.955-.415-1.059-.567.977-1.096 1.894-.113.183-.057.082s-.075.204-.075.244c0 .265.151.509.472.713.642.387 1.662.387 2.304 0 .265-.163.416-.346.454-.57 0-.102 0-.204-.057-.306h.076z" fill="#E6332A"/><path d="M471.345 224.397l.058-.082s-.058.103-.058.082z" fill="#00A19A"/><path d="M474.52 224.396v-.061s-.076-.102-.094-.143l-.832-1.955-.415-1.059-.567.978-1.095 1.894-.114.183-.056.081s-.076.204-.076.245c0 .264.151.509.472.712.643.387 1.663.387 2.305 0 .264-.163.415-.366.453-.57 0-.102 0-.203-.057-.305h.076z" fill="#00A19A"/><path d="M471.345 224.397l.058-.082s-.058.103-.058.082z" fill="#F9B233"/><path d="M474.52 224.396v-.061s-.076-.102-.094-.143l-.832-1.955-.415-1.059-.567.978-1.095 1.894-.114.183-.056.081s-.076.204-.076.245c0 .264.151.509.472.712.643.387 1.663.387 2.305 0 .264-.163.415-.366.453-.57 0-.102 0-.203-.057-.305h.076z" fill="#00A19A"/><path d="M188.667 482.563c0 .713-.434 1.426-1.303 1.955-1.738 1.079-4.571 1.079-6.309 0-.869-.55-1.303-1.262-1.303-1.955 0-.692.434-1.425 1.303-1.975 1.738-1.079 4.571-1.079 6.309 0 .869.55 1.303 1.263 1.303 1.975z" fill="#AB261F"/><path d="M188.667 482.564c0 .712-.434 1.425-1.303 1.954-1.738 1.08-4.571 1.08-6.309 0-.869-.549-1.303-1.262-1.303-1.954 0-2.648 2.002-4.806 4.458-4.806 2.455 0 4.457 2.158 4.457 4.806z" fill="#AB261F"/><path d="M183.966 478.98l-13.467-37.936.358-.142 13.468 37.935-.359.143z" fill="#706F6F"/><path d="M183.947 478.939l-3.778-35.024.397-.061 3.778 35.024-.397.061z" fill="#B2B2B2"/><path d="M189.446 443.154l-5.505 35.694.391.07 5.505-35.694-.391-.07z" fill="#C6C6C6"/><path d="M184.326 479l-.359-.163 14.166-39.503.378.163L184.326 479z" fill="#575756"/><path d="M183.948 478.959l-7.612-44.817.378-.062 7.631 44.798-.397.081z" fill="#706F6F"/><path d="M188.973 424.156l-5.012 54.712.394.042 5.012-54.712-.394-.042z" fill="#9D9D9C"/><path d="M183.963 478.98l-.548-64.753h.397l.529 64.712-.378.041z" fill="#706F6F"/><path d="M190.294 417.24c-.321 4.623-3.57 8.125-7.253 7.82-3.664-.306-6.384-4.297-6.063-8.919.321-4.623 3.57-8.145 7.253-7.84 3.664.306 6.384 4.297 6.063 8.939z" fill="#F9B233"/><path d="M184.513 427.564l-3.287-.265 1.889-3.258 1.398 3.523z" fill="#E6332A"/><path d="M180.001 414.206c-.397 1.182-1.095 1.996-1.586 1.813-.492-.184-.567-1.303-.189-2.485.396-1.201 1.095-2.015 1.586-1.812.491.184.567 1.303.189 2.484z" fill="#fff"/><path d="M175.164 430.455c.869 4.541-1.341 8.878-4.949 9.693-3.608.814-7.234-2.22-8.122-6.76-.869-4.541 1.341-8.879 4.949-9.693 3.608-.815 7.234 2.22 8.122 6.76z" fill="#F9B233"/><path d="M164.794 429.234c-.245 1.242-.85 2.138-1.36 2.036-.51-.122-.717-1.222-.491-2.444.246-1.242.85-2.138 1.36-2.015.51.122.718 1.201.491 2.443v-.02z" fill="#fff"/><path d="M182.548 424.53c0 4.643-2.984 8.41-6.668 8.41-3.683 0-6.667-3.767-6.667-8.41 0-4.643 2.984-8.41 6.667-8.41 3.684 0 6.668 3.767 6.668 8.41z" fill="#E6332A"/><path d="M177.525 435.302h-3.286l1.643-3.401 1.643 3.401z" fill="#E6332A"/><path d="M172.086 422.351c-.302 1.222-.964 2.097-1.455 1.955-.491-.143-.661-1.242-.359-2.464.303-1.222.964-2.098 1.455-1.935.51.143.661 1.263.359 2.464v-.02z" fill="#fff"/><path d="M195.869 424.632c0 4.642-2.985 8.409-6.668 8.409-3.683 0-6.667-3.767-6.667-8.409 0-4.643 2.984-8.41 6.667-8.41s6.668 3.767 6.668 8.41z" fill="#63D4CF"/><path d="M190.845 435.383h-3.286l1.643-3.4 1.643 3.4z" fill="#E6332A"/><path d="M185.407 422.453c-.302 1.222-.963 2.098-1.454 1.955-.51-.142-.661-1.262-.359-2.464.302-1.221.963-2.097 1.454-1.934.51.142.661 1.242.359 2.464v-.021z" fill="#fff"/><path d="M186.381 433.469c.359 4.623-2.342 8.634-6.006 8.96-3.665.326-6.932-3.156-7.291-7.779-.359-4.622 2.342-8.633 6.006-8.98 3.664-.325 6.932 3.157 7.291 7.779v.02z" fill="#00A19A"/><path d="M175.785 432.227c-.207 1.242-.793 2.158-1.303 2.077-.51-.102-.755-1.181-.548-2.423.208-1.242.794-2.179 1.304-2.077.51.102.755 1.181.547 2.423z" fill="#fff"/><path d="M197.246 434.772c-.397 4.623-3.702 8.064-7.367 7.697-3.664-.366-6.308-4.418-5.912-9.041.397-4.622 3.702-8.063 7.367-7.697 3.664.367 6.308 4.419 5.912 9.041z" fill="#E6332A"/><path d="M187.004 431.554c-.416 1.181-1.134 1.996-1.625 1.792-.491-.203-.548-1.303-.151-2.504.416-1.181 1.133-1.976 1.624-1.792.492.203.548 1.303.152 2.504z" fill="#fff"/><path d="M205.555 430.944c-.321 4.622-3.57 8.145-7.253 7.84-3.683-.306-6.384-4.297-6.063-8.939.321-4.623 3.57-8.125 7.253-7.82 3.664.306 6.384 4.297 6.063 8.919z" fill="#F9B233"/><path d="M195.259 427.911c-.397 1.181-1.096 1.995-1.587 1.812-.491-.184-.567-1.303-.189-2.484.397-1.182 1.096-1.996 1.587-1.813.491.184.566 1.303.189 2.485z" fill="#fff"/><path d="M196.526 440.943l.057-.082s-.057.102-.057.082z" fill="#F9B233"/><path d="M199.698 440.962l-.038-.061a1.06 1.06 0 00-.057-.143l-.831-1.954-.415-1.059-.567.977-1.095 1.894-.114.183-.037.082s-.076.203-.076.244c0 .265.151.509.472.713.642.387 1.662.387 2.305 0 .264-.163.415-.347.453-.571 0-.101 0-.203-.057-.305h.057zm-30.429.938l.057-.082s-.057.103-.057.082z" fill="#F9B233"/><path d="M172.424 441.309l-2.361-3.462-.756 3.971s-.113.631.453.916c.661.326 1.625.163 2.229-.285.472-.367.435-.611.472-.815 0-.101-.037-.305-.037-.305v-.02z" fill="#F9B233"/><path d="M188.273 443.753l.057-.082s-.057.102-.057.082z" fill="#E6332A"/><path d="M191.447 443.752l-.038-.061s-.037-.101-.056-.142l-.831-1.955-.416-1.059-.567.978-1.095 1.893-.113.184-.057.081s-.076.204-.076.244c0 .265.152.509.473.713.642.387 1.662.387 2.304 0 .264-.163.416-.346.453-.57 0-.102 0-.204-.056-.306h.075z" fill="#E6332A"/><path d="M188.273 443.753l.057-.082s-.057.102-.057.082z" fill="#F9B233"/><path d="M191.447 443.752l-.038-.061s-.037-.101-.056-.142l-.831-1.955-.416-1.059-.567.978-1.095 1.893-.113.184-.057.081s-.076.204-.076.244c0 .265.152.509.473.713.642.387 1.662.387 2.304 0 .264-.163.416-.346.453-.57 0-.102 0-.204-.056-.306h.075z" fill="#E6332A"/><path d="M178.729 443.957l.057-.082s-.057.102-.057.082z" fill="#00A19A"/><path d="M181.904 443.977v-.061s-.076-.102-.095-.143l-.831-1.955-.415-1.059-.567.978-1.096 1.893-.113.184-.057.081s-.075.204-.075.245c0 .264.151.509.472.712.642.387 1.662.387 2.304 0 .265-.163.416-.366.454-.57 0-.102 0-.204-.057-.305h.076z" fill="#00A19A"/><path d="M178.729 443.957l.057-.082s-.057.102-.057.082z" fill="#F9B233"/><path d="M181.904 443.977v-.061s-.076-.102-.095-.143l-.831-1.955-.415-1.059-.567.978-1.096 1.893-.113.184-.057.081s-.075.204-.075.245c0 .264.151.509.472.712.642.387 1.662.387 2.304 0 .265-.163.416-.366.454-.57 0-.102 0-.204-.057-.305h.076z" fill="#00A19A"/><path d="M26.86 554.894c0 .712-.434 1.425-1.302 1.954-1.738 1.08-4.572 1.08-6.31 0-.868-.549-1.303-1.262-1.303-1.954 0-.693.435-1.426 1.304-1.975 1.738-1.08 4.57-1.08 6.309 0 .868.549 1.303 1.262 1.303 1.975z" fill="#AB261F"/><path d="M26.861 554.894c0 .713-.434 1.425-1.303 1.955-1.738 1.079-4.571 1.079-6.309 0-.869-.55-1.303-1.263-1.303-1.955 0-2.667 2.002-4.805 4.457-4.805 2.456 0 4.458 2.158 4.458 4.805z" fill="#AB261F"/><path d="M22.158 551.31L8.672 513.375l.378-.163 13.467 37.935-.359.163z" fill="#706F6F"/><path d="M22.14 551.249l-3.778-35.024.397-.04 3.777 35.023-.396.041z" fill="#B2B2B2"/><path d="M27.685 515.562l-5.5 35.696.392.07 5.499-35.696-.391-.07z" fill="#C6C6C6"/><path d="M22.519 551.31l-.36-.163 14.167-39.483.359.143-14.166 39.503z" fill="#575756"/><path d="M22.141 551.269l-7.612-44.797.378-.082 7.631 44.798-.397.081z" fill="#706F6F"/><path d="M27.206 496.563l-5.03 54.711.395.042 5.03-54.711-.395-.042z" fill="#9D9D9C"/><path d="M22.156 551.31l-.548-64.753h.397l.529 64.712-.378.041z" fill="#706F6F"/><path d="M28.485 489.571c-.322 4.623-3.57 8.145-7.253 7.84-3.665-.306-6.385-4.297-6.064-8.919.321-4.622 3.57-8.145 7.254-7.84 3.683.306 6.384 4.297 6.063 8.919z" fill="#F9B233"/><path d="M22.704 499.895l-3.287-.285 1.89-3.258 1.397 3.543z" fill="#E6332A"/><path d="M18.192 486.537c-.378 1.181-1.096 1.995-1.587 1.812-.49-.183-.566-1.303-.189-2.484.397-1.181 1.096-2.016 1.587-1.813.491.184.567 1.304.189 2.485z" fill="#fff"/><path d="M13.357 502.766c.869 4.541-1.341 8.878-4.95 9.693-3.607.814-7.233-2.22-8.121-6.76-.869-4.541 1.34-8.878 4.949-9.693 3.607-.815 7.234 2.22 8.122 6.76z" fill="#F9B233"/><path d="M2.987 501.564c-.246 1.242-.85 2.138-1.36 2.016-.51-.122-.718-1.201-.491-2.443.245-1.242.85-2.138 1.36-2.037.51.123.717 1.222.49 2.444v.02z" fill="#fff"/><path d="M20.739 496.861c0 4.643-2.984 8.41-6.668 8.41-3.683 0-6.667-3.767-6.667-8.41 0-4.643 2.984-8.41 6.667-8.41 3.684 0 6.668 3.767 6.668 8.41z" fill="#E6332A"/><path d="M15.716 507.612H12.41l1.662-3.401 1.644 3.401z" fill="#E6332A"/><path d="M10.278 494.682c-.302 1.222-.963 2.097-1.454 1.955-.51-.143-.662-1.263-.36-2.464.303-1.222.964-2.097 1.455-1.935.51.143.661 1.263.359 2.464v-.02z" fill="#fff"/><path d="M34.056 496.942c0 4.643-2.984 8.41-6.667 8.41-3.684 0-6.668-3.767-6.668-8.41 0-4.643 2.984-8.41 6.668-8.41 3.683 0 6.667 3.767 6.667 8.41z" fill="#63D4CF"/><path d="M29.033 507.714h-3.286l1.643-3.401 1.643 3.401z" fill="#E6332A"/><path d="M23.595 494.764c-.302 1.221-.964 2.097-1.455 1.954-.51-.142-.66-1.242-.359-2.463.303-1.222.964-2.098 1.455-1.935.51.143.661 1.242.359 2.464v-.02z" fill="#fff"/><path d="M24.573 505.78c.36 4.622-2.342 8.633-6.006 8.959-3.664.326-6.932-3.156-7.29-7.778-.36-4.623 2.341-8.634 6.006-8.96 3.664-.326 6.932 3.156 7.29 7.779z" fill="#00A19A"/><path d="M13.962 504.537c-.207 1.242-.793 2.158-1.303 2.077-.51-.102-.756-1.181-.548-2.423.208-1.242.793-2.159 1.303-2.077.51.102.756 1.181.548 2.423z" fill="#fff"/><path d="M35.439 507.103c-.397 4.622-3.702 8.064-7.367 7.697-3.664-.366-6.308-4.419-5.912-9.041.397-4.622 3.702-8.064 7.367-7.697 3.664.367 6.308 4.419 5.912 9.041z" fill="#E6332A"/><path d="M25.197 503.885c-.397 1.181-1.134 1.976-1.625 1.792-.491-.203-.548-1.303-.151-2.504.397-1.181 1.133-1.975 1.624-1.792.491.203.548 1.303.151 2.504z" fill="#fff"/><path d="M43.748 503.255c-.321 4.622-3.57 8.124-7.253 7.839-3.683-.305-6.384-4.296-6.063-8.939.32-4.622 3.57-8.124 7.253-7.839 3.683.305 6.384 4.296 6.063 8.939z" fill="#F9B233"/><path d="M33.452 500.221c-.397 1.181-1.096 2.016-1.587 1.812-.491-.183-.567-1.303-.189-2.484.397-1.181 1.096-1.996 1.587-1.812.49.183.566 1.303.189 2.484z" fill="#fff"/><path d="M34.724 513.273l.057-.082s-.057.103-.057.082z" fill="#F9B233"/><path d="M37.898 513.273v-.061s-.076-.102-.094-.143l-.832-1.954-.415-1.059-.567.957-1.095 1.894-.114.183-.056.081s-.076.204-.076.245c0 .264.151.509.472.712.643.387 1.663.387 2.305 0 .264-.163.415-.346.453-.57 0-.102 0-.203-.056-.305l.075.02zm-30.435.957l.057-.082s-.057.103-.057.082z" fill="#F9B233"/><path d="M10.618 513.639l-2.36-3.462-.756 3.971s-.114.631.453.916c.661.326 1.624.163 2.229-.285.472-.366.434-.61.472-.814 0-.102-.038-.306-.038-.306v-.02z" fill="#F9B233"/><path d="M26.468 516.063l.057-.082s-.057.103-.057.082z" fill="#E6332A"/><path d="M29.642 516.083v-.062s-.075-.101-.094-.142l-.831-1.955-.416-1.059-.566.978-1.096 1.893-.113.184-.057.081s-.076.204-.076.244c0 .265.151.509.473.713.642.387 1.662.387 2.304 0 .264-.163.416-.366.453-.57 0-.102 0-.204-.056-.305h.075z" fill="#E6332A"/><path d="M26.468 516.063l.057-.082s-.057.103-.057.082z" fill="#F9B233"/><path d="M29.642 516.083v-.062s-.075-.101-.094-.142l-.831-1.955-.416-1.059-.566.978-1.096 1.893-.113.184-.057.081s-.076.204-.076.244c0 .265.151.509.473.713.642.387 1.662.387 2.304 0 .264-.163.416-.366.453-.57 0-.102 0-.204-.056-.305h.075z" fill="#E6332A"/><path d="M16.927 516.287l.057-.082s-.057.103-.057.082z" fill="#00A19A"/><path d="M20.102 516.287v-.062s-.076-.101-.095-.142l-.831-1.955-.416-1.059-.566.978-1.096 1.893-.113.184-.057.081s-.075.204-.075.244c0 .265.15.509.472.733.642.387 1.662.387 2.304 0 .265-.162.416-.366.454-.57 0-.101 0-.203-.057-.305l.076-.02z" fill="#00A19A"/><path d="M16.927 516.287l.057-.082s-.057.103-.057.082z" fill="#F9B233"/><path d="M20.102 516.287v-.062s-.076-.101-.095-.142l-.831-1.955-.416-1.059-.566.978-1.096 1.893-.113.184-.057.081s-.075.204-.075.244c0 .265.15.509.472.733.642.387 1.662.387 2.304 0 .265-.162.416-.366.454-.57 0-.101 0-.203-.057-.305l.076-.02z" fill="#00A19A"/><path d="M374.241 582.98c0 .593-.362 1.187-1.085 1.628-1.447.898-3.806.898-5.253 0-.724-.458-1.085-1.052-1.085-1.628 0-.577.361-1.187 1.085-1.645 1.447-.898 3.806-.898 5.253 0 .723.458 1.085 1.051 1.085 1.645z" fill="#AB261F"/><path d="M374.241 582.98c0 .593-.362 1.187-1.085 1.627-1.447.899-3.806.899-5.253 0-.724-.457-1.085-1.051-1.085-1.627 0-2.221 1.667-4.001 3.711-4.001 2.045 0 3.712 1.797 3.712 4.001z" fill="#AB261F"/><path d="M359.425 548.293l-.308.128 11.218 31.588.309-.128-11.219-31.588z" fill="#706F6F"/><path d="M370.322 579.962l-3.145-29.162.33-.051 3.145 29.179-.33.034z" fill="#B2B2B2"/><path d="M374.908 550.184l-4.583 29.719.325.059 4.584-29.72-.326-.058z" fill="#C6C6C6"/><path d="M370.634 580.013l-.299-.135 11.796-32.892.298.136-11.795 32.891z" fill="#575756"/><path d="M364.301 542.607l-.325.065 6.345 37.305.325-.065-6.345-37.305z" fill="#706F6F"/><path d="M374.514 534.386l-4.195 45.553.329.035 4.195-45.553-.329-.035z" fill="#9D9D9C"/><path d="M370.336 580.013l-.456-53.915.315-.017.456 53.898-.315.034z" fill="#706F6F"/><path d="M375.611 528.607c-.267 3.849-2.972 6.782-6.039 6.528-3.051-.254-5.315-3.577-5.048-7.443.267-3.849 2.972-6.765 6.039-6.527 3.051.254 5.316 3.577 5.048 7.442z" fill="#F9B233"/><path d="M370.801 537.203l-2.737-.237 1.573-2.713 1.164 2.95z" fill="#E6332A"/><path d="M367.041 526.081c-.33.983-.912 1.662-1.321 1.509-.409-.153-.472-1.085-.157-2.068.33-.984.912-1.662 1.321-1.509.409.152.472 1.085.157 2.068z" fill="#fff"/><path d="M363.009 539.594c.724 3.78-1.116 7.392-4.12 8.07-3.004.678-6.023-1.848-6.763-5.629-.723-3.781 1.117-7.392 4.121-8.07 3.004-.678 6.023 1.848 6.762 5.629z" fill="#F9B233"/><path d="M354.375 538.593c-.204 1.034-.708 1.78-1.132 1.696-.425-.102-.598-1.018-.409-2.035.204-1.034.708-1.78 1.132-1.678.425.101.598 1 .409 2.034v-.017z" fill="#fff"/><path d="M369.154 534.66c0 3.866-2.485 7.003-5.551 7.003-3.067 0-5.552-3.137-5.552-7.003 0-3.865 2.485-7.002 5.552-7.002 3.066 0 5.551 3.137 5.551 7.002z" fill="#E6332A"/><path d="M364.97 543.628h-2.752l1.384-2.831 1.368 2.831z" fill="#E6332A"/><path d="M360.442 532.846c-.251 1.017-.802 1.746-1.211 1.628-.424-.119-.55-1.035-.299-2.052.252-1.017.802-1.746 1.211-1.627.425.118.551 1.034.299 2.051z" fill="#fff"/><path d="M380.246 534.745c0 3.865-2.485 7.002-5.552 7.002-3.066 0-5.551-3.137-5.551-7.002 0-3.866 2.485-7.002 5.551-7.002 3.067 0 5.552 3.136 5.552 7.002z" fill="#63D4CF"/><path d="M376.063 543.713h-2.736l1.368-2.848 1.368 2.848z" fill="#E6332A"/><path d="M371.534 532.931c-.251 1.017-.802 1.746-1.211 1.628-.424-.119-.55-1.035-.299-2.052.252-1.017.802-1.746 1.211-1.628.409.119.551 1.035.299 2.052z" fill="#fff"/><path d="M372.335 542.103c.299 3.848-1.95 7.188-5.001 7.46-3.051.271-5.772-2.628-6.071-6.477-.298-3.849 1.951-7.189 5.002-7.46 3.051-.271 5.771 2.628 6.07 6.477z" fill="#00A19A"/><path d="M363.515 541.069c-.173 1.035-.661 1.798-1.085 1.73-.425-.085-.629-.984-.456-2.018.173-1.034.66-1.797 1.085-1.729.424.085.629.983.456 2.017z" fill="#fff"/><path d="M381.396 543.188c-.33 3.848-3.082 6.714-6.133 6.408-3.051-.305-5.253-3.679-4.923-7.527.331-3.849 3.083-6.714 6.134-6.409 3.051.305 5.253 3.679 4.922 7.528z" fill="#E6332A"/><path d="M372.868 540.509c-.346.984-.944 1.662-1.352 1.492-.409-.169-.457-1.085-.126-2.085.346-.983.943-1.662 1.352-1.492.409.169.456 1.085.126 2.085z" fill="#fff"/><path d="M388.315 540.001c-.267 3.848-2.972 6.764-6.039 6.527-3.067-.254-5.316-3.577-5.048-7.443.267-3.848 2.972-6.765 6.039-6.527 3.051.254 5.315 3.577 5.048 7.443z" fill="#F9B233"/><path d="M379.742 537.474c-.331.984-.913 1.662-1.321 1.509-.409-.152-.472-1.085-.158-2.068.331-.984.912-1.662 1.321-1.509.409.152.472 1.085.158 2.068z" fill="#fff"/><path d="M380.799 548.343l.048-.069s-.048.086-.048.069z" fill="#F9B233"/><path d="M383.443 548.342v-.051s-.063-.085-.079-.118l-.692-1.628-.346-.882-.471.814-.912 1.577-.095.152-.047.068s-.063.17-.063.204c0 .22.126.424.393.593.535.322 1.384.322 1.919 0 .22-.135.346-.305.377-.475 0-.084 0-.169-.047-.254h.063zm-25.342.781l.047-.068s-.047.085-.047.068z" fill="#F9B233"/><path d="M360.729 548.631l-1.966-2.883-.629 3.307s-.095.525.377.762c.551.272 1.353.136 1.856-.237.393-.305.362-.509.393-.678 0-.085-.031-.254-.031-.254v-.017z" fill="#F9B233"/><path d="M373.927 550.666l.048-.068s-.048.085-.048.068z" fill="#E6332A"/><path d="M376.571 550.666v-.051s-.063-.085-.078-.119l-.692-1.627-.346-.882-.472.814-.912 1.577-.095.152-.047.068s-.063.169-.063.203c0 .221.126.424.393.594.535.322 1.384.322 1.919 0 .22-.136.346-.288.377-.475 0-.085 0-.169-.047-.254h.063z" fill="#E6332A"/><path d="M373.927 550.666l.048-.068s-.048.085-.048.068z" fill="#F9B233"/><path d="M376.571 550.666v-.051s-.063-.085-.078-.119l-.692-1.627-.346-.882-.472.814-.912 1.577-.095.152-.047.068s-.063.169-.063.203c0 .221.126.424.393.594.535.322 1.384.322 1.919 0 .22-.136.346-.288.377-.475 0-.085 0-.169-.047-.254h.063z" fill="#E6332A"/><path d="M365.981 550.835l.047-.068s-.047.085-.047.068z" fill="#00A19A"/><path d="M368.623 550.851v-.051s-.063-.084-.079-.118l-.692-1.628-.346-.881-.471.813-.913 1.577-.094.153-.031.068s-.063.169-.063.203c0 .22.125.424.393.593.535.322 1.384.322 1.918 0 .221-.135.346-.305.378-.474 0-.085 0-.17-.047-.255h.047z" fill="#00A19A"/><path d="M365.981 550.835l.047-.068s-.047.085-.047.068z" fill="#F9B233"/><path d="M368.623 550.851v-.051s-.063-.084-.079-.118l-.692-1.628-.346-.881-.471.813-.913 1.577-.094.153-.031.068s-.063.169-.063.203c0 .22.125.424.393.593.535.322 1.384.322 1.918 0 .221-.135.346-.305.378-.474 0-.085 0-.17-.047-.255h.047z" fill="#00A19A"/><path d="M549.555 482.145c0 .712-.434 1.425-1.303 1.955-1.738 1.079-4.571 1.079-6.309 0-.868-.55-1.303-1.263-1.303-1.955 0-.693.435-1.426 1.303-1.975 1.738-1.08 4.571-1.08 6.309 0 .869.549 1.303 1.262 1.303 1.975z" fill="#AB261F"/><path d="M549.556 482.144c0 .713-.435 1.426-1.304 1.955-1.737 1.079-4.571 1.079-6.308 0-.869-.55-1.304-1.262-1.304-1.955 0-2.667 2.002-4.805 4.458-4.805 2.455 0 4.458 2.158 4.458 4.805z" fill="#AB261F"/><path d="M531.762 440.485l-.37.153 13.473 37.938.371-.153-13.474-37.938z" fill="#706F6F"/><path d="M544.848 478.52l-3.778-35.023.397-.062 3.777 35.044-.396.041z" fill="#B2B2B2"/><path d="M550.356 442.756l-5.506 35.694.392.07 5.505-35.694-.391-.07z" fill="#C6C6C6"/><path d="M545.224 478.581l-.359-.162 14.167-39.504.359.163-14.167 39.503z" fill="#575756"/><path d="M537.618 433.657l-.39.077 7.62 44.804.39-.077-7.62-44.804z" fill="#706F6F"/><path d="M549.881 423.783l-5.038 54.71.394.042 5.039-54.71-.395-.042z" fill="#9D9D9C"/><path d="M544.864 478.581l-.548-64.753.378-.02.548 64.733-.378.04z" fill="#706F6F"/><path d="M551.199 416.843c-.321 4.622-3.57 8.145-7.254 7.839-3.664-.305-6.384-4.296-6.063-8.939.321-4.622 3.57-8.125 7.253-7.84 3.665.306 6.385 4.297 6.064 8.94z" fill="#F9B233"/><path d="M545.419 427.167l-3.286-.285 1.888-3.258 1.398 3.543z" fill="#E6332A"/><path d="M540.904 413.808c-.396 1.181-1.095 1.996-1.586 1.813-.491-.184-.567-1.304-.189-2.485.396-1.181 1.095-1.995 1.586-1.812.492.183.567 1.303.189 2.484z" fill="#fff"/><path d="M536.065 430.037c.869 4.541-1.341 8.878-4.949 9.692-3.607.815-7.234-2.219-8.122-6.76-.868-4.541 1.342-8.878 4.949-9.693 3.608-.814 7.234 2.22 8.122 6.761z" fill="#F9B233"/><path d="M543.444 424.112c0 4.643-2.984 8.41-6.667 8.41s-6.668-3.767-6.668-8.41c0-4.643 2.985-8.41 6.668-8.41 3.683 0 6.667 3.767 6.667 8.41z" fill="#E6332A"/><path d="M538.421 434.883h-3.306l1.662-3.401 1.644 3.401z" fill="#E6332A"/><path d="M532.98 421.933c-.302 1.221-.963 2.097-1.454 1.954-.51-.142-.661-1.242-.359-2.464.302-1.221.963-2.097 1.454-1.954.51.142.661 1.242.359 2.464z" fill="#fff"/><path d="M556.768 424.213c0 4.643-2.984 8.41-6.667 8.41s-6.668-3.767-6.668-8.41c0-4.643 2.985-8.41 6.668-8.41 3.683 0 6.667 3.767 6.667 8.41z" fill="#63D4CF"/><path d="M551.745 434.985h-3.286l1.643-3.421 1.643 3.421z" fill="#E6332A"/><path d="M546.304 422.034c-.302 1.222-.963 2.098-1.454 1.955-.51-.142-.661-1.242-.359-2.464.302-1.221.963-2.097 1.454-1.954.491.142.661 1.242.359 2.463z" fill="#fff"/><path d="M547.265 433.051c.359 4.622-2.342 8.633-6.006 8.959-3.665.326-6.933-3.156-7.291-7.778-.359-4.623 2.342-8.634 6.006-8.96 3.664-.326 6.932 3.156 7.291 7.779z" fill="#00A19A"/><path d="M558.149 434.353c-.397 4.623-3.702 8.064-7.367 7.697-3.664-.366-6.308-4.418-5.912-9.041.397-4.622 3.702-8.063 7.367-7.697 3.664.367 6.309 4.419 5.912 9.041z" fill="#E6332A"/><path d="M566.457 430.526c-.322 4.622-3.57 8.124-7.254 7.839-3.683-.305-6.384-4.296-6.063-8.939.321-4.622 3.57-8.124 7.253-7.839 3.665.305 6.385 4.296 6.064 8.939zm-9.028 10.019l.057-.082s-.057.102-.057.082z" fill="#F9B233"/><path d="M560.605 440.544v-.061s-.076-.102-.095-.143l-.831-1.954-.415-1.059-.567.977-1.096 1.894-.113.183-.057.082s-.075.203-.075.244c0 .265.151.509.472.713.642.387 1.662.387 2.304 0 .265-.163.416-.367.454-.57 0-.102 0-.204-.057-.306h.076zm-30.436.937l.057-.082s-.057.103-.057.082z" fill="#F9B233"/><path d="M533.325 440.89l-2.361-3.462-.755 3.971s-.114.631.453.916c.661.326 1.624.163 2.229-.285.472-.367.434-.611.472-.815 0-.101-.038-.305-.038-.305v-.02z" fill="#F9B233"/><path d="M549.175 443.334l.057-.082s-.057.103-.057.082z" fill="#E6332A"/><path d="M552.35 443.333v-.061s-.075-.102-.094-.142l-.831-1.955-.416-1.059-.566.978-1.096 1.893-.113.183-.057.082s-.075.204-.075.244c0 .265.151.509.472.713.642.387 1.662.387 2.304 0 .265-.163.416-.346.453-.57 0-.102 0-.204-.056-.306h.075z" fill="#E6332A"/><path d="M549.175 443.334l.057-.082s-.057.103-.057.082z" fill="#F9B233"/><path d="M552.35 443.333v-.061s-.075-.102-.094-.142l-.831-1.955-.416-1.059-.566.978-1.096 1.893-.113.183-.057.082s-.075.204-.075.244c0 .265.151.509.472.713.642.387 1.662.387 2.304 0 .265-.163.416-.346.453-.57 0-.102 0-.204-.056-.306h.075z" fill="#E6332A"/><path d="M539.634 443.539l.057-.082s-.057.103-.057.082z" fill="#00A19A"/><path d="M542.807 443.558v-.061s-.076-.102-.095-.143l-.831-1.955-.416-1.059-.566.978-1.096 1.893-.113.184-.038.081s-.075.204-.075.245c0 .264.151.509.472.712.642.387 1.662.387 2.304 0 .265-.163.416-.366.454-.57 0-.102 0-.204-.057-.305h.057z" fill="#00A19A"/><path d="M539.634 443.539l.057-.082s-.057.103-.057.082z" fill="#F9B233"/><path d="M542.807 443.558v-.061s-.076-.102-.095-.143l-.831-1.955-.416-1.059-.566.978-1.096 1.893-.113.184-.038.081s-.075.204-.075.245c0 .264.151.509.472.712.642.387 1.662.387 2.304 0 .265-.163.416-.366.454-.57 0-.102 0-.204-.057-.305h.057z" fill="#00A19A"/><path d="M503.811 777.362c0 .713-.434 1.425-1.303 1.955-1.738 1.079-4.571 1.079-6.309 0-.868-.55-1.303-1.263-1.303-1.955 0-.692.435-1.425 1.303-1.975 1.738-1.08 4.571-1.08 6.309 0 .869.55 1.303 1.262 1.303 1.975z" fill="#AB261F"/><path d="M503.811 777.362c0 .712-.434 1.425-1.303 1.954-1.738 1.08-4.571 1.08-6.309 0-.869-.549-1.303-1.262-1.303-1.954 0-2.668 2.002-4.806 4.458-4.806 2.455 0 4.457 2.158 4.457 4.806z" fill="#AB261F"/><path d="M499.109 773.775l-13.486-37.936.377-.162 13.468 37.935-.359.163z" fill="#706F6F"/><path d="M499.09 773.714l-3.777-35.024.396-.04 3.778 35.023-.397.041z" fill="#B2B2B2"/><path d="M504.635 738.03l-5.5 35.696.391.07 5.5-35.696-.391-.07z" fill="#C6C6C6"/><path d="M499.469 773.774l-.359-.163 14.166-39.483.359.143-14.166 39.503z" fill="#575756"/><path d="M499.092 773.734l-7.612-44.798.378-.081 7.63 44.798-.396.081z" fill="#706F6F"/><path d="M504.156 719.031l-5.03 54.71.395.043 5.029-54.711-.394-.042z" fill="#9D9D9C"/><path d="M499.107 773.775l-.548-64.753h.397l.528 64.712-.377.041z" fill="#706F6F"/><path d="M505.436 712.035c-.321 4.623-3.57 8.145-7.253 7.84-3.665-.305-6.385-4.297-6.064-8.919.321-4.622 3.57-8.145 7.254-7.839 3.683.305 6.384 4.296 6.063 8.918z" fill="#F9B233"/><path d="M499.654 722.359l-3.286-.285 1.889-3.258 1.397 3.543z" fill="#E6332A"/><path d="M495.142 709.001c-.377 1.181-1.095 1.996-1.586 1.813-.491-.184-.567-1.303-.189-2.485.397-1.181 1.095-2.015 1.586-1.812.492.183.567 1.303.189 2.484z" fill="#fff"/><path d="M490.307 725.231c.869 4.54-1.341 8.878-4.949 9.692-3.607.815-7.234-2.219-8.122-6.76-.868-4.541 1.341-8.878 4.949-9.693 3.608-.814 7.234 2.22 8.122 6.761z" fill="#F9B233"/><path d="M479.937 724.029c-.245 1.243-.85 2.139-1.36 2.016-.51-.122-.718-1.201-.491-2.443.246-1.242.85-2.138 1.36-2.036.51.122.718 1.221.491 2.443v.02z" fill="#fff"/><path d="M497.689 719.326c0 4.642-2.984 8.409-6.667 8.409s-6.668-3.767-6.668-8.409c0-4.643 2.985-8.41 6.668-8.41 3.683 0 6.667 3.767 6.667 8.41z" fill="#E6332A"/><path d="M492.666 730.077h-3.305l1.662-3.401 1.643 3.401z" fill="#E6332A"/><path d="M487.228 717.147c-.302 1.222-.963 2.097-1.454 1.955-.51-.143-.661-1.263-.359-2.464.302-1.222.963-2.098 1.454-1.935.51.143.661 1.263.359 2.464v-.02z" fill="#fff"/><path d="M511.007 719.406c0 4.643-2.985 8.41-6.668 8.41-3.683 0-6.668-3.767-6.668-8.41 0-4.643 2.985-8.41 6.668-8.41 3.683 0 6.668 3.767 6.668 8.41z" fill="#63D4CF"/><path d="M505.984 730.178h-3.287l1.644-3.4 1.643 3.4z" fill="#E6332A"/><path d="M500.546 717.227c-.303 1.222-.964 2.098-1.455 1.955-.51-.142-.661-1.242-.359-2.464.302-1.221.964-2.097 1.455-1.934.51.142.661 1.242.359 2.464v-.021z" fill="#fff"/><path d="M501.524 728.244c.359 4.623-2.342 8.634-6.006 8.96-3.665.326-6.933-3.156-7.291-7.779-.359-4.622 2.342-8.633 6.006-8.959 3.664-.326 6.932 3.156 7.291 7.778z" fill="#00A19A"/><path d="M490.913 727.002c-.208 1.242-.794 2.158-1.304 2.077-.51-.102-.755-1.181-.547-2.423.207-1.243.793-2.159 1.303-2.077.51.101.756 1.181.548 2.423z" fill="#fff"/><path d="M512.389 729.568c-.396 4.622-3.702 8.063-7.366 7.697-3.665-.367-6.309-4.419-5.912-9.041.396-4.623 3.702-8.064 7.366-7.697 3.664.366 6.309 4.418 5.912 9.041z" fill="#E6332A"/><path d="M502.147 726.35c-.397 1.181-1.133 1.975-1.624 1.792-.492-.204-.548-1.303-.151-2.505.396-1.181 1.133-1.975 1.624-1.791.491.203.548 1.303.151 2.504z" fill="#fff"/><path d="M520.698 725.719c-.321 4.622-3.569 8.125-7.253 7.839-3.683-.305-6.384-4.296-6.063-8.939.321-4.622 3.57-8.124 7.253-7.839 3.683.305 6.385 4.296 6.063 8.939z" fill="#F9B233"/><path d="M510.402 722.685c-.396 1.181-1.095 2.016-1.586 1.812-.491-.183-.567-1.303-.189-2.484.397-1.181 1.095-1.995 1.587-1.812.491.183.566 1.303.188 2.484z" fill="#fff"/><path d="M511.674 735.739l.057-.082s-.057.102-.057.082z" fill="#F9B233"/><path d="M514.849 735.738v-.061s-.076-.102-.095-.143l-.831-1.955-.415-1.059-.567.957-1.095 1.894-.114.184-.056.081s-.076.204-.076.244c0 .265.151.509.472.713.642.387 1.662.387 2.305 0 .264-.163.415-.346.453-.57 0-.102 0-.204-.057-.306l.076.021zm-30.435.956l.057-.082s-.057.103-.057.082z" fill="#F9B233"/><path d="M487.569 736.103l-2.361-3.461-.756 3.97s-.113.632.453.917c.662.326 1.625.163 2.229-.285.472-.367.435-.611.472-.815 0-.102-.037-.305-.037-.305v-.021z" fill="#F9B233"/><path d="M503.418 738.529l.057-.083s-.057.103-.057.083z" fill="#E6332A"/><path d="M506.592 738.548v-.061s-.075-.102-.094-.143l-.831-1.955-.416-1.059-.566.978-1.096 1.894-.113.183-.057.081s-.075.204-.075.245c0 .264.151.509.472.712.642.387 1.662.387 2.304 0 .265-.163.416-.366.454-.57 0-.102 0-.203-.057-.305h.075z" fill="#E6332A"/><path d="M503.418 738.529l.057-.083s-.057.103-.057.083z" fill="#F9B233"/><path d="M506.592 738.548v-.061s-.075-.102-.094-.143l-.831-1.955-.416-1.059-.566.978-1.096 1.894-.113.183-.057.081s-.075.204-.075.245c0 .264.151.509.472.712.642.387 1.662.387 2.304 0 .265-.163.416-.366.454-.57 0-.102 0-.203-.057-.305h.075z" fill="#E6332A"/><path d="M493.878 738.751l.057-.082s-.057.103-.057.082z" fill="#00A19A"/><path d="M497.052 738.751v-.061s-.076-.102-.094-.142l-.832-1.955-.415-1.059-.567.977-1.095 1.894-.114.183-.056.082s-.076.203-.076.244c0 .265.151.509.472.733.643.387 1.663.387 2.305 0 .264-.163.415-.366.453-.57 0-.102 0-.204-.057-.305l.076-.021z" fill="#00A19A"/><path d="M493.878 738.751l.057-.082s-.057.103-.057.082z" fill="#F9B233"/><path d="M497.052 738.751v-.061s-.076-.102-.094-.142l-.832-1.955-.415-1.059-.567.977-1.095 1.894-.114.183-.056.082s-.076.203-.076.244c0 .265.151.509.472.733.643.387 1.663.387 2.305 0 .264-.163.415-.366.453-.57 0-.102 0-.204-.057-.305l.076-.021z" fill="#00A19A"/><animateTransform attributeName="transform" attributeType="XML" type="translate" values="0, 0; 0, 15; 0, 0" dur="6s" repeatCount="indefinite"/>/&gt;</svg>