<svg width="1019" height="298" fill="none" xmlns="http://www.w3.org/2000/svg"><mask id="a" maskUnits="userSpaceOnUse" x="78.759" y="73.511" width="888" height="163" fill="#000"><path fill="#fff" d="M78.759 73.511h888v163h-888z"/><path fill-rule="evenodd" clip-rule="evenodd" d="M186.086 140.119c-.039-2.916-.292-5.607-.759-8.073l22.802 72.689 78.029-28.447-24.711-78.777-77.91 28.404c-.765-1.843-1.701-3.506-2.809-4.987-6.197-8.092-20.322-12.138-42.374-12.138h-35.595v83.6h37.344v-33.189c.182 0 .274-.036.274-.109 5.467 4.265 11.864 6.397 19.191 6.397 1.385 0 3.044-.127 4.975-.382 14.508-2.005 21.689-10.334 21.543-24.988zm38.992 6.056l4.779 15.234 14.589-5.319-4.779-15.233-14.589 5.318zm-73.383-9.828c0-2.88-1.258-5.103-3.773-6.671-2.187-1.385-4.793-2.077-7.819-2.077v17.059c7.728 0 11.592-2.771 11.592-8.311zm216.092 39.859c-3.134 6.78-9.75 11.427-19.847 13.942-5.905 1.495-14.325 2.242-25.26 2.242h-35.595v-83.491h69.166v20.559h-31.822v12.411h.656c5.504-4.119 11.847-6.178 19.028-6.178 8.092 0 14.58 2.278 19.464 6.834 4.921 4.52 7.382 10.79 7.382 18.809 0 1.43-.075 2.829-.223 4.197 1.508.665 2.935.997 4.28.997 2.771 0 4.557-1.768 5.359-5.303V108.79h86.443v83.6h-36.797v-62.932h-12.794v42.975c0 6.415-2.333 11.573-6.999 15.474-4.228 3.645-9.66 5.467-16.294 5.467-9.404 0-18.025-3.59-25.861-10.771v-7.024c-.093.21-.188.419-.286.627zm-31.602-11.373c0-4.811-2.825-7.6-8.475-8.365h-3.281v16.899c.268-.039 1.27-.059 3.007-.059 5.833-.729 8.749-3.554 8.749-8.475zm304.988-35.375h-29.799v62.932H574.03v-83.6h67.143v20.668zm69.342 35.649c14.508-2.005 21.688-10.334 21.543-24.988-.11-8.165-1.896-14.562-5.359-19.191-6.196-8.092-20.321-12.138-42.374-12.138h-35.594v83.6h37.344v-33.189c.182 0 .273-.036.273-.109 5.468 4.265 11.865 6.397 19.192 6.397 1.385 0 3.043-.127 4.975-.382zm-16.621-35.431c2.515 1.568 3.772 3.791 3.772 6.671 0 5.54-3.864 8.311-11.591 8.311v-17.059c3.025 0 5.631.692 7.819 2.077zm139.909 62.714h-38.93l-4.21-12.958h-25.424l-4.21 12.958h-38.93l29.525-83.6h52.654l29.525 83.6zm-49.646-33.517l-6.179-19.464-6.233 19.464h12.412zm120.194 52.818h38.383v-40.297h-6.835v-62.495h-85.787v52.435c-.693 5.322-3.025 8.748-6.999 10.279h-7.873v40.078h38.383V192.39h30.728v19.301zm-5.14-82.233v42.155h-20.995c4.775-2.078 7.618-5.777 8.529-11.099v-31.056h12.466zM544.866 97.511l-78.029 28.448 24.712 78.776 78.029-28.447-24.712-78.777zm-31.589 63.898l-4.779-15.234 14.589-5.318 4.778 15.233-14.588 5.319z"/></mask><path fill-rule="evenodd" clip-rule="evenodd" d="M186.086 140.119c-.039-2.916-.292-5.607-.759-8.073l22.802 72.689 78.029-28.447-24.711-78.777-77.91 28.404c-.765-1.843-1.701-3.506-2.809-4.987-6.197-8.092-20.322-12.138-42.374-12.138h-35.595v83.6h37.344v-33.189c.182 0 .274-.036.274-.109 5.467 4.265 11.864 6.397 19.191 6.397 1.385 0 3.044-.127 4.975-.382 14.508-2.005 21.689-10.334 21.543-24.988zm38.992 6.056l4.779 15.234 14.589-5.319-4.779-15.233-14.589 5.318zm-73.383-9.828c0-2.88-1.258-5.103-3.773-6.671-2.187-1.385-4.793-2.077-7.819-2.077v17.059c7.728 0 11.592-2.771 11.592-8.311zm216.092 39.859c-3.134 6.78-9.75 11.427-19.847 13.942-5.905 1.495-14.325 2.242-25.26 2.242h-35.595v-83.491h69.166v20.559h-31.822v12.411h.656c5.504-4.119 11.847-6.178 19.028-6.178 8.092 0 14.58 2.278 19.464 6.834 4.921 4.52 7.382 10.79 7.382 18.809 0 1.43-.075 2.829-.223 4.197 1.508.665 2.935.997 4.28.997 2.771 0 4.557-1.768 5.359-5.303V108.79h86.443v83.6h-36.797v-62.932h-12.794v42.975c0 6.415-2.333 11.573-6.999 15.474-4.228 3.645-9.66 5.467-16.294 5.467-9.404 0-18.025-3.59-25.861-10.771v-7.024c-.093.21-.188.419-.286.627zm-31.602-11.373c0-4.811-2.825-7.6-8.475-8.365h-3.281v16.899c.268-.039 1.27-.059 3.007-.059 5.833-.729 8.749-3.554 8.749-8.475zm304.988-35.375h-29.799v62.932H574.03v-83.6h67.143v20.668zm69.342 35.649c14.508-2.005 21.688-10.334 21.543-24.988-.11-8.165-1.896-14.562-5.359-19.191-6.196-8.092-20.321-12.138-42.374-12.138h-35.594v83.6h37.344v-33.189c.182 0 .273-.036.273-.109 5.468 4.265 11.865 6.397 19.192 6.397 1.385 0 3.043-.127 4.975-.382zm-16.621-35.431c2.515 1.568 3.772 3.791 3.772 6.671 0 5.54-3.864 8.311-11.591 8.311v-17.059c3.025 0 5.631.692 7.819 2.077zm139.909 62.714h-38.93l-4.21-12.958h-25.424l-4.21 12.958h-38.93l29.525-83.6h52.654l29.525 83.6zm-49.646-33.517l-6.179-19.464-6.233 19.464h12.412zm120.194 52.818h38.383v-40.297h-6.835v-62.495h-85.787v52.435c-.693 5.322-3.025 8.748-6.999 10.279h-7.873v40.078h38.383V192.39h30.728v19.301zm-5.14-82.233v42.155h-20.995c4.775-2.078 7.618-5.777 8.529-11.099v-31.056h12.466zM544.866 97.511l-78.029 28.448 24.712 78.776 78.029-28.447-24.712-78.777zm-31.589 63.898l-4.779-15.234 14.589-5.318 4.778 15.233-14.588 5.319z" fill="#fff"/><path d="M185.327 132.046l22.805-7.154c-3.789-12.078-16.337-19.107-28.616-16.03-12.279 3.078-20.028 15.195-17.673 27.632l23.484-4.448zm.759 8.073l23.9-.237-.001-.083-23.899.32zm22.043 64.616l-22.805 7.154a23.901 23.901 0 0030.992 15.301l-8.187-22.455zm78.029-28.447l8.187 22.455c12.003-4.376 18.443-17.419 14.619-29.609l-22.806 7.154zm-24.711-78.777l22.805-7.153a23.902 23.902 0 00-30.992-15.302l8.187 22.456zm-77.91 28.404l-22.077 9.158c4.903 11.819 18.243 17.68 30.263 13.298l-8.186-22.456zm-2.809-4.987l19.138-14.316-.162-.215-18.976 14.531zm-77.969-12.138V84.889c-13.2 0-23.9 10.7-23.9 23.901h23.9zm0 83.6h-23.9c0 13.2 10.7 23.901 23.9 23.901V192.39zm37.344 0v23.901c13.2 0 23.901-10.701 23.901-23.901h-23.901zm0-33.189v-23.9c-13.2 0-23.901 10.7-23.901 23.9h23.901zm.274-.109l14.699-18.846a23.902 23.902 0 00-38.6 18.846h23.901zm24.166 6.015l3.13 23.695.142-.02-3.272-23.675zm65.314-3.698l-22.805 7.154a23.904 23.904 0 0030.992 15.301l-8.187-22.455zm-4.779-15.234l-8.186-22.455c-12.004 4.376-18.443 17.419-14.619 29.609l22.805-7.154zm19.368 9.915l8.186 22.455c12.004-4.376 18.443-17.418 14.619-29.609l-22.805 7.154zm-4.779-15.233l22.805-7.154a23.9 23.9 0 00-30.991-15.302l8.186 22.456zm-91.745-11.181l-12.788 20.192.147.093 12.641-20.285zm-7.819-2.077v-23.901c-13.2 0-23.901 10.7-23.901 23.901h23.901zm0 17.059h-23.901c0 13.2 10.701 23.901 23.901 23.901v-23.901zm207.837 45.49l-5.777-23.192-.087.022 5.864 23.17zm19.847-13.942l-21.65-10.126-.044.095 21.694 10.031zm-80.702 16.184h-23.901c0 13.2 10.701 23.901 23.901 23.901V192.39zm0-83.491v-23.9c-13.2 0-23.901 10.7-23.901 23.9h23.901zm69.166 0h23.901c0-13.2-10.701-23.9-23.901-23.9v23.9zm0 20.559v23.901c13.2 0 23.901-10.701 23.901-23.901h-23.901zm-31.822 0v-23.901c-13.2 0-23.901 10.7-23.901 23.901h23.901zm0 12.411h-23.901c0 13.2 10.701 23.901 23.901 23.901v-23.901zm.656 0v23.901a23.906 23.906 0 0014.321-4.765l-14.321-19.136zm38.492.656l-16.303 17.477.135.126 16.168-17.603zm7.159 23.006l-23.761-2.579a23.9 23.9 0 0014.123 24.451l9.638-21.872zm9.639-4.306l23.309 5.286c.393-1.734.592-3.508.592-5.286h-23.901zm0-52.435V84.889c-13.2 0-23.901 10.7-23.901 23.901h23.901zm86.443 0h23.901c0-13.2-10.701-23.901-23.901-23.901v23.901zm0 83.6v23.901c13.2 0 23.901-10.701 23.901-23.901h-23.901zm-36.797 0H406.12c0 13.2 10.701 23.901 23.901 23.901V192.39zm0-62.932h23.901c0-13.201-10.701-23.901-23.901-23.901v23.901zm-12.794 0v-23.901c-13.201 0-23.901 10.7-23.901 23.901h23.901zm-6.999 58.449l-15.329-18.338c-.093.077-.185.156-.277.235l15.606 18.103zm-42.155-5.304h-23.901a23.9 23.9 0 007.754 17.622l16.147-17.622zm0-7.024h23.901c0-11.296-7.909-21.049-18.96-23.385-11.052-2.335-22.23 3.386-26.8 13.717l21.859 9.668zm-40.363-19.111l3.209-23.685a23.926 23.926 0 00-3.209-.216v23.901zm-3.281 0v-23.901c-13.2 0-23.901 10.701-23.901 23.901h23.901zm0 16.899h-23.901a23.9 23.9 0 0027.37 23.648l-3.469-23.648zm3.007-.059v23.901c.991 0 1.982-.062 2.965-.185l-2.965-23.716zm283.938-43.85v-23.901c-13.2 0-23.901 10.7-23.901 23.901h23.901zm29.799 0v23.901c13.2 0 23.901-10.701 23.901-23.901h-23.901zm-29.799 62.932v23.901c13.2 0 23.901-10.701 23.901-23.901h-23.901zm-37.344 0h-23.901c0 13.2 10.701 23.901 23.901 23.901V192.39zm0-83.6V84.889c-13.2 0-23.901 10.7-23.901 23.901h23.901zm67.143 0h23.901c0-13.2-10.701-23.901-23.901-23.901v23.901zm90.885 31.329l23.899-.237-.001-.082-23.898.319zm-21.543 24.988l3.13 23.695.142-.02-3.272-23.675zm16.184-44.179l19.139-14.316-.162-.215-18.977 14.531zm-77.968-12.138V84.889c-13.2 0-23.901 10.7-23.901 23.901h23.901zm0 83.6H624.83c0 13.2 10.701 23.901 23.901 23.901V192.39zm37.344 0v23.901c13.2 0 23.901-10.701 23.901-23.901h-23.901zm0-33.189v-23.9c-13.2 0-23.901 10.7-23.901 23.9h23.901zm.273-.109l14.7-18.846a23.902 23.902 0 00-38.601 18.846h23.901zm7.546-29.416l-12.789 20.192.148.093 12.641-20.285zm-7.819 14.982h-23.901c0 13.2 10.701 23.901 23.901 23.901v-23.901zm0-17.059v-23.901c-13.2 0-23.901 10.7-23.901 23.901h23.901zm108.798 64.791l-22.731 7.385a23.902 23.902 0 0022.731 16.516V192.39zm38.93 0v23.901a23.902 23.902 0 0022.537-31.86l-22.537 7.959zm-43.14-12.958l22.732-7.386a23.901 23.901 0 00-22.732-16.515v23.901zm-25.424 0v-23.901a23.9 23.9 0 00-22.731 16.515l22.731 7.386zm-4.21 12.958v23.901a23.9 23.9 0 0022.731-16.516l-22.731-7.385zm-38.93 0l-22.536-7.959a23.9 23.9 0 0022.536 31.86V192.39zm29.525-83.6V84.889a23.9 23.9 0 00-22.536 15.942l22.536 7.959zm52.654 0l22.536-7.959a23.9 23.9 0 00-22.536-15.942v23.901zm-26.3 30.619l22.781-7.231a23.9 23.9 0 00-45.543-.058l22.762 7.289zm6.179 19.464v23.901a23.9 23.9 0 0022.781-31.132l-22.781 7.231zm-12.412 0l-22.762-7.289a23.899 23.899 0 0022.762 31.19v-23.901zm170.989 52.818v23.901c13.2 0 23.9-10.701 23.9-23.901h-23.9zm-38.383 0H880.45c0 13.2 10.701 23.901 23.901 23.901v-23.901zm38.383-40.297h23.9c0-13.2-10.7-23.901-23.9-23.901v23.901zm-6.835 0h-23.901c0 13.2 10.701 23.901 23.901 23.901v-23.901zm0-62.495H959.8c0-13.2-10.701-23.9-23.901-23.9v23.9zm-85.787 0v-23.9c-13.2 0-23.901 10.7-23.901 23.9h23.901zm0 52.435l23.701 3.084c.133-1.022.2-2.053.2-3.084h-23.901zm-6.999 10.279v23.901c2.939 0 5.852-.542 8.594-1.598l-8.594-22.303zm-7.873 0v-23.901c-13.2 0-23.901 10.701-23.901 23.901h23.901zm0 40.078h-23.901c0 13.2 10.701 23.901 23.901 23.901v-23.901zm38.383 0v23.901c13.2 0 23.901-10.701 23.901-23.901h-23.901zm0-19.301v-23.901c-13.2 0-23.901 10.701-23.901 23.901h23.901zm30.728 0h23.901c0-13.2-10.701-23.901-23.901-23.901v23.901zm-5.14-20.777v23.901c13.2 0 23.901-10.701 23.901-23.901h-23.901zm0-42.155h23.901c0-13.201-10.701-23.901-23.901-23.901v23.901zm-20.995 42.155l-9.537-21.916c-10.382 4.518-16.17 15.701-13.863 26.786 2.307 11.086 12.077 19.031 23.4 19.031v-23.901zm8.529-11.099l23.558 4.034c.228-1.333.343-2.682.343-4.034h-23.901zm0-31.056v-23.901c-13.2 0-23.901 10.7-23.901 23.901h23.901zm-419.908-3.499l-8.187-22.455c-12.003 4.376-18.443 17.418-14.618 29.609l22.805-7.154zm78.029-28.448l22.805-7.153a23.9 23.9 0 00-30.992-15.302l8.187 22.456zm-53.317 107.224l-22.806 7.154a23.9 23.9 0 0030.992 15.301l-8.186-22.455zm78.029-28.447l8.187 22.455c12.003-4.376 18.442-17.419 14.618-29.609l-22.805 7.154zm-61.08-30.113l-8.187-22.455c-12.003 4.376-18.442 17.419-14.618 29.609l22.805-7.154zm4.779 15.234l-22.806 7.154a23.903 23.903 0 0030.992 15.301l-8.186-22.455zm9.81-20.552l22.805-7.154a23.903 23.903 0 00-30.992-15.302l8.187 22.456zm4.778 15.233l8.187 22.455c12.003-4.376 18.443-17.418 14.619-29.609l-22.806 7.154zm-366.022-19.596c.172.906.321 2.197.344 3.946l47.798-.641c-.055-4.084-.412-8.176-1.175-12.201l-46.967 8.896zm69.091 61.087l-22.802-72.689-45.61 14.308 22.802 72.689 45.61-14.308zm47.038-43.749l-78.029 28.448 16.373 44.91 78.029-28.447-16.373-44.911zm-39.331-49.167l24.712 78.776 45.611-14.307-24.712-78.776-45.611 14.307zm-46.918 43.706l77.91-28.404-16.373-44.91-77.91 28.403 16.373 44.911zm-30.134-13.126a2.14 2.14 0 01-.152-.229c-.022-.037-.01-.023.023.057l44.154-18.316c-1.467-3.535-3.36-6.954-5.748-10.145l-38.277 28.633zm-23.235-2.554c9.795 0 16.411.925 20.551 2.11 4.23 1.212 3.974 2.131 2.846.658l37.953-29.062c-7.324-9.565-17.741-14.715-27.636-17.55-9.985-2.86-21.457-3.958-33.714-3.958v47.802zm-35.595 0h35.595V84.889h-35.595v47.802zm23.901 59.699v-83.6H78.858v83.6h47.802zm13.443-23.901h-37.344v47.802h37.344v-47.802zm-23.901-9.288v33.189h47.802v-33.189h-47.802zm.274-.109c0-5.425 1.86-10.859 5.522-15.253a23.775 23.775 0 019.434-6.856c4.255-1.702 7.874-1.682 8.671-1.682v47.801c.98 0 4.736.002 9.082-1.736a24.04 24.04 0 009.536-6.925 23.979 23.979 0 005.557-15.349h-47.802zm43.092-17.504c-2.324 0-3.472-.546-4.492-1.342l-29.399 37.692c9.915 7.734 21.561 11.452 33.891 11.452v-47.802zm1.846-.177a25.82 25.82 0 01-1.397.152c-.335.026-.475.025-.449.025v47.802c2.757 0 5.517-.247 8.105-.588l-6.259-47.391zm.772-1.054c.017 1.731-.194 2.49-.219 2.571-.008.028.03-.105.159-.344.132-.245.325-.537.581-.835.257-.298.518-.531.741-.698.219-.164.346-.222.322-.211-.073.035-.789.354-2.498.591l6.543 47.351c11.076-1.53 22.601-5.965 31.097-15.819 8.494-9.852 11.185-21.903 11.074-33.081l-47.8.475zm90.476 13.898l-4.778-15.234-45.611 14.308 4.779 15.234 45.61-14.308zm-16.403-20.62l-14.588 5.318 16.373 44.911 14.588-5.319-16.373-44.91zm-19.397 14.375l4.779 15.234 45.61-14.308-4.779-15.233-45.61 14.307zm16.403 20.62l14.589-5.318-16.373-44.911-14.589 5.319 16.373 44.91zm-97.984-18.669c-1.586-.989-3.702-2.79-5.334-5.675-1.649-2.916-2.153-5.79-2.153-7.939h47.801c0-11.42-5.762-21.178-15.032-26.955l-25.282 40.569zm4.822 1.539c-.725 0-2.724-.209-4.969-1.632l25.576-40.384c-6.62-4.192-13.831-5.786-20.607-5.786V151.5zm23.901-6.842v-17.059h-47.802v17.059h47.802zm-36.21-8.311c0-1.381.244-3.733 1.503-6.44a17.345 17.345 0 015.573-6.751c3.958-2.838 6.961-2.399 5.233-2.399v47.802c6 0 14.798-.947 22.62-6.555 9.291-6.661 12.872-16.641 12.872-25.657h-47.801zm225.923 76.994c14.212-3.541 28.524-11.443 35.765-27.105l-43.389-20.061c.137-.295.32-.577.509-.798.182-.213.267-.252.134-.158-.32.224-1.599.996-4.573 1.737l11.554 46.385zm-31.037 2.95c11.613 0 22.356-.753 31.124-2.972l-11.728-46.341c-3.042.77-9.139 1.511-19.396 1.511v47.802zm-35.595 0h35.595v-47.802h-35.595v47.802zm-23.901-107.392v83.491h47.802v-83.491h-47.802zm93.067-23.9h-69.166V132.8h69.166V84.998zm23.901 44.459v-20.559H332.35v20.559h47.802zm-55.723 23.901h31.822v-47.802h-31.822v47.802zm23.901-11.49v-12.411h-47.802v12.411h47.802zm-23.245-23.901h-.656v47.802h.656v-47.802zm19.028-6.178c-12.098 0-23.518 3.587-33.348 10.943l28.641 38.272c1.177-.881 2.443-1.413 4.707-1.413V111.79zm35.768 13.258c-10.208-9.522-22.976-13.258-35.768-13.258v47.802c1.815 0 2.722.255 3.017.359.147.051.191.082.172.07-.02-.012-.036-.026-.028-.019l32.607-34.954zm14.979 36.286c0-13.257-4.288-26.467-15.114-36.411l-32.337 35.205a2.335 2.335 0 01-.329-.39 2.189 2.189 0 01-.216-.389c-.048-.123.194.406.194 1.985h47.802zm-.363 6.776a62.77 62.77 0 00.363-6.776h-47.802c0 .602-.031 1.139-.083 1.618l47.522 5.158zm-19.481-25.483c2.631 0 4.494.652 5.357 1.033l-19.275 43.743c3.88 1.709 8.597 3.026 13.918 3.026v-47.802zm-17.95 13.311c.183-.808 1.08-4.284 4.554-7.723 4.06-4.019 9.192-5.588 13.396-5.588v47.802c6.976 0 14.385-2.453 20.231-8.24 5.261-5.207 7.451-11.334 8.437-15.678l-46.618-10.573zm-.592-47.148v52.435h47.802V108.79h-47.802zm110.344-23.901h-86.443v47.802h86.443V84.889zm23.901 107.501v-83.6h-47.802v83.6h47.802zm-60.698 23.901h36.797v-47.802h-36.797v47.802zm-23.901-86.833v62.932h47.802v-62.932H406.12zm11.107 23.901h12.794v-47.802h-12.794v47.802zm23.9 19.074v-42.975h-47.801v42.975h47.801zm-15.57 33.811c10.431-8.719 15.57-20.761 15.57-33.811h-47.801c0 .264-.035-.266.374-1.17.425-.939.98-1.511 1.199-1.694l30.658 36.675zm-31.623 11.031c11.23 0 22.545-3.201 31.9-11.266l-31.212-36.205a2.72 2.72 0 01.436-.305c.162-.092.28-.137.322-.151.087-.029-.313.125-1.446.125v47.802zm-42.008-17.05c11.627 10.654 25.838 17.05 42.008 17.05v-47.802c-2.638 0-5.668-.784-9.715-4.492l-32.293 35.244zm-7.754-24.646v7.024h47.802v-7.024h-47.802zm45.266 10.752c.168-.359.332-.72.493-1.083l-43.717-19.337c-.025.056-.05.113-.077.169l43.301 20.251zm-64.937-6.179c-.142-.019-3.654-.484-7.226-4.009-4.074-4.022-4.991-8.773-4.991-11.31h47.802c0-7.348-2.33-15.899-9.23-22.71-6.396-6.314-14.146-8.555-19.937-9.34l-6.418 47.369zm-.072.217h3.281v-47.802h-3.281v47.802zm23.901-7.002v-16.899h-47.802v16.899h47.802zm-20.894-23.96c-.929 0-1.793.005-2.522.019-.013.001-2.008.008-3.953.293l6.937 47.296a22.743 22.743 0 01-1.522.17l-.319.022-.184.009-.118.005.094-.002a138.676 138.676 0 011.587-.01v-47.802zm-15.152 15.426c0-2.539.934-7.337 5.083-11.357 3.605-3.492 7.096-3.883 7.105-3.884l5.929 47.432c5.841-.73 13.706-2.898 20.227-9.215 7.065-6.844 9.458-15.516 9.458-22.976h-47.802zm299.09-11.474h29.799v-47.802h-29.799v47.802zm23.901 39.031v-62.932h-47.802v62.932h47.802zm-61.245 23.901h37.344v-47.802H574.03v47.802zM550.129 108.79v83.6h47.802v-83.6h-47.802zm91.044-23.901H574.03v47.802h67.143V84.889zm23.901 44.569V108.79h-47.802v20.668h47.802zm43.084 10.899c.017 1.731-.194 2.49-.219 2.571-.009.028.03-.105.159-.344.132-.245.324-.537.581-.834.257-.298.518-.532.741-.699.219-.164.346-.222.321-.211-.073.035-.788.354-2.498.591l6.544 47.351c11.076-1.53 22.601-5.965 31.096-15.819 8.495-9.852 11.186-21.903 11.074-33.081l-47.799.475zm-.598-5.112c-.582-.779.53.062.599 5.194l47.797-.639c-.15-11.198-2.61-23.151-10.118-33.188l-38.278 28.633zm-23.235-2.554c9.796 0 16.412.925 20.552 2.11 4.23 1.212 3.973 2.131 2.846.658l37.953-29.062c-7.324-9.565-17.742-14.715-27.636-17.55-9.985-2.86-21.457-3.958-33.715-3.958v47.802zm-35.594 0h35.594V84.889h-35.594v47.802zm23.901 59.699v-83.6H624.83v83.6h47.802zm13.443-23.901h-37.344v47.802h37.344v-47.802zm-23.901-9.288v33.189h47.802v-33.189h-47.802zm.273-.109a23.827 23.827 0 015.523-15.253 23.773 23.773 0 019.433-6.856c4.255-1.702 7.874-1.682 8.672-1.682v47.801c.98 0 4.735.002 9.081-1.736a24.027 24.027 0 009.536-6.925 23.973 23.973 0 005.557-15.349h-47.802zm43.093-17.504c-2.324 0-3.472-.546-4.492-1.342l-29.4 37.692c9.916 7.734 21.562 11.452 33.892 11.452v-47.802zm1.846-.177c-.606.08-1.067.127-1.397.152-.336.026-.475.025-.449.025v47.802c2.756 0 5.517-.247 8.105-.588l-6.259-47.391zm14.181-5.064c0-11.42-5.762-21.178-15.032-26.955l-25.282 40.569c-1.587-.989-3.702-2.79-5.334-5.675-1.649-2.916-2.154-5.79-2.154-7.939h47.802zm-35.492 32.212c6 0 14.798-.947 22.62-6.555 9.29-6.661 12.872-16.641 12.872-25.657h-47.802c0-1.381.245-3.733 1.504-6.44a17.336 17.336 0 015.573-6.751c3.958-2.838 6.96-2.399 5.233-2.399v47.802zm-23.901-40.96v17.059h47.802v-17.059h-47.802zm44.508-18.115c-6.62-4.192-13.831-5.786-20.607-5.786V151.5c-.725 0-2.724-.209-4.97-1.632l25.577-40.384zm88.191 106.807h38.93v-47.802h-38.93v47.802zm-26.941-29.474l4.21 12.958 45.463-14.77-4.21-12.959-45.463 14.771zm-2.693 16.516h25.424v-47.802h-25.424v47.802zm18.521-3.558l4.21-12.958-45.462-14.771-4.211 12.959 45.463 14.77zm-61.661 16.516h38.93v-47.802h-38.93v47.802zm6.989-115.46l-29.525 83.6 45.073 15.918 29.525-83.6-45.073-15.918zm75.19-15.942h-52.654v47.802h52.654V84.889zm52.062 99.542l-29.526-83.6-45.073 15.918 29.525 83.6 45.074-15.918zM755.198 146.64l6.178 19.464 45.562-14.462-6.179-19.464-45.561 14.462zm39.31 19.523l6.233-19.465-45.525-14.578-6.233 19.464 45.525 14.579zm-10.351-31.191h-12.412v47.802h12.412v-47.802zm158.577 52.818h-38.383v47.802h38.383V187.79zm-23.901-16.396v40.297h47.801v-40.297h-47.801zm17.066 23.901h6.835v-47.802h-6.835v47.802zm-23.901-86.396v62.495H959.8v-62.495h-47.802zM850.112 132.8h85.787V84.998h-85.787V132.8zm23.901 28.534v-52.435h-47.802v52.435h47.802zm-22.306 32.582c14.383-5.542 20.629-18.144 22.106-29.498l-47.402-6.169c.004-.03.057-.431.286-1.091.233-.674.654-1.635 1.389-2.714 1.647-2.418 4.017-4.203 6.434-5.134l17.187 44.606zm-16.467 1.598h7.873v-47.802h-7.873v47.802zm23.901 16.177v-40.078h-47.802v40.078h47.802zm14.482-23.901H835.24v47.802h38.383V187.79zm-23.901 4.6v19.301h47.802V192.39h-47.802zm54.629-23.901h-30.728v47.802h30.728v-47.802zm23.901 43.202V192.39H880.45v19.301h47.802zm-5.14-40.078v-42.155H875.31v42.155h47.802zm-44.896 23.901h20.995v-47.802h-20.995v47.802zm-15.029-39.034c.097-.567.495-2.078 1.791-3.764 1.32-1.717 2.818-2.635 3.701-3.019l19.073 43.832c12.486-5.433 20.34-16.068 22.551-28.981l-47.116-8.068zm-.343-27.022v31.056h47.802v-31.056h-47.802zm36.367-23.901h-12.466v47.802h12.466v-47.802zm-424.188 42.857l78.03-28.447-16.374-44.91-78.029 28.447 16.373 44.91zm39.331 49.167l-24.712-78.776-45.61 14.308 24.711 78.776 45.611-14.308zm47.037-43.749l-78.029 28.448 16.373 44.91 78.03-28.447-16.374-44.911zm-39.33-49.167l24.712 78.776 45.61-14.307-24.712-78.776-45.61 14.307zm-36.368 48.664l4.778 15.234 45.611-14.308-4.779-15.234-45.61 14.308zm29.207-34.928l-14.589 5.319 16.373 44.91 14.589-5.318-16.373-44.911zm35.771 30.535l-4.779-15.233-45.611 14.307 4.779 15.234 45.611-14.308zm-29.208 34.928l14.589-5.319-16.373-44.91-14.589 5.318 16.373 44.911z" fill="url(#paint0_linear_7_70)" mask="url(#a)"/><mask id="b" maskUnits="userSpaceOnUse" x="91.759" y="86.511" width="862" height="136" fill="#000"><path fill="#fff" d="M91.759 86.511h862v136h-862z"/><path fill-rule="evenodd" clip-rule="evenodd" d="M186.086 140.119c-.039-2.916-.292-5.607-.759-8.073l22.802 72.689 78.029-28.447-24.711-78.777-77.91 28.404c-.765-1.843-1.701-3.506-2.809-4.987-6.197-8.092-20.322-12.138-42.374-12.138h-35.595v83.6h37.344v-33.189c.182 0 .274-.036.274-.109 5.467 4.265 11.864 6.397 19.191 6.397 1.385 0 3.044-.127 4.975-.382 14.508-2.005 21.689-10.334 21.543-24.988zm38.992 6.056l4.779 15.234 14.589-5.319-4.779-15.233-14.589 5.318zm-73.383-9.828c0-2.88-1.258-5.103-3.773-6.671-2.187-1.385-4.793-2.077-7.819-2.077v17.059c7.728 0 11.592-2.771 11.592-8.311zm216.092 39.859c-3.134 6.78-9.75 11.427-19.847 13.942-5.905 1.495-14.325 2.242-25.26 2.242h-35.595v-83.491h69.166v20.559h-31.822v12.411h.656c5.504-4.119 11.847-6.178 19.028-6.178 8.092 0 14.58 2.278 19.464 6.834 4.921 4.52 7.382 10.79 7.382 18.809 0 1.43-.075 2.829-.223 4.197 1.508.665 2.935.997 4.28.997 2.771 0 4.557-1.768 5.359-5.303V108.79h86.443v83.6h-36.797v-62.932h-12.794v42.975c0 6.415-2.333 11.573-6.999 15.474-4.228 3.645-9.66 5.467-16.294 5.467-9.404 0-18.025-3.59-25.861-10.771v-7.024c-.093.21-.188.419-.286.627zm-31.602-11.373c0-4.811-2.825-7.6-8.475-8.365h-3.281v16.899c.268-.039 1.27-.059 3.007-.059 5.833-.729 8.749-3.554 8.749-8.475zm304.988-35.375h-29.799v62.932H574.03v-83.6h67.143v20.668zm69.342 35.649c14.508-2.005 21.688-10.334 21.543-24.988-.11-8.165-1.896-14.562-5.359-19.191-6.196-8.092-20.321-12.138-42.374-12.138h-35.594v83.6h37.344v-33.189c.182 0 .273-.036.273-.109 5.468 4.265 11.865 6.397 19.192 6.397 1.385 0 3.043-.127 4.975-.382zm-16.621-35.431c2.515 1.568 3.772 3.791 3.772 6.671 0 5.54-3.864 8.311-11.591 8.311v-17.059c3.025 0 5.631.692 7.819 2.077zm139.909 62.714h-38.93l-4.21-12.958h-25.424l-4.21 12.958h-38.93l29.525-83.6h52.654l29.525 83.6zm-49.646-33.517l-6.179-19.464-6.233 19.464h12.412zm120.194 52.818h38.383v-40.297h-6.835v-62.495h-85.787v52.435c-.693 5.322-3.025 8.748-6.999 10.279h-7.873v40.078h38.383V192.39h30.728v19.301zm-5.14-82.233v42.155h-20.995c4.775-2.078 7.618-5.777 8.529-11.099v-31.056h12.466zM544.866 97.511l-78.029 28.448 24.712 78.776 78.029-28.447-24.712-78.777zm-31.589 63.898l-4.779-15.234 14.589-5.318 4.778 15.233-14.588 5.319z"/></mask><path fill-rule="evenodd" clip-rule="evenodd" d="M186.086 140.119c-.039-2.916-.292-5.607-.759-8.073l22.802 72.689 78.029-28.447-24.711-78.777-77.91 28.404c-.765-1.843-1.701-3.506-2.809-4.987-6.197-8.092-20.322-12.138-42.374-12.138h-35.595v83.6h37.344v-33.189c.182 0 .274-.036.274-.109 5.467 4.265 11.864 6.397 19.191 6.397 1.385 0 3.044-.127 4.975-.382 14.508-2.005 21.689-10.334 21.543-24.988zm38.992 6.056l4.779 15.234 14.589-5.319-4.779-15.233-14.589 5.318zm-73.383-9.828c0-2.88-1.258-5.103-3.773-6.671-2.187-1.385-4.793-2.077-7.819-2.077v17.059c7.728 0 11.592-2.771 11.592-8.311zm216.092 39.859c-3.134 6.78-9.75 11.427-19.847 13.942-5.905 1.495-14.325 2.242-25.26 2.242h-35.595v-83.491h69.166v20.559h-31.822v12.411h.656c5.504-4.119 11.847-6.178 19.028-6.178 8.092 0 14.58 2.278 19.464 6.834 4.921 4.52 7.382 10.79 7.382 18.809 0 1.43-.075 2.829-.223 4.197 1.508.665 2.935.997 4.28.997 2.771 0 4.557-1.768 5.359-5.303V108.79h86.443v83.6h-36.797v-62.932h-12.794v42.975c0 6.415-2.333 11.573-6.999 15.474-4.228 3.645-9.66 5.467-16.294 5.467-9.404 0-18.025-3.59-25.861-10.771v-7.024c-.093.21-.188.419-.286.627zm-31.602-11.373c0-4.811-2.825-7.6-8.475-8.365h-3.281v16.899c.268-.039 1.27-.059 3.007-.059 5.833-.729 8.749-3.554 8.749-8.475zm304.988-35.375h-29.799v62.932H574.03v-83.6h67.143v20.668zm69.342 35.649c14.508-2.005 21.688-10.334 21.543-24.988-.11-8.165-1.896-14.562-5.359-19.191-6.196-8.092-20.321-12.138-42.374-12.138h-35.594v83.6h37.344v-33.189c.182 0 .273-.036.273-.109 5.468 4.265 11.865 6.397 19.192 6.397 1.385 0 3.043-.127 4.975-.382zm-16.621-35.431c2.515 1.568 3.772 3.791 3.772 6.671 0 5.54-3.864 8.311-11.591 8.311v-17.059c3.025 0 5.631.692 7.819 2.077zm139.909 62.714h-38.93l-4.21-12.958h-25.424l-4.21 12.958h-38.93l29.525-83.6h52.654l29.525 83.6zm-49.646-33.517l-6.179-19.464-6.233 19.464h12.412zm120.194 52.818h38.383v-40.297h-6.835v-62.495h-85.787v52.435c-.693 5.322-3.025 8.748-6.999 10.279h-7.873v40.078h38.383V192.39h30.728v19.301zm-5.14-82.233v42.155h-20.995c4.775-2.078 7.618-5.777 8.529-11.099v-31.056h12.466zM544.866 97.511l-78.029 28.448 24.712 78.776 78.029-28.447-24.712-78.777zm-31.589 63.898l-4.779-15.234 14.589-5.318 4.778 15.233-14.588 5.319z" fill="#fff"/><path d="M185.327 132.046l9.773-3.066a10.244 10.244 0 00-19.838 4.973l10.065-1.907zm.759 8.073l10.243-.101-.001-.036-10.242.137zm22.043 64.616l-9.774 3.066a10.25 10.25 0 005.239 6.119 10.249 10.249 0 008.044.439l-3.509-9.624zm78.029-28.447l3.509 9.623a10.243 10.243 0 006.265-12.689l-9.774 3.066zm-24.711-78.777l9.773-3.066a10.24 10.24 0 00-13.282-6.557l3.509 9.623zm-77.91 28.404l-9.462 3.925a10.244 10.244 0 0012.97 5.699l-3.508-9.624zm-2.809-4.987l8.202-6.136-.07-.092-8.132 6.228zm-77.969-12.138V98.547c-5.657 0-10.243 4.586-10.243 10.243h10.243zm0 83.6H92.516c0 5.657 4.586 10.243 10.243 10.243V192.39zm37.344 0v10.243c5.657 0 10.243-4.586 10.243-10.243h-10.243zm0-33.189v-10.243c-5.657 0-10.243 4.586-10.243 10.243h10.243zm.274-.109l6.299-8.077a10.244 10.244 0 00-16.543 8.077h10.244zm24.166 6.015l1.342 10.155.061-.009-1.403-10.146zm65.314-3.698l-9.774 3.066a10.244 10.244 0 0013.283 6.557l-3.509-9.623zm-4.779-15.234l-3.508-9.623a10.243 10.243 0 00-6.265 12.689l9.773-3.066zm19.368 9.915l3.508 9.624a10.244 10.244 0 006.266-12.69l-9.774 3.066zm-4.779-15.233l9.774-3.066a10.241 10.241 0 00-13.282-6.558l3.508 9.624zm-91.745-11.181l-5.481 8.654.063.04 5.418-8.694zm-7.819-2.077v-10.244c-5.657 0-10.243 4.586-10.243 10.244h10.243zm0 17.059H129.86c0 5.657 4.586 10.243 10.243 10.243v-10.243zm207.837 45.49l-2.476-9.939-.037.009 2.513 9.93zm19.847-13.942l-9.278-4.34-.019.041 9.297 4.299zm-80.702 16.184h-10.243c0 5.657 4.586 10.243 10.243 10.243V192.39zm0-83.491V98.656c-5.657 0-10.243 4.586-10.243 10.243h10.243zm69.166 0h10.243c0-5.657-4.586-10.243-10.243-10.243V108.9zm0 20.559v10.243c5.657 0 10.243-4.586 10.243-10.243h-10.243zm-31.822 0v-10.244c-5.657 0-10.243 4.586-10.243 10.244h10.243zm0 12.411h-10.243c0 5.657 4.586 10.243 10.243 10.243v-10.243zm.656 0v10.243c2.213 0 4.366-.716 6.138-2.042l-6.138-8.201zm38.492.656l-6.987 7.49.058.054 6.929-7.544zm7.159 23.006l-10.184-1.105a10.245 10.245 0 006.054 10.479l4.13-9.374zm9.639-4.306l9.989 2.265c.169-.743.254-1.503.254-2.265h-10.243zm0-52.435V98.547c-5.657 0-10.244 4.586-10.244 10.243h10.244zm86.443 0h10.243c0-5.657-4.586-10.243-10.243-10.243v10.243zm0 83.6v10.243c5.657 0 10.243-4.586 10.243-10.243h-10.243zm-36.797 0h-10.244c0 5.657 4.587 10.243 10.244 10.243V192.39zm0-62.932h10.243c0-5.658-4.586-10.244-10.243-10.244v10.244zm-12.794 0v-10.244c-5.658 0-10.244 4.586-10.244 10.244h10.244zm-6.999 58.449l-6.57-7.86-.118.101 6.688 7.759zm-42.155-5.304h-10.244c0 2.872 1.206 5.612 3.324 7.552l6.92-7.552zm0-7.024h10.243a10.243 10.243 0 00-19.611-4.143l9.368 4.143zm-40.363-19.111l1.375-10.151a10.202 10.202 0 00-1.375-.093v10.244zm-3.281 0v-10.244c-5.657 0-10.243 4.586-10.243 10.244h10.243zm0 16.899h-10.243a10.244 10.244 0 0011.73 10.135l-1.487-10.135zm3.007-.059v10.243c.425 0 .849-.026 1.271-.079l-1.271-10.164zm283.938-43.85v-10.244c-5.657 0-10.243 4.586-10.243 10.244h10.243zm29.799 0v10.243c5.657 0 10.243-4.586 10.243-10.243h-10.243zm-29.799 62.932v10.243c5.657 0 10.243-4.586 10.243-10.243h-10.243zm-37.344 0h-10.243c0 5.657 4.586 10.243 10.243 10.243V192.39zm0-83.6V98.547c-5.657 0-10.243 4.586-10.243 10.243h10.243zm67.143 0h10.243c0-5.657-4.586-10.243-10.243-10.243v10.243zm90.885 31.329l10.242-.101v-.036l-10.242.137zm-21.543 24.988l1.341 10.155.061-.009-1.402-10.146zm16.184-44.179l8.203-6.136-.07-.092-8.133 6.228zm-77.968-12.138V98.547c-5.657 0-10.243 4.586-10.243 10.243h10.243zm0 83.6h-10.243c0 5.657 4.586 10.243 10.243 10.243V192.39zm37.344 0v10.243c5.657 0 10.243-4.586 10.243-10.243h-10.243zm0-33.189v-10.243c-5.657 0-10.243 4.586-10.243 10.243h10.243zm.273-.109l6.3-8.077a10.243 10.243 0 00-16.543 8.077h10.243zm7.546-29.416l-5.481 8.654.063.04 5.418-8.694zm-7.819 14.982h-10.243c0 5.657 4.586 10.243 10.243 10.243v-10.243zm0-17.059v-10.244c-5.657 0-10.243 4.586-10.243 10.244h10.243zm108.798 64.791l-9.742 3.165a10.244 10.244 0 009.742 7.078V192.39zm38.93 0v10.243a10.24 10.24 0 008.362-4.328 10.24 10.24 0 001.296-9.326l-9.658 3.411zm-43.14-12.958l9.742-3.165a10.243 10.243 0 00-9.742-7.079v10.244zm-25.424 0v-10.244a10.243 10.243 0 00-9.742 7.079l9.742 3.165zm-4.21 12.958v10.243c4.438 0 8.371-2.857 9.742-7.078l-9.742-3.165zm-38.93 0l-9.658-3.411a10.243 10.243 0 009.658 13.654V192.39zm29.525-83.6V98.547a10.242 10.242 0 00-9.658 6.832l9.658 3.411zm52.654 0l9.658-3.411a10.242 10.242 0 00-9.658-6.832v10.243zm-26.3 30.619l9.764-3.099a10.244 10.244 0 00-19.519-.025l9.755 3.124zm6.179 19.464v10.244a10.244 10.244 0 009.763-13.343l-9.763 3.099zm-12.412 0l-9.755-3.123a10.243 10.243 0 009.755 13.367v-10.244zm170.989 52.818v10.243c5.657 0 10.243-4.586 10.243-10.243h-10.243zm-38.383 0h-10.243c0 5.657 4.586 10.243 10.243 10.243v-10.243zm38.383-40.297h10.243c0-5.657-4.586-10.243-10.243-10.243v10.243zm-6.835 0h-10.243c0 5.657 4.586 10.244 10.243 10.244v-10.244zm0-62.495h10.243c0-5.657-4.586-10.243-10.243-10.243V108.9zm-85.787 0V98.656c-5.657 0-10.243 4.586-10.243 10.243h10.243zm0 52.435l10.158 1.322c.057-.439.085-.88.085-1.322h-10.243zm-6.999 10.279v10.243c1.26 0 2.508-.232 3.683-.685l-3.683-9.558zm-7.873 0V161.37c-5.657 0-10.243 4.586-10.243 10.243h10.243zm0 40.078h-10.243c0 5.657 4.586 10.243 10.243 10.243v-10.243zm38.383 0v10.243c5.657 0 10.243-4.586 10.243-10.243h-10.243zm0-19.301v-10.243c-5.657 0-10.244 4.586-10.244 10.243h10.244zm30.728 0h10.243c0-5.657-4.586-10.243-10.243-10.243v10.243zm-5.14-20.777v10.243c5.657 0 10.244-4.586 10.244-10.243h-10.244zm0-42.155h10.244c0-5.658-4.587-10.244-10.244-10.244v10.244zm-20.995 42.155l-4.087-9.393a10.244 10.244 0 004.087 19.636v-10.243zm8.529-11.099l10.096 1.729c.098-.572.147-1.15.147-1.729h-10.243zm0-31.056v-10.244c-5.657 0-10.243 4.586-10.243 10.244h10.243zm-419.908-3.499l-3.509-9.624a10.244 10.244 0 00-6.265 12.69l9.774-3.066zm78.029-28.448l9.774-3.066a10.247 10.247 0 00-13.282-6.557l3.508 9.623zm-53.317 107.224l-9.774 3.066a10.244 10.244 0 0013.282 6.558l-3.508-9.624zm78.029-28.447l3.508 9.623a10.242 10.242 0 006.266-12.689l-9.774 3.066zm-61.08-30.113l-3.509-9.623a10.243 10.243 0 00-6.265 12.689l9.774-3.066zm4.779 15.234l-9.774 3.066a10.244 10.244 0 0013.282 6.557l-3.508-9.623zm9.81-20.552l9.773-3.066a10.242 10.242 0 00-13.282-6.558l3.509 9.624zm4.778 15.233l3.509 9.624a10.244 10.244 0 006.265-12.69l-9.774 3.066zm-352.603-22.137c.341 1.797.549 3.888.582 6.304l20.484-.275c-.046-3.417-.343-6.708-.937-9.842l-20.129 3.813zm42.641 67.716L195.1 128.98l-19.547 6.132 22.802 72.689 19.548-6.132zm64.747-35.005l-78.029 28.447 7.017 19.248 78.029-28.448-7.017-19.247zm-30.977-66.087l24.712 78.776 19.547-6.131-24.712-78.777-19.547 6.132zm-64.628 34.962l77.91-28.404-7.017-19.247-77.91 28.404 7.017 19.247zm-14.52-8.475c.56.748 1.086 1.658 1.55 2.776l18.923-7.85c-1.065-2.568-2.412-4.983-4.068-7.198l-16.405 12.272zm-34.171-8.031c10.498 0 18.502.975 24.312 2.639 5.849 1.675 8.642 3.803 9.929 5.484L188.86 114.7c-4.909-6.411-12.277-10.352-20.553-12.723-8.315-2.382-18.4-3.43-29.953-3.43v20.486zm-35.595 0h35.595V98.547h-35.595v20.486zm10.244 73.357v-83.6H92.516v83.6h20.487zm27.1-10.243h-37.344v20.486h37.344v-20.486zm-10.243-22.946v33.189h20.486v-33.189H129.86zm.273-.109c0-2.314.794-4.634 2.357-6.51a10.13 10.13 0 014.014-2.919c1.797-.719 3.309-.705 3.599-.705v20.487c.472 0 2.121-.005 4.009-.76a10.32 10.32 0 006.508-9.593h-20.487zm29.435-3.846c-5.183 0-9.33-1.453-12.892-4.231l-12.599 16.154c7.373 5.752 16.02 8.564 25.491 8.564v-20.487zm3.634-.295c-1.651.218-2.837.295-3.634.295v20.487c1.973 0 4.104-.179 6.317-.471l-2.683-20.311zm12.641-14.73c.057 5.676-1.303 8.72-2.791 10.447-1.489 1.726-4.295 3.516-9.911 4.292l2.805 20.293c8.891-1.228 16.929-4.605 22.622-11.208 5.692-6.602 7.85-15.05 7.761-24.027l-20.486.203zm63.788 18.122l-4.779-15.234-19.547 6.132 4.778 15.234 19.548-6.132zm1.306-11.877l-14.588 5.319 7.017 19.247 14.588-5.318-7.017-19.248zm-11.043-2.544l4.778 15.234 19.548-6.132-4.779-15.233-19.547 6.131zm-1.307 11.877l14.589-5.319-7.017-19.247-14.589 5.319 7.017 19.247zm-86.083-17.429c.039.024-.329-.206-.669-.808-.347-.614-.384-1.117-.384-1.215h20.487c0-6.54-3.188-11.993-8.599-15.364l-10.835 17.387zm-2.401-.528c1.418 0 2.051.306 2.338.488l10.962-17.307c-4.087-2.589-8.667-3.668-13.3-3.668v20.487zm10.243 6.816v-17.059H129.86v17.059h20.486zm-8.895-8.311c0 .2-.033-.116.231-.683a3.69 3.69 0 011.146-1.409c.348-.249.439-.193-.035-.08-.478.115-1.337.239-2.69.239v20.487c4.78 0 10.206-.801 14.662-3.996 5.086-3.647 7.173-9.111 7.173-14.558h-20.487zm208.965 63.741c11.86-2.955 21.774-8.997 26.669-19.583l-18.595-8.598c-1.375 2.973-4.693 6.226-13.026 8.302l4.952 19.879zm-27.736 2.545c11.225 0 20.641-.75 27.773-2.555l-5.026-19.86c-4.678 1.184-12.103 1.929-22.747 1.929v20.486zm-35.595 0h35.595v-20.486h-35.595v20.486zm-10.243-93.734v83.491h20.487v-83.491h-20.487zm79.409-10.243h-69.166v20.487h69.166V98.656zm10.243 30.802v-20.559h-20.486v20.559h20.486zm-42.065 10.243h31.822v-20.487h-31.822v20.487zm10.243 2.168v-12.411h-20.486v12.411h20.486zm-9.587-10.243h-.656v20.486h.656v-20.486zm19.028-6.179c-9.288 0-17.807 2.715-25.165 8.221l12.275 16.402c3.65-2.731 7.816-4.136 12.89-4.136v-20.487zm26.452 9.588c-7.166-6.685-16.346-9.588-26.452-9.588v20.487c6.077 0 9.874 1.653 12.477 4.081l13.975-14.98zm10.637 26.299c0-10.264-3.244-19.508-10.695-26.353l-13.859 15.088c2.39 2.195 4.067 5.491 4.067 11.265h20.487zm-.283 5.303a49.1 49.1 0 00.283-5.303h-20.487a28.42 28.42 0 01-.163 3.092l20.367 2.211zm-5.903-10.352c.175 0 .263.022.244.018-.022-.006-.151-.038-.394-.145l-8.26 18.747c2.524 1.112 5.361 1.866 8.41 1.866v-20.486zm-4.631 2.674c-.15.664-.136-.068.843-1.037a5.82 5.82 0 011.976-1.275 5.075 5.075 0 011.812-.362v20.486c3.781 0 7.608-1.304 10.624-4.289 2.764-2.736 4.073-6.12 4.724-8.992l-19.979-4.531zm-.254-50.169v52.435h20.487V108.79h-20.487zm96.687-10.243h-86.443v20.486h86.443V98.547zm10.243 93.843v-83.6h-20.486v83.6h20.486zm-47.04 10.243h36.797v-20.486h-36.797v20.486zm-10.244-73.175v62.932h20.487v-62.932h-20.487zm-2.55 10.243h12.794v-20.487h-12.794v20.487zm10.243 32.732v-42.975h-20.487v42.975h20.487zm-10.672 23.333c7.136-5.966 10.672-14.074 10.672-23.333h-20.487c0 3.572-1.13 5.78-3.325 7.614l13.14 15.719zm-22.864 7.851c8.604 0 16.557-2.413 22.982-7.952l-13.376-15.517c-2.031 1.751-4.941 2.983-9.606 2.983v20.486zm-32.781-13.462c9.461 8.669 20.477 13.462 32.781 13.462v-20.486c-6.504 0-12.729-2.388-18.941-8.08l-13.84 15.104zm-3.324-14.576v7.024h20.487v-7.024h-20.487zm19.237 4.966c.128-.273.252-.547.374-.822l-18.735-8.287c-.064.144-.129.287-.196.43l18.557 8.679zm-50.731-13.927c.727.099 1.06.224 1.121.249.041.018-.227-.089-.586-.444a3.547 3.547 0 01-.817-1.25c-.142-.384-.112-.547-.112-.34h20.487c0-4.524-1.402-9.274-5.166-12.99-3.549-3.502-8.081-4.971-12.177-5.526l-2.75 20.301zm-1.906.093h3.281v-20.487h-3.281v20.487zm10.243 6.656v-16.899h-20.486v16.899h20.486zm-7.236-10.302c-.894 0-1.656.005-2.255.016-.292.006-1.328.017-2.238.151l2.973 20.27c-.306.044-.529.061-.575.065-.076.006-.115.007-.1.006.032-.001.136-.005.341-.009.403-.008 1.012-.013 1.854-.013v-20.486zm-1.495 1.768c0 .225-.033.07.11-.311.158-.419.441-.87.819-1.237.356-.344.61-.436.538-.407-.092.038-.465.169-1.242.266l2.541 20.328c4.169-.521 8.79-1.958 12.418-5.472 3.861-3.741 5.303-8.564 5.303-13.167h-20.487zm285.433-25.132h29.799v-20.487h-29.799v20.487zm10.243 52.689v-62.932h-20.486v62.932h20.486zm-47.587 10.243h37.344v-20.486H574.03v20.486zm-10.243-93.843v83.6h20.486v-83.6h-20.486zm77.386-10.243H574.03v20.486h67.143V98.547zm10.243 30.911V108.79h-20.487v20.668h20.487zm70.399 10.763c.056 5.676-1.303 8.72-2.792 10.447-1.488 1.726-4.294 3.516-9.91 4.292l2.804 20.293c8.892-1.228 16.93-4.605 22.622-11.208 5.692-6.602 7.851-15.05 7.761-24.027l-20.485.203zm-3.318-13.157c1.729 2.311 3.226 6.327 3.318 13.193l20.485-.275c-.127-9.464-2.202-18.243-7.398-25.19l-16.405 12.272zm-34.172-8.031c10.499 0 18.503.975 24.313 2.639 5.848 1.675 8.641 3.803 9.929 5.484l16.265-12.456c-4.909-6.411-12.277-10.352-20.553-12.723-8.315-2.382-18.4-3.43-29.954-3.43v20.486zm-35.594 0h35.594V98.547h-35.594v20.486zm10.243 73.357v-83.6h-20.486v83.6h20.486zm27.101-10.243h-37.344v20.486h37.344v-20.486zm-10.243-22.946v33.189h20.486v-33.189h-20.486zm.273-.109c0-2.314.794-4.634 2.357-6.51a10.116 10.116 0 014.014-2.918c1.797-.72 3.309-.706 3.599-.706v20.487c.472 0 2.12-.005 4.009-.76a10.369 10.369 0 004.116-2.988 10.31 10.31 0 002.391-6.605h-20.486zm29.435-3.846c-5.183 0-9.33-1.453-12.892-4.231l-12.6 16.154c7.374 5.752 16.021 8.564 25.492 8.564v-20.487zm3.634-.295c-1.651.218-2.837.295-3.634.295v20.487c1.973 0 4.103-.179 6.316-.471l-2.682-20.311zm-1.265-18.604c0-6.54-3.188-11.993-8.598-15.364l-10.835 17.387c.039.024-.329-.207-.669-.808-.347-.614-.384-1.117-.384-1.215h20.486zm-21.834 18.554c4.779 0 10.206-.801 14.662-3.996 5.085-3.647 7.172-9.111 7.172-14.558h-20.486c0 .2-.033-.116.23-.683a3.7 3.7 0 011.147-1.409c.348-.249.439-.193-.035-.08-.478.115-1.337.239-2.69.239v20.487zm-10.243-27.302v17.059h20.486v-17.059h-20.486zm23.542-6.576c-4.087-2.589-8.666-3.668-13.299-3.668v20.487c1.418 0 2.051.306 2.338.488l10.961-17.307zm95.499 81.61h38.93v-20.486h-38.93v20.486zm-13.952-20.036l4.21 12.958 19.484-6.33-4.21-12.958-19.484 6.33zm-15.682 7.078h25.424v-20.487h-25.424v20.487zm5.532 5.88l4.21-12.958-19.484-6.33-4.21 12.958 19.484 6.33zm-48.672 7.078h38.93v-20.486h-38.93v20.486zm19.867-97.254l-29.525 83.6 19.317 6.822 29.525-83.6-19.317-6.822zm62.312-6.832h-52.654v20.486h52.654V98.547zm39.183 90.432l-29.525-83.6-19.317 6.822 29.525 83.6 19.317-6.822zm-75.246-46.471l6.179 19.464 19.526-6.198-6.178-19.464-19.527 6.198zm13.286 19.489l6.233-19.464-19.511-6.248-6.233 19.465 19.511 6.247zm2.656-13.367h-12.412v20.487h12.412V148.63zm158.577 52.817h-38.383v20.487h38.383v-20.487zm-10.244-30.053v40.297h20.487v-40.297H932.49zm3.409 10.244h6.835v-20.487h-6.835v20.487zm-10.243-72.739v62.495h20.486v-62.495h-20.486zm-75.544 10.244h85.787V98.656h-85.787v20.487zm10.243 42.191v-52.435h-20.486v52.435h20.486zm-13.559 19.837c8.435-3.25 12.445-10.609 13.474-18.515l-20.316-2.644c-.198 1.522-.542 2.066-.578 2.118-.013.019.015-.023.079-.073.063-.05.075-.041-.025-.002l7.366 19.116zm-11.556.685h7.873V161.37h-7.873v20.486zm10.243 29.835v-40.078h-20.486v40.078h20.486zm28.14-10.244H835.24v20.487h38.383v-20.487zm-10.244-9.057v19.301h20.487V192.39h-20.487zm40.972-10.243h-30.728v20.486h30.728v-20.486zm10.243 29.544V192.39h-20.486v19.301h20.486zm-5.139-40.078v-42.155h-20.487v42.155h20.487zm-31.239 10.243h20.995V161.37h-20.995v20.486zm-1.567-23.071c-.354 2.068-1.05 2.796-2.52 3.435l8.173 18.786c8.08-3.516 13.071-10.188 14.539-18.763l-20.192-3.458zm-.147-29.327v31.056h20.486v-31.056h-20.486zm22.709-10.244h-12.466v20.487h12.466v-20.487zm-428.866 16.369l78.03-28.448-7.017-19.247-78.03 28.447 7.017 19.248zm30.977 66.086l-24.712-78.776-19.547 6.132 24.712 78.776 19.547-6.132zm64.747-35.005l-78.029 28.447 7.017 19.248 78.029-28.448-7.017-19.247zm-30.977-66.087l24.712 78.776 19.548-6.131-24.712-78.777-19.548 6.132zm-36.368 48.664l4.779 15.234 19.547-6.132-4.778-15.234-19.548 6.132zm20.854-18.008l-14.589 5.319 7.017 19.247 14.589-5.319-7.017-19.247zm18.061 21.791l-4.779-15.233-19.547 6.131 4.779 15.234 19.547-6.132zm-20.854 18.008l14.589-5.318-7.017-19.248-14.589 5.319 7.017 19.247z" fill="#EB2506" mask="url(#b)"/><mask id="c" maskUnits="userSpaceOnUse" x="89.759" y="84.511" width="866" height="140" fill="#000"><path fill="#fff" d="M89.759 84.511h866v140h-866z"/><path fill-rule="evenodd" clip-rule="evenodd" d="M186.086 140.119c-.039-2.916-.292-5.607-.759-8.073l22.802 72.689 78.029-28.447-24.711-78.777-77.91 28.404c-.765-1.843-1.701-3.506-2.809-4.987-6.197-8.092-20.322-12.138-42.374-12.138h-35.595v83.6h37.344v-33.189c.182 0 .274-.036.274-.109 5.467 4.265 11.864 6.397 19.191 6.397 1.385 0 3.044-.127 4.975-.382 14.508-2.005 21.689-10.334 21.543-24.988zm38.992 6.056l4.779 15.234 14.589-5.319-4.779-15.233-14.589 5.318zm-73.383-9.828c0-2.88-1.258-5.103-3.773-6.671-2.187-1.385-4.793-2.077-7.819-2.077v17.059c7.728 0 11.592-2.771 11.592-8.311zm216.092 39.859c-3.134 6.78-9.75 11.427-19.847 13.942-5.905 1.495-14.325 2.242-25.26 2.242h-35.595v-83.491h69.166v20.559h-31.822v12.411h.656c5.504-4.119 11.847-6.178 19.028-6.178 8.092 0 14.58 2.278 19.464 6.834 4.921 4.52 7.382 10.79 7.382 18.809 0 1.43-.075 2.829-.223 4.197 1.508.665 2.935.997 4.28.997 2.771 0 4.557-1.768 5.359-5.303V108.79h86.443v83.6h-36.797v-62.932h-12.794v42.975c0 6.415-2.333 11.573-6.999 15.474-4.228 3.645-9.66 5.467-16.294 5.467-9.404 0-18.025-3.59-25.861-10.771v-7.024c-.093.21-.188.419-.286.627zm-31.602-11.373c0-4.811-2.825-7.6-8.475-8.365h-3.281v16.899c.268-.039 1.27-.059 3.007-.059 5.833-.729 8.749-3.554 8.749-8.475zm304.988-35.375h-29.799v62.932H574.03v-83.6h67.143v20.668zm69.342 35.649c14.508-2.005 21.688-10.334 21.543-24.988-.11-8.165-1.896-14.562-5.359-19.191-6.196-8.092-20.321-12.138-42.374-12.138h-35.594v83.6h37.344v-33.189c.182 0 .273-.036.273-.109 5.468 4.265 11.865 6.397 19.192 6.397 1.385 0 3.043-.127 4.975-.382zm-16.621-35.431c2.515 1.568 3.772 3.791 3.772 6.671 0 5.54-3.864 8.311-11.591 8.311v-17.059c3.025 0 5.631.692 7.819 2.077zm139.909 62.714h-38.93l-4.21-12.958h-25.424l-4.21 12.958h-38.93l29.525-83.6h52.654l29.525 83.6zm-49.646-33.517l-6.179-19.464-6.233 19.464h12.412zm120.194 52.818h38.383v-40.297h-6.835v-62.495h-85.787v52.435c-.693 5.322-3.025 8.748-6.999 10.279h-7.873v40.078h38.383V192.39h30.728v19.301zm-5.14-82.233v42.155h-20.995c4.775-2.078 7.618-5.777 8.529-11.099v-31.056h12.466zM544.866 97.511l-78.029 28.448 24.712 78.776 78.029-28.447-24.712-78.777zm-31.589 63.898l-4.779-15.234 14.589-5.318 4.778 15.233-14.588 5.319z"/></mask><path fill-rule="evenodd" clip-rule="evenodd" d="M186.086 140.119c-.039-2.916-.292-5.607-.759-8.073l22.802 72.689 78.029-28.447-24.711-78.777-77.91 28.404c-.765-1.843-1.701-3.506-2.809-4.987-6.197-8.092-20.322-12.138-42.374-12.138h-35.595v83.6h37.344v-33.189c.182 0 .274-.036.274-.109 5.467 4.265 11.864 6.397 19.191 6.397 1.385 0 3.044-.127 4.975-.382 14.508-2.005 21.689-10.334 21.543-24.988zm38.992 6.056l4.779 15.234 14.589-5.319-4.779-15.233-14.589 5.318zm-73.383-9.828c0-2.88-1.258-5.103-3.773-6.671-2.187-1.385-4.793-2.077-7.819-2.077v17.059c7.728 0 11.592-2.771 11.592-8.311zm216.092 39.859c-3.134 6.78-9.75 11.427-19.847 13.942-5.905 1.495-14.325 2.242-25.26 2.242h-35.595v-83.491h69.166v20.559h-31.822v12.411h.656c5.504-4.119 11.847-6.178 19.028-6.178 8.092 0 14.58 2.278 19.464 6.834 4.921 4.52 7.382 10.79 7.382 18.809 0 1.43-.075 2.829-.223 4.197 1.508.665 2.935.997 4.28.997 2.771 0 4.557-1.768 5.359-5.303V108.79h86.443v83.6h-36.797v-62.932h-12.794v42.975c0 6.415-2.333 11.573-6.999 15.474-4.228 3.645-9.66 5.467-16.294 5.467-9.404 0-18.025-3.59-25.861-10.771v-7.024c-.093.21-.188.419-.286.627zm-31.602-11.373c0-4.811-2.825-7.6-8.475-8.365h-3.281v16.899c.268-.039 1.27-.059 3.007-.059 5.833-.729 8.749-3.554 8.749-8.475zm304.988-35.375h-29.799v62.932H574.03v-83.6h67.143v20.668zm69.342 35.649c14.508-2.005 21.688-10.334 21.543-24.988-.11-8.165-1.896-14.562-5.359-19.191-6.196-8.092-20.321-12.138-42.374-12.138h-35.594v83.6h37.344v-33.189c.182 0 .273-.036.273-.109 5.468 4.265 11.865 6.397 19.192 6.397 1.385 0 3.043-.127 4.975-.382zm-16.621-35.431c2.515 1.568 3.772 3.791 3.772 6.671 0 5.54-3.864 8.311-11.591 8.311v-17.059c3.025 0 5.631.692 7.819 2.077zm139.909 62.714h-38.93l-4.21-12.958h-25.424l-4.21 12.958h-38.93l29.525-83.6h52.654l29.525 83.6zm-49.646-33.517l-6.179-19.464-6.233 19.464h12.412zm120.194 52.818h38.383v-40.297h-6.835v-62.495h-85.787v52.435c-.693 5.322-3.025 8.748-6.999 10.279h-7.873v40.078h38.383V192.39h30.728v19.301zm-5.14-82.233v42.155h-20.995c4.775-2.078 7.618-5.777 8.529-11.099v-31.056h12.466zM544.866 97.511l-78.029 28.448 24.712 78.776 78.029-28.447-24.712-78.777zm-31.589 63.898l-4.779-15.234 14.589-5.318 4.778 15.233-14.588 5.319z" fill="#fff"/><path d="M185.327 132.046l11.728-3.679c-1.948-6.211-8.402-9.827-14.717-8.244-6.314 1.583-10.3 7.815-9.088 14.211l12.077-2.288zm.759 8.073l12.291-.122v-.042l-12.291.164zm22.043 64.616l-11.728 3.679a12.293 12.293 0 0015.938 7.869l-4.21-11.548zm78.029-28.447l4.211 11.548c6.173-2.251 9.485-8.958 7.518-15.228l-11.729 3.68zm-24.711-78.777l11.728-3.679a12.29 12.29 0 00-15.939-7.869l4.211 11.549zm-77.91 28.404l-11.354 4.71c2.521 6.078 9.382 9.093 15.564 6.839l-4.21-11.549zm-2.809-4.987l9.842-7.363-.083-.11-9.759 7.473zm-77.969-12.138V96.498c-6.788 0-12.292 5.503-12.292 12.292h12.292zm0 83.6H90.467c0 6.789 5.504 12.292 12.292 12.292V192.39zm37.344 0v12.292c6.789 0 12.292-5.503 12.292-12.292h-12.292zm0-33.189V146.91c-6.788 0-12.292 5.503-12.292 12.291h12.292zm.274-.109l7.559-9.692a12.291 12.291 0 00-19.851 9.692h12.292zm24.166 6.015l1.61 12.186.073-.01-1.683-12.176zm65.314-3.698l-11.728 3.679a12.292 12.292 0 0015.938 7.869l-4.21-11.548zm-4.779-15.234l-4.21-11.548c-6.173 2.25-9.485 8.958-7.518 15.227l11.728-3.679zm19.368 9.915l4.21 11.548c6.173-2.25 9.485-8.958 7.518-15.227l-11.728 3.679zm-4.779-15.233l11.729-3.68a12.293 12.293 0 00-15.939-7.869l4.21 11.549zm-91.745-11.181l-6.577 10.385.076.047 6.501-10.432zm-7.819-2.077v-12.292c-6.788 0-12.292 5.503-12.292 12.292h12.292zm0 17.059h-12.292c0 6.788 5.504 12.292 12.292 12.292v-12.292zm207.837 45.49l-2.971-11.927-.045.011 3.016 11.916zm19.847-13.942l-11.134-5.208-.023.049 11.157 5.159zm-80.702 16.184h-12.292c0 6.789 5.504 12.292 12.292 12.292V192.39zm0-83.491V96.607c-6.788 0-12.292 5.504-12.292 12.292h12.292zm69.166 0h12.292c0-6.788-5.504-12.292-12.292-12.292V108.9zm0 20.559v12.292c6.788 0 12.292-5.504 12.292-12.292h-12.292zm-31.822 0v-12.292c-6.788 0-12.292 5.503-12.292 12.292h12.292zm0 12.411h-12.292c0 6.789 5.504 12.292 12.292 12.292v-12.292zm.656 0v12.292c2.655 0 5.239-.86 7.365-2.451l-7.365-9.841zm38.492.656l-8.384 8.989.069.064 8.315-9.053zm7.159 23.006l-12.22-1.326a12.292 12.292 0 007.263 12.575l4.957-11.249zm9.639-4.306l11.987 2.718a12.25 12.25 0 00.305-2.718h-12.292zm0-52.435V96.498c-6.789 0-12.292 5.503-12.292 12.292h12.292zm86.443 0h12.292c0-6.789-5.503-12.292-12.292-12.292v12.292zm0 83.6v12.292c6.789 0 12.292-5.503 12.292-12.292h-12.292zm-36.797 0h-12.292c0 6.789 5.503 12.292 12.292 12.292V192.39zm0-62.932h12.292c0-6.789-5.504-12.292-12.292-12.292v12.292zm-12.794 0v-12.292c-6.789 0-12.292 5.503-12.292 12.292h12.292zm-6.999 58.449l-7.884-9.431-.142.121 8.026 9.31zm-42.155-5.304h-12.292a12.29 12.29 0 003.988 9.063l8.304-9.063zm0-7.024h12.291a12.292 12.292 0 00-23.533-4.972l11.242 4.972zm-40.363-19.111l1.65-12.181a12.305 12.305 0 00-1.65-.111v12.292zm-3.281 0v-12.292c-6.788 0-12.292 5.503-12.292 12.292h12.292zm0 16.899h-12.292a12.294 12.294 0 0014.076 12.162l-1.784-12.162zm3.007-.059V185.6c.51 0 1.019-.032 1.525-.095l-1.525-12.197zm283.938-43.85v-12.292c-6.789 0-12.292 5.503-12.292 12.292h12.292zm29.799 0v12.292c6.788 0 12.292-5.504 12.292-12.292h-12.292zm-29.799 62.932v12.292c6.789 0 12.292-5.503 12.292-12.292h-12.292zm-37.344 0h-12.292c0 6.789 5.504 12.292 12.292 12.292V192.39zm0-83.6V96.498c-6.788 0-12.292 5.503-12.292 12.292h12.292zm67.143 0h12.292c0-6.789-5.504-12.292-12.292-12.292v12.292zm90.885 31.329l12.291-.122-.001-.042-12.29.164zm-21.543 24.988l1.61 12.186.073-.01-1.683-12.176zm16.184-44.179l9.843-7.363-.083-.11-9.76 7.473zm-77.968-12.138V96.498c-6.789 0-12.292 5.503-12.292 12.292h12.292zm0 83.6h-12.292c0 6.789 5.503 12.292 12.292 12.292V192.39zm37.344 0v12.292c6.788 0 12.292-5.503 12.292-12.292h-12.292zm0-33.189V146.91c-6.789 0-12.292 5.503-12.292 12.291h12.292zm.273-.109l7.56-9.692a12.293 12.293 0 00-19.852 9.692h12.292zm7.546-29.416l-6.577 10.385.075.047 6.502-10.432zm-7.819 14.982h-12.292c0 6.788 5.503 12.292 12.292 12.292v-12.292zm0-17.059v-12.292c-6.789 0-12.292 5.503-12.292 12.292h12.292zm108.798 64.791l-11.69 3.798a12.292 12.292 0 0011.69 8.494V192.39zm38.93 0v12.292a12.29 12.29 0 0011.59-16.385l-11.59 4.093zm-43.14-12.958l11.691-3.798a12.292 12.292 0 00-11.691-8.494v12.292zm-25.424 0V167.14a12.293 12.293 0 00-11.691 8.494l11.691 3.798zm-4.21 12.958v12.292a12.291 12.291 0 0011.69-8.494l-11.69-3.798zm-38.93 0l-11.59-4.093a12.29 12.29 0 0011.59 16.385V192.39zm29.525-83.6V96.498c-5.21 0-9.855 3.285-11.59 8.199l11.59 4.093zm52.654 0l11.59-4.093a12.292 12.292 0 00-11.59-8.199v12.292zm-26.3 30.619l11.716-3.719a12.29 12.29 0 00-23.422-.03l11.706 3.749zm6.179 19.464v12.292a12.29 12.29 0 0011.716-16.01l-11.716 3.718zm-12.412 0l-11.706-3.748a12.293 12.293 0 0011.706 16.04v-12.292zm170.989 52.818v12.292c6.788 0 12.291-5.504 12.291-12.292h-12.291zm-38.383 0h-12.292c0 6.788 5.503 12.292 12.292 12.292v-12.292zm38.383-40.297h12.291c0-6.788-5.503-12.292-12.291-12.292v12.292zm-6.835 0h-12.292c0 6.789 5.503 12.292 12.292 12.292v-12.292zm0-62.495h12.292c0-6.788-5.503-12.292-12.292-12.292V108.9zm-85.787 0V96.607c-6.789 0-12.292 5.504-12.292 12.292h12.292zm0 52.435l12.189 1.586c.069-.526.103-1.056.103-1.586h-12.292zm-6.999 10.279v12.292c1.512 0 3.01-.279 4.42-.822l-4.42-11.47zm-7.873 0v-12.292c-6.789 0-12.292 5.503-12.292 12.292h12.292zm0 40.078h-12.292c0 6.788 5.503 12.292 12.292 12.292v-12.292zm38.383 0v12.292c6.788 0 12.292-5.504 12.292-12.292h-12.292zm0-19.301v-12.292c-6.789 0-12.292 5.503-12.292 12.292h12.292zm30.728 0h12.292c0-6.789-5.504-12.292-12.292-12.292v12.292zm-5.14-20.777v12.292c6.789 0 12.292-5.503 12.292-12.292h-12.292zm0-42.155h12.292c0-6.789-5.503-12.292-12.292-12.292v12.292zm-20.995 42.155l-4.905-11.271a12.292 12.292 0 004.905 23.563v-12.292zm8.529-11.099l12.116 2.074a12.32 12.32 0 00.176-2.074h-12.292zm0-31.056v-12.292c-6.789 0-12.292 5.503-12.292 12.292h12.292zm-419.908-3.499l-4.211-11.548c-6.173 2.25-9.484 8.958-7.518 15.227l11.729-3.679zm78.029-28.448l11.728-3.679a12.29 12.29 0 00-15.938-7.869l4.21 11.549zm-53.317 107.224l-11.729 3.679a12.295 12.295 0 0015.939 7.869l-4.21-11.548zm78.029-28.447l4.21 11.548c6.173-2.251 9.485-8.958 7.518-15.228l-11.728 3.68zm-61.08-30.113l-4.21-11.548c-6.174 2.25-9.485 8.958-7.518 15.227l11.728-3.679zm4.779 15.234l-11.729 3.679a12.293 12.293 0 0015.939 7.869l-4.21-11.548zm9.81-20.552l11.728-3.68a12.29 12.29 0 00-15.939-7.869l4.211 11.549zm4.778 15.233l4.211 11.548c6.173-2.25 9.484-8.958 7.518-15.227l-11.729 3.679zM173.25 134.334c.315 1.663.514 3.634.545 5.95l24.582-.329c-.047-3.518-.354-6.929-.973-10.196l-24.154 4.575zm46.607 66.722l-22.802-72.689-23.457 7.358 22.803 72.689 23.456-7.358zm62.091-36.317l-78.029 28.448 8.42 23.096 78.03-28.447-8.421-23.097zm-32.23-63.548l24.712 78.776 23.457-7.359-24.712-78.776-23.457 7.359zm-61.971 36.273l77.91-28.404-8.421-23.097-77.909 28.404 8.42 23.097zm-16.862-9.173c.45.602.894 1.361 1.298 2.334l22.708-9.42c-1.126-2.713-2.554-5.279-4.321-7.64l-19.685 14.726zm-32.531-7.209c10.393 0 18.188.967 23.748 2.559 5.606 1.606 7.941 3.552 8.866 4.76l19.519-14.946c-5.272-6.884-13.097-11.007-21.615-13.447-8.566-2.454-18.859-3.51-30.518-3.51v24.584zm-35.595 0h35.595V96.498h-35.595v24.584zm12.292 71.308v-83.6H90.467v83.6h24.584zm25.052-12.292h-37.344v24.584h37.344v-24.584zm-12.292-20.897v33.189h24.584v-33.189h-24.584zm.274-.109c0-2.781.954-5.568 2.831-7.821a12.17 12.17 0 014.827-3.51c2.166-.866 3.994-.851 4.36-.851v24.583c.548 0 2.513-.003 4.77-.906a12.408 12.408 0 004.929-3.578 12.361 12.361 0 002.866-7.917h-24.583zm31.483-5.895c-4.754 0-8.451-1.317-11.632-3.797l-15.119 19.384c7.755 6.049 16.851 8.997 26.751 8.997v-24.584zm3.366-.277c-1.595.211-2.686.277-3.366.277v24.584c2.09 0 4.316-.189 6.585-.488l-3.219-24.373zm10.861-12.678c.053 5.346-1.227 7.848-2.295 9.088-1.068 1.238-3.351 2.87-8.639 3.6l3.365 24.353c9.219-1.274 17.78-4.81 23.893-11.901 6.113-7.089 8.351-16.077 8.258-25.385l-24.582.245zm67.791 17.488l-4.779-15.234-23.457 7.358 4.779 15.234 23.457-7.358zm-1.35-13.188l-14.589 5.318 8.42 23.097 14.589-5.319-8.42-23.096zm-12.297-.006l4.779 15.233 23.456-7.358-4.778-15.234-23.457 7.359zm1.35 13.188l14.588-5.319-8.42-23.097-14.589 5.319 8.421 23.097zm-87.868-17.616c-.205-.127-.835-.593-1.369-1.537-.543-.96-.649-1.818-.649-2.224h24.583c0-7.272-3.574-13.37-9.563-17.103l-13.002 20.864zm-1.318-.217c.575 0 .91.065 1.067.107.079.021.125.039.144.047.02.009.028.014.031.016l13.154-20.769c-4.467-2.829-9.442-3.985-14.396-3.985v24.584zm12.292 4.767v-17.059h-24.584v17.059h24.584zm-12.992-8.311c0-.037.008-.658.421-1.546a5.744 5.744 0 011.81-2.211c.611-.438.962-.474.683-.407-.284.068-.977.183-2.214.183v24.584c4.963 0 10.895-.823 15.856-4.38 5.716-4.099 8.027-10.24 8.027-16.223h-24.583zm211.508 65.729c12.213-3.043 22.787-9.364 28.034-20.712l-22.315-10.317c-1.022 2.212-3.68 5.186-11.661 7.174l5.942 23.855zm-28.231 2.606c11.284 0 20.898-.75 28.276-2.618l-6.032-23.832c-4.433 1.122-11.658 1.866-22.244 1.866v24.584zm-35.595 0h35.595v-24.584h-35.595v24.584zm-12.292-95.783v83.491h24.584v-83.491h-24.584zm81.458-12.292h-69.166v24.584h69.166V96.607zm12.292 32.851v-20.559h-24.584v20.559h24.584zm-44.114 12.292h31.822v-24.584h-31.822v24.584zm12.292.119v-12.411h-24.584v12.411h24.584zm-11.636-12.292h-.656v24.584h.656v-24.584zm19.028-6.178c-9.71 0-18.663 2.845-26.392 8.629l14.729 19.682c3.279-2.453 7.01-3.727 11.663-3.727v-24.584zm27.849 10.138c-7.622-7.11-17.34-10.138-27.849-10.138v24.584c5.674 0 8.933 1.528 11.08 3.531l16.769-17.977zm11.289 27.797c0-10.713-3.401-20.552-11.358-27.861l-16.631 18.105c1.884 1.73 3.405 4.43 3.405 9.756h24.584zm-.295 5.524c.198-1.826.295-3.668.295-5.524h-24.584c0 1.004-.052 1.96-.151 2.871l24.44 2.653zm-7.94-12.622c.7 0 .965.174.676.047l-9.913 22.497c2.728 1.202 5.847 2.04 9.237 2.04v-24.584zm-6.629 4.27c-.1.443.047-.701 1.4-2.04a7.87 7.87 0 012.676-1.729 7.122 7.122 0 012.553-.501v24.584c4.26 0 8.624-1.476 12.065-4.882 3.139-3.107 4.58-6.902 5.281-9.995l-23.975-5.437zm-.304-49.716v52.435h24.584V108.79h-24.584zm98.735-12.292h-86.443v24.584h86.443V96.498zm12.292 95.892v-83.6h-24.584v83.6h24.584zm-49.089 12.292h36.797v-24.584h-36.797v24.584zm-12.292-75.224v62.932h24.584v-62.932h-24.584zm-.502 12.292h12.794v-24.584h-12.794v24.584zm12.291 30.683v-42.975h-24.583v42.975h24.583zm-11.406 24.904c7.63-6.378 11.406-15.076 11.406-24.904h-24.583c0 3.003-.89 4.621-2.591 6.043l15.768 18.861zm-24.178 8.329c8.998 0 17.455-2.532 24.32-8.449l-16.052-18.62c-1.592 1.372-3.997 2.485-8.268 2.485v24.584zm-34.165-14c9.786 8.967 21.281 14 34.165 14v-24.584c-5.924 0-11.67-2.147-17.557-7.542l-16.608 18.126zm-3.988-16.087v7.024h24.583v-7.024h-24.583zm23.141 5.834c.134-.286.264-.573.392-.862l-22.483-9.944c-.058.131-.117.261-.178.391l22.269 10.415zm-52.862-12.765c1.299.176.521.369-.629-.767a5.576 5.576 0 01-1.298-1.995c-.241-.649-.24-1.061-.24-1.053h24.584c0-4.948-1.542-10.268-5.776-14.448-3.976-3.924-8.99-5.509-13.341-6.098l-3.3 24.361zm-1.631.112h3.281v-24.584h-3.281v24.584zm12.292 4.607v-16.899h-24.584v16.899h24.584zm-9.285-12.351c-.9 0-1.676.005-2.295.017-.25.005-1.43.016-2.496.172l3.568 24.324c-.208.03-.373.048-.474.059-.106.011-.19.017-.243.022l-.119.008-.041.002a3.43 3.43 0 01.072-.003l.214-.005c.384-.007.977-.012 1.814-.012v-24.584zm-3.543 3.817c0 .024-.004-.382.241-1.033a5.525 5.525 0 011.311-1.986c1.145-1.11 1.879-.88.467-.703l3.049 24.394c4.42-.553 9.528-2.099 13.589-6.034 4.342-4.206 5.927-9.606 5.927-14.638h-24.584zm287.481-23.083h29.799v-24.584h-29.799v24.584zm12.292 50.64v-62.932h-24.584v62.932h24.584zm-49.636 12.292h37.344v-24.584H574.03v24.584zm-12.292-95.892v83.6h24.584v-83.6h-24.584zm79.435-12.292H574.03v24.584h67.143V96.498zm12.292 32.96V108.79h-24.584v20.668h24.584zm66.301 10.784c.053 5.346-1.226 7.848-2.294 9.088-1.068 1.238-3.351 2.87-8.64 3.6l3.366 24.353c9.219-1.274 17.78-4.81 23.893-11.901 6.112-7.089 8.35-16.077 8.258-25.385l-24.583.245zm-2.91-11.951c1.383 1.848 2.822 5.387 2.911 11.993l24.581-.329c-.13-9.724-2.263-18.979-7.806-26.39l-19.686 14.726zm-32.531-7.209c10.393 0 18.189.967 23.748 2.559 5.606 1.606 7.942 3.552 8.867 4.76l19.519-14.946c-5.272-6.884-13.097-11.007-21.616-13.447-8.565-2.454-18.858-3.51-30.518-3.51v24.584zm-35.594 0h35.594V96.498h-35.594v24.584zm12.292 71.308v-83.6h-24.584v83.6h24.584zm25.052-12.292h-37.344v24.584h37.344v-24.584zm-12.292-20.897v33.189h24.584v-33.189h-24.584zm.273-.109c0-2.781.954-5.568 2.832-7.821a12.164 12.164 0 014.827-3.51c2.166-.866 3.994-.851 4.36-.851v24.583c.548 0 2.513-.003 4.77-.906a12.415 12.415 0 004.929-3.578 12.361 12.361 0 002.866-7.917h-24.584zm31.484-5.895c-4.754 0-8.452-1.317-11.632-3.797l-15.12 19.384c7.755 6.049 16.852 8.997 26.752 8.997v-24.584zm3.366-.277c-1.595.211-2.687.277-3.366.277v24.584c2.09 0 4.315-.189 6.585-.488l-3.219-24.373zm1.052-16.573c0-7.272-3.574-13.37-9.563-17.103l-13.003 20.864c-.204-.127-.834-.593-1.368-1.537-.543-.96-.65-1.818-.65-2.224h24.584zm-23.883 20.603c4.962 0 10.895-.823 15.856-4.38 5.716-4.099 8.027-10.241 8.027-16.223h-24.584c0-.037.009-.658.422-1.546a5.735 5.735 0 011.81-2.211c.611-.438.961-.474.683-.407-.285.068-.977.183-2.214.183v24.584zm-12.292-29.351v17.059h24.584v-17.059h-24.584zm26.687-8.307c-4.467-2.829-9.441-3.985-14.395-3.985v24.584c.574 0 .91.065 1.067.107.079.021.124.039.144.047a.312.312 0 01.031.016l13.153-20.769zm94.403 85.39h38.93v-24.584h-38.93v24.584zm-15.9-21.452l4.21 12.958 23.381-7.596-4.21-12.958-23.381 7.596zm-13.734 8.494h25.424V167.14h-25.424v24.584zm7.48 4.464l4.21-12.958-23.381-7.596-4.21 12.958 23.381 7.596zm-50.62 8.494h38.93v-24.584h-38.93v24.584zm17.935-99.985l-29.525 83.6 23.181 8.186 29.525-83.6-23.181-8.186zm64.244-8.199h-52.654v24.584h52.654V96.498zm41.115 91.799l-29.525-83.6-23.181 8.186 29.526 83.6 23.18-8.186zm-79.13-45.17l6.178 19.465 23.432-7.437-6.179-19.465-23.431 7.437zm17.189 19.495l6.233-19.465-23.413-7.497-6.233 19.465 23.413 7.497zm.705-16.041h-12.412v24.584h12.412v-24.584zm158.577 52.818h-38.383v24.584h38.383v-24.584zm-12.292-28.005v40.297h24.583v-40.297h-24.583zm5.457 12.292h6.835v-24.584h-6.835v24.584zm-12.292-74.787v62.495h24.584v-62.495h-24.584zm-73.495 12.292h85.787V96.607h-85.787v24.584zm12.292 40.143v-52.435H837.82v52.435h24.584zm-14.871 21.749c9.327-3.594 13.672-11.739 14.768-20.163l-24.378-3.172c-.169 1.293-.431 1.509-.241 1.229a2.496 2.496 0 011.012-.834l8.839 22.94zm-12.293.822h7.873v-24.584h-7.873v24.584zm12.292 27.786v-40.078h-24.584v40.078h24.584zm26.091-12.292H835.24v24.584h38.383v-24.584zm-12.292-7.009v19.301h24.584V192.39h-24.584zm43.02-12.292h-30.728v24.584h30.728v-24.584zm12.292 31.593V192.39h-24.584v19.301h24.584zm-5.14-40.078v-42.155h-24.584v42.155h24.584zm-33.287 12.292h20.995v-24.584h-20.995v24.584zm-3.587-25.466c-.171 1.001-.422 1.319-.446 1.351-.012.015-.167.245-.872.552l9.809 22.542c8.741-3.803 14.161-11.07 15.741-20.296l-24.232-4.149zm-.176-28.981v31.056h24.584v-31.056h-24.584zm24.758-12.292h-12.466v24.584h12.466v-24.584zm-428.164 20.341l78.029-28.447-8.42-23.097-78.03 28.448 8.421 23.096zm32.23 63.549l-24.712-78.776-23.457 7.358 24.712 78.776 23.457-7.358zm62.091-36.317l-78.03 28.448 8.421 23.096 78.029-28.447-8.42-23.097zm-32.23-63.548l24.712 78.776 23.456-7.359-24.712-78.776-23.456 7.359zm-36.368 48.663l4.778 15.234 23.457-7.358-4.779-15.234-23.456 7.358zm22.106-20.546l-14.588 5.319 8.42 23.097 14.589-5.319-8.421-23.097zm20.718 23.103l-4.779-15.234-23.457 7.359 4.779 15.233 23.457-7.358zm-22.107 20.546l14.589-5.319-8.421-23.096-14.589 5.318 8.421 23.097z" fill="#EB2506" mask="url(#c)"/><mask id="d" maskUnits="userSpaceOnUse" x="99.759" y="94.511" width="846" height="120" fill="#000"><path fill="#fff" d="M99.759 94.511h846v120h-846z"/><path fill-rule="evenodd" clip-rule="evenodd" d="M186.086 140.119c-.039-2.916-.292-5.607-.759-8.073l22.802 72.689 78.029-28.447-24.711-78.777-77.91 28.404c-.765-1.843-1.701-3.506-2.809-4.987-6.197-8.092-20.322-12.138-42.374-12.138h-35.595v83.6h37.344v-33.189c.182 0 .274-.036.274-.109 5.467 4.265 11.864 6.397 19.191 6.397 1.385 0 3.044-.127 4.975-.382 14.508-2.005 21.689-10.334 21.543-24.988zm38.992 6.056l4.779 15.234 14.589-5.319-4.779-15.233-14.589 5.318zm-73.383-9.828c0-2.88-1.258-5.103-3.773-6.671-2.187-1.385-4.793-2.077-7.819-2.077v17.059c7.728 0 11.592-2.771 11.592-8.311zm216.092 39.859c-3.134 6.78-9.75 11.427-19.847 13.942-5.905 1.495-14.325 2.242-25.26 2.242h-35.595v-83.491h69.166v20.559h-31.822v12.411h.656c5.504-4.119 11.847-6.178 19.028-6.178 8.092 0 14.58 2.278 19.464 6.834 4.921 4.52 7.382 10.79 7.382 18.809 0 1.43-.075 2.829-.223 4.197 1.508.665 2.935.997 4.28.997 2.771 0 4.557-1.768 5.359-5.303V108.79h86.443v83.6h-36.797v-62.932h-12.794v42.975c0 6.415-2.333 11.573-6.999 15.474-4.228 3.645-9.66 5.467-16.294 5.467-9.404 0-18.025-3.59-25.861-10.771v-7.024c-.093.21-.188.419-.286.627zm-31.602-11.373c0-4.811-2.825-7.6-8.475-8.365h-3.281v16.899c.268-.039 1.27-.059 3.007-.059 5.833-.729 8.749-3.554 8.749-8.475zm304.988-35.375h-29.799v62.932H574.03v-83.6h67.143v20.668zm69.342 35.649c14.508-2.005 21.688-10.334 21.543-24.988-.11-8.165-1.896-14.562-5.359-19.191-6.196-8.092-20.321-12.138-42.374-12.138h-35.594v83.6h37.344v-33.189c.182 0 .273-.036.273-.109 5.468 4.265 11.865 6.397 19.192 6.397 1.385 0 3.043-.127 4.975-.382zm-16.621-35.431c2.515 1.568 3.772 3.791 3.772 6.671 0 5.54-3.864 8.311-11.591 8.311v-17.059c3.025 0 5.631.692 7.819 2.077zm139.909 62.714h-38.93l-4.21-12.958h-25.424l-4.21 12.958h-38.93l29.525-83.6h52.654l29.525 83.6zm-49.646-33.517l-6.179-19.464-6.233 19.464h12.412zm120.194 52.818h38.383v-40.297h-6.835v-62.495h-85.787v52.435c-.693 5.322-3.025 8.748-6.999 10.279h-7.873v40.078h38.383V192.39h30.728v19.301zm-5.14-82.233v42.155h-20.995c4.775-2.078 7.618-5.777 8.529-11.099v-31.056h12.466zM544.866 97.511l-78.029 28.448 24.712 78.776 78.029-28.447-24.712-78.777zm-31.589 63.898l-4.779-15.234 14.589-5.318 4.778 15.233-14.588 5.319z"/></mask><path fill-rule="evenodd" clip-rule="evenodd" d="M186.086 140.119c-.039-2.916-.292-5.607-.759-8.073l22.802 72.689 78.029-28.447-24.711-78.777-77.91 28.404c-.765-1.843-1.701-3.506-2.809-4.987-6.197-8.092-20.322-12.138-42.374-12.138h-35.595v83.6h37.344v-33.189c.182 0 .274-.036.274-.109 5.467 4.265 11.864 6.397 19.191 6.397 1.385 0 3.044-.127 4.975-.382 14.508-2.005 21.689-10.334 21.543-24.988zm38.992 6.056l4.779 15.234 14.589-5.319-4.779-15.233-14.589 5.318zm-73.383-9.828c0-2.88-1.258-5.103-3.773-6.671-2.187-1.385-4.793-2.077-7.819-2.077v17.059c7.728 0 11.592-2.771 11.592-8.311zm216.092 39.859c-3.134 6.78-9.75 11.427-19.847 13.942-5.905 1.495-14.325 2.242-25.26 2.242h-35.595v-83.491h69.166v20.559h-31.822v12.411h.656c5.504-4.119 11.847-6.178 19.028-6.178 8.092 0 14.58 2.278 19.464 6.834 4.921 4.52 7.382 10.79 7.382 18.809 0 1.43-.075 2.829-.223 4.197 1.508.665 2.935.997 4.28.997 2.771 0 4.557-1.768 5.359-5.303V108.79h86.443v83.6h-36.797v-62.932h-12.794v42.975c0 6.415-2.333 11.573-6.999 15.474-4.228 3.645-9.66 5.467-16.294 5.467-9.404 0-18.025-3.59-25.861-10.771v-7.024c-.093.21-.188.419-.286.627zm-31.602-11.373c0-4.811-2.825-7.6-8.475-8.365h-3.281v16.899c.268-.039 1.27-.059 3.007-.059 5.833-.729 8.749-3.554 8.749-8.475zm304.988-35.375h-29.799v62.932H574.03v-83.6h67.143v20.668zm69.342 35.649c14.508-2.005 21.688-10.334 21.543-24.988-.11-8.165-1.896-14.562-5.359-19.191-6.196-8.092-20.321-12.138-42.374-12.138h-35.594v83.6h37.344v-33.189c.182 0 .273-.036.273-.109 5.468 4.265 11.865 6.397 19.192 6.397 1.385 0 3.043-.127 4.975-.382zm-16.621-35.431c2.515 1.568 3.772 3.791 3.772 6.671 0 5.54-3.864 8.311-11.591 8.311v-17.059c3.025 0 5.631.692 7.819 2.077zm139.909 62.714h-38.93l-4.21-12.958h-25.424l-4.21 12.958h-38.93l29.525-83.6h52.654l29.525 83.6zm-49.646-33.517l-6.179-19.464-6.233 19.464h12.412zm120.194 52.818h38.383v-40.297h-6.835v-62.495h-85.787v52.435c-.693 5.322-3.025 8.748-6.999 10.279h-7.873v40.078h38.383V192.39h30.728v19.301zm-5.14-82.233v42.155h-20.995c4.775-2.078 7.618-5.777 8.529-11.099v-31.056h12.466zM544.866 97.511l-78.029 28.448 24.712 78.776 78.029-28.447-24.712-78.777zm-31.589 63.898l-4.779-15.234 14.589-5.318 4.778 15.233-14.588 5.319z" fill="#fff"/><path d="M185.327 132.046l2.606-.817a2.73 2.73 0 00-5.29 1.326l2.684-.509zm.759 8.073l2.731-.027v-.009l-2.731.036zm22.043 64.616l-2.606.818a2.73 2.73 0 003.542 1.748l-.936-2.566zm78.029-28.447l.936 2.566a2.732 2.732 0 001.671-3.384l-2.607.818zm-24.711-78.777l2.606-.817a2.73 2.73 0 00-3.542-1.749l.936 2.567zm-77.91 28.404l-2.523 1.047a2.73 2.73 0 003.458 1.52l-.935-2.567zm-2.809-4.987l2.187-1.636-.019-.025-2.168 1.661zm-77.969-12.138v-2.732a2.732 2.732 0 00-2.731 2.732h2.731zm0 83.6h-2.731a2.732 2.732 0 002.731 2.732v-2.732zm37.344 0v2.732a2.732 2.732 0 002.732-2.732h-2.732zm0-33.189v-2.731a2.731 2.731 0 00-2.731 2.731h2.731zm.274-.109l1.68-2.154a2.733 2.733 0 00-4.412 2.154h2.732zm24.166 6.015l.358 2.708.016-.003-.374-2.705zm65.314-3.698l-2.606.817a2.73 2.73 0 003.542 1.749l-.936-2.566zm-4.779-15.234l-.935-2.566a2.732 2.732 0 00-1.671 3.384l2.606-.818zm19.368 9.915l.936 2.566a2.732 2.732 0 001.67-3.384l-2.606.818zm-4.779-15.233l2.606-.818a2.733 2.733 0 00-3.541-1.749l.935 2.567zm-91.745-11.181l-1.462 2.308.017.011 1.445-2.319zm-7.819-2.077v-2.732a2.732 2.732 0 00-2.731 2.732h2.731zm0 17.059h-2.731a2.731 2.731 0 002.731 2.731v-2.731zm207.837 45.49l-.66-2.65-.01.002.67 2.648zm19.847-13.942l-2.474-1.157-.005.01 2.479 1.147zm-80.702 16.184h-2.731a2.732 2.732 0 002.731 2.732v-2.732zm0-83.491v-2.731a2.731 2.731 0 00-2.731 2.731h2.731zm69.166 0h2.731a2.731 2.731 0 00-2.731-2.731v2.731zm0 20.559v2.731a2.731 2.731 0 002.731-2.731h-2.731zm-31.822 0v-2.732a2.732 2.732 0 00-2.731 2.732h2.731zm0 12.411h-2.731a2.732 2.732 0 002.731 2.732v-2.732zm.656 0v2.732a2.73 2.73 0 001.637-.545l-1.637-2.187zm38.492.656l-1.863 1.998.016.014 1.847-2.012zm7.159 23.006l-2.716-.294a2.732 2.732 0 001.615 2.794l1.101-2.5zm9.639-4.306l2.664.604c.045-.199.067-.401.067-.604h-2.731zm0-52.435v-2.732a2.732 2.732 0 00-2.732 2.732h2.732zm86.443 0h2.731a2.732 2.732 0 00-2.731-2.732v2.732zm0 83.6v2.732a2.732 2.732 0 002.731-2.732h-2.731zm-36.797 0h-2.732a2.732 2.732 0 002.732 2.732v-2.732zm0-62.932h2.731a2.732 2.732 0 00-2.731-2.732v2.732zm-12.794 0v-2.732a2.732 2.732 0 00-2.732 2.732h2.732zm-6.999 58.449l-1.752-2.096-.032.027 1.784 2.069zm-42.155-5.304h-2.732c0 .766.322 1.496.886 2.014l1.846-2.014zm0-7.024h2.731a2.73 2.73 0 00-5.23-1.105l2.499 1.105zm-40.363-19.111l.367-2.707a2.663 2.663 0 00-.367-.025v2.732zm-3.281 0v-2.732a2.732 2.732 0 00-2.731 2.732h2.731zm0 16.899h-2.731a2.729 2.729 0 003.128 2.702l-.397-2.702zm3.007-.059v2.731c.114 0 .227-.007.339-.021l-.339-2.71zm283.938-43.85v-2.732a2.73 2.73 0 00-2.731 2.732h2.731zm29.799 0v2.731a2.731 2.731 0 002.731-2.731h-2.731zm-29.799 62.932v2.732a2.732 2.732 0 002.732-2.732h-2.732zm-37.344 0h-2.731a2.732 2.732 0 002.731 2.732v-2.732zm0-83.6v-2.732a2.732 2.732 0 00-2.731 2.732h2.731zm67.143 0h2.731a2.732 2.732 0 00-2.731-2.732v2.732zm90.885 31.329l2.731-.027v-.009l-2.731.036zm-21.543 24.988l.358 2.708.016-.003-.374-2.705zm16.184-44.179l2.188-1.636a.235.235 0 01-.019-.025l-2.169 1.661zm-77.968-12.138v-2.732a2.732 2.732 0 00-2.732 2.732h2.732zm0 83.6h-2.732a2.732 2.732 0 002.732 2.732v-2.732zm37.344 0v2.732a2.732 2.732 0 002.731-2.732h-2.731zm0-33.189v-2.731a2.732 2.732 0 00-2.732 2.731h2.732zm.273-.109l1.68-2.154a2.73 2.73 0 00-4.411 2.154h2.731zm7.546-29.416l-1.462 2.308.017.011 1.445-2.319zm-7.819 14.982h-2.732a2.732 2.732 0 002.732 2.731v-2.731zm0-17.059v-2.732a2.732 2.732 0 00-2.732 2.732h2.732zm108.798 64.791l-2.597.844a2.731 2.731 0 002.597 1.888v-2.732zm38.93 0v2.732a2.733 2.733 0 002.575-3.642l-2.575.91zm-43.14-12.958l2.598-.844a2.73 2.73 0 00-2.598-1.888v2.732zm-25.424 0V176.7a2.731 2.731 0 00-2.598 1.888l2.598.844zm-4.21 12.958v2.732a2.733 2.733 0 002.598-1.888l-2.598-.844zm-38.93 0l-2.575-.91a2.733 2.733 0 002.575 3.642v-2.732zm29.525-83.6v-2.732c-1.157 0-2.19.731-2.575 1.822l2.575.91zm52.654 0l2.575-.91a2.731 2.731 0 00-2.575-1.822v2.732zm-26.3 30.619l2.604-.827a2.732 2.732 0 00-5.205-.006l2.601.833zm6.179 19.464v2.732a2.73 2.73 0 002.603-3.558l-2.603.826zm-12.412 0l-2.601-.833a2.734 2.734 0 002.601 3.565v-2.732zm170.989 52.818v2.731a2.731 2.731 0 002.731-2.731h-2.731zm-38.383 0h-2.732a2.732 2.732 0 002.732 2.731v-2.731zm38.383-40.297h2.731a2.731 2.731 0 00-2.731-2.731v2.731zm-6.835 0h-2.732a2.732 2.732 0 002.732 2.732v-2.732zm0-62.495h2.732a2.732 2.732 0 00-2.732-2.731v2.731zm-85.787 0v-2.731a2.732 2.732 0 00-2.732 2.731h2.732zm0 52.435l2.709.352a2.76 2.76 0 00.022-.352h-2.731zm-6.999 10.279v2.732c.336 0 .669-.062.983-.183l-.983-2.549zm-7.873 0v-2.732a2.73 2.73 0 00-2.731 2.732h2.731zm0 40.078h-2.731a2.73 2.73 0 002.731 2.731v-2.731zm38.383 0v2.731a2.731 2.731 0 002.731-2.731h-2.731zm0-19.301v-2.732a2.732 2.732 0 00-2.732 2.732h2.732zm30.728 0h2.731a2.732 2.732 0 00-2.731-2.732v2.732zm-5.14-20.777v2.732a2.732 2.732 0 002.732-2.732h-2.732zm0-42.155h2.732a2.732 2.732 0 00-2.732-2.732v2.732zm-20.995 42.155l-1.09-2.505a2.733 2.733 0 00-1.585 3.062 2.734 2.734 0 002.675 2.175v-2.732zm8.529-11.099l2.692.461c.026-.153.04-.307.04-.461h-2.732zm0-31.056v-2.732a2.73 2.73 0 00-2.731 2.732h2.731zm-419.908-3.499l-.936-2.566a2.731 2.731 0 00-1.671 3.384l2.607-.818zm78.029-28.448l2.606-.817a2.73 2.73 0 00-3.542-1.749l.936 2.567zm-53.317 107.224l-2.607.818a2.734 2.734 0 003.542 1.748l-.935-2.566zm78.029-28.447l.936 2.566a2.732 2.732 0 001.67-3.384l-2.606.818zm-61.08-30.113l-.936-2.566a2.731 2.731 0 00-1.67 3.384l2.606-.818zm4.779 15.234l-2.607.817a2.733 2.733 0 003.542 1.749l-.935-2.566zm9.81-20.552l2.606-.818a2.733 2.733 0 00-3.542-1.749l.936 2.567zm4.778 15.233l.936 2.566a2.731 2.731 0 001.671-3.384l-2.607.818zm-345.222-23.535c.433 2.287.674 4.818.712 7.601l5.462-.073c-.041-3.05-.306-5.901-.806-8.545l-5.368 1.017zm28.092 71.362l-22.802-72.688-5.212 1.635 22.802 72.689 5.212-1.636zm74.488-30.196l-78.03 28.448 1.872 5.132 78.029-28.447-1.871-5.133zM258.84 98.329l24.712 78.776 5.213-1.635-24.712-78.776-5.213 1.635zm-74.368 30.153l77.91-28.404-1.871-5.133-77.91 28.404 1.871 5.133zm-5.932-5.918c.962 1.286 1.789 2.748 2.474 4.398l5.046-2.093c-.845-2.037-1.891-3.9-3.145-5.577l-4.375 3.272zm-40.186-11.042c10.885 0 19.652 1.001 26.38 2.928 6.739 1.931 11.21 4.723 13.825 8.139l4.337-3.322c-3.581-4.676-9.271-7.953-16.657-10.068-7.397-2.119-16.718-3.141-27.885-3.141v5.464zm-35.595 0h35.595v-5.464h-35.595v5.464zm2.732 80.868v-83.6h-5.463v83.6h5.463zm34.612-2.732h-37.344v5.464h37.344v-5.464zm-2.731-30.457v33.189h5.463v-33.189h-5.463zm.273-.109c0-.604.208-1.211.616-1.701a2.615 2.615 0 011.033-.753c.446-.178.799-.168.809-.168v5.463a3.28 3.28 0 001.22-.223 2.856 2.856 0 001.135-.821c.431-.518.65-1.157.65-1.797h-5.463zm21.923 3.666c-6.755 0-12.552-1.951-17.511-5.82l-3.36 4.308c5.975 4.661 12.973 6.975 20.871 6.975v-5.463zm4.618-.36c-1.857.246-3.39.36-4.618.36v5.463c1.542 0 3.326-.141 5.333-.406l-.715-5.417zm19.168-22.251c.069 6.886-1.583 11.911-4.613 15.426-3.03 3.514-7.755 5.886-14.571 6.828l.747 5.411c7.691-1.062 13.81-3.857 17.961-8.672 4.151-4.815 6.017-11.281 5.939-19.048l-5.463.055zm49.109 20.444l-4.778-15.233-5.213 1.635 4.779 15.233 5.212-1.635zm11.047-7.067l-14.588 5.318 1.871 5.133 14.589-5.319-1.872-5.132zm-6.449-11.85l4.779 15.234 5.212-1.636-4.779-15.233-5.212 1.635zm-11.047 7.067l14.589-5.318-1.871-5.133-14.589 5.319 1.871 5.132zm-79.537-16.746c1.743 1.086 2.486 2.448 2.486 4.352h5.463c0-3.856-1.772-6.94-5.059-8.989l-2.89 4.637zm-6.374-1.665c2.597 0 4.677.59 6.357 1.654l2.923-4.615c-2.693-1.706-5.826-2.502-9.28-2.502v5.463zm2.732 14.328v-17.059h-5.463v17.059h5.463zm6.128-8.311c0 2.056-.667 3.231-1.758 4.013-1.259.902-3.482 1.566-7.102 1.566v5.463c4.108 0 7.68-.721 10.285-2.589 2.773-1.988 4.038-4.969 4.038-8.453h-5.463zM348.6 192.799c10.567-2.632 18.063-7.652 21.667-15.447l-4.959-2.293c-2.665 5.765-8.402 10.041-18.028 12.439l1.32 5.301zm-25.92 2.323c11.012 0 19.698-.748 25.93-2.326l-1.34-5.296c-5.578 1.412-13.733 2.158-24.59 2.158v5.464zm-35.595 0h35.595v-5.464h-35.595v5.464zm-2.731-86.223v83.491h5.463v-83.491h-5.463zm71.897-2.731h-69.166v5.463h69.166v-5.463zm2.731 23.29v-20.559h-5.463v20.559h5.463zm-34.553 2.731h31.822v-5.463h-31.822v5.463zm2.732 9.68v-12.411h-5.463v12.411h5.463zm-2.076-2.731h-.656v5.463h.656v-5.463zm19.028-6.179c-7.743 0-14.666 2.234-20.664 6.723l3.273 4.374c5.01-3.749 10.772-5.634 17.391-5.634v-5.463zm21.328 7.569c-5.493-5.124-12.699-7.569-21.328-7.569v5.463c7.555 0 13.325 2.112 17.601 6.101l3.727-3.995zm8.249 20.806c0-8.618-2.669-15.681-8.265-20.82l-3.695 4.023c4.246 3.9 6.497 9.376 6.497 16.797h5.463zm-.238 4.492c.159-1.47.238-2.968.238-4.492h-5.463c0 1.335-.069 2.636-.207 3.903l5.432.589zm1.564-2.029c-.891 0-1.942-.22-3.179-.765l-2.202 4.999c1.779.784 3.581 1.229 5.381 1.229v-5.463zm2.695-3.177c-.334 1.474-.805 2.251-1.199 2.641-.327.323-.749.536-1.496.536v5.463c2.024 0 3.88-.672 5.339-2.116 1.392-1.378 2.216-3.253 2.684-5.315l-5.328-1.209zm-.068-51.83v52.435h5.463V108.79h-5.463zm89.175-2.732h-86.443v5.464h86.443v-5.464zm2.731 86.332v-83.6h-5.463v83.6h5.463zm-39.528 2.732h36.797v-5.464h-36.797v5.464zm-2.732-65.664v62.932h5.463v-62.932h-5.463zm-10.062 2.731h12.794v-5.463h-12.794v5.463zm2.731 40.244v-42.975h-5.463v42.975h5.463zm-7.978 17.569c5.324-4.451 7.978-10.395 7.978-17.569h-5.463c0 5.657-2.012 10.028-6.019 13.378l3.504 4.191zm-18.046 6.104c7.16 0 13.263-1.98 18.077-6.131l-3.567-4.137c-3.642 3.14-8.401 4.805-14.51 4.805v5.463zm-27.707-11.489c8.27 7.578 17.53 11.489 27.707 11.489v-5.463c-8.631 0-16.612-3.27-24.016-10.054l-3.691 4.028zm-.886-9.038v7.024h5.463v-7.024h-5.463zm4.921 1.784c.105-.225.208-.452.309-.679l-4.997-2.21c-.085.192-.172.384-.261.575l4.949 2.314zm-42.919-18.189c2.486.337 3.961 1.071 4.804 1.903.785.775 1.306 1.915 1.306 3.756h5.463c0-2.971-.892-5.631-2.931-7.644-1.982-1.956-4.745-2.999-7.908-3.428l-.734 5.413zm-2.914.025h3.281v-5.463h-3.281v5.463zm2.732 14.168v-16.899h-5.463v16.899h5.463zm.275-2.791c-.875 0-1.581.005-2.108.016-.445.008-.955.022-1.295.072l.793 5.405c-.081.012-.088.008.068.001.125-.006.303-.012.541-.016.475-.01 1.14-.015 2.001-.015v-5.463zm6.017-5.743c0 1.889-.539 3.056-1.356 3.848-.88.852-2.418 1.594-4.999 1.917l.677 5.42c3.251-.406 6.087-1.441 8.123-3.414 2.099-2.033 3.018-4.739 3.018-7.771h-5.463zm277.921-32.644h29.799v-5.463h-29.799v5.463zm2.732 60.201v-62.932h-5.463v62.932h5.463zm-40.076 2.732h37.344v-5.464H574.03v5.464zm-2.731-86.332v83.6h5.463v-83.6h-5.463zm69.874-2.732H574.03v5.464h67.143v-5.464zm2.731 23.4V108.79h-5.463v20.668h5.463zm85.422 10.689c.069 6.886-1.584 11.911-4.614 15.426-3.029 3.514-7.754 5.886-14.571 6.828l.748 5.411c7.691-1.062 13.81-3.857 17.961-8.672 4.151-4.815 6.016-11.281 5.939-19.048l-5.463.055zm-4.814-17.583c3.001 4.012 4.71 9.774 4.814 17.592l5.463-.073c-.114-8.512-1.977-15.544-5.902-20.791l-4.375 3.272zm-40.187-11.042c10.886 0 19.653 1.001 26.381 2.928 6.739 1.931 11.209 4.723 13.825 8.139l4.337-3.322c-3.581-4.676-9.271-7.953-16.657-10.068-7.397-2.119-16.719-3.141-27.886-3.141v5.464zm-35.594 0h35.594v-5.464h-35.594v5.464zm2.731 80.868v-83.6h-5.463v83.6h5.463zm34.613-2.732h-37.344v5.464h37.344v-5.464zm-2.732-30.457v33.189h5.463v-33.189h-5.463zm.274-.109c0-.604.207-1.211.616-1.701a2.62 2.62 0 011.032-.753c.446-.178.799-.168.81-.168v5.463c.193 0 .682-.008 1.219-.223a2.808 2.808 0 001.786-2.618h-5.463zm21.923 3.666c-6.755 0-12.552-1.951-17.512-5.82l-3.36 4.308c5.976 4.661 12.973 6.975 20.872 6.975v-5.463zm4.617-.36c-1.856.246-3.389.36-4.617.36v5.463c1.541 0 3.326-.141 5.333-.406l-.716-5.417zm-9.759-26.051c0-3.856-1.773-6.94-5.06-8.989l-2.889 4.637c1.743 1.086 2.486 2.448 2.486 4.352h5.463zm-14.323 11.042c4.108 0 7.68-.721 10.285-2.589 2.773-1.988 4.038-4.969 4.038-8.453h-5.463c0 2.056-.667 3.231-1.758 4.013-1.259.902-3.483 1.566-7.102 1.566v5.463zm-2.732-19.79v17.059h5.463v-17.059h-5.463zm12.012-.23c-2.694-1.706-5.826-2.502-9.28-2.502v5.463c2.597 0 4.677.59 6.357 1.654l2.923-4.615zm99.518 67.753h38.93v-5.464h-38.93v5.464zm-6.808-14.846l4.211 12.958 5.195-1.688-4.21-12.958-5.196 1.688zm-22.826 1.887h25.424V176.7h-25.424v5.463zm-1.612 11.071l4.21-12.958-5.196-1.688-4.21 12.958 5.196 1.688zm-41.528 1.888h38.93v-5.464h-38.93v5.464zm26.95-87.242l-29.525 83.6 5.151 1.82 29.525-83.6-5.151-1.82zm55.229-1.822h-52.654v5.464h52.654v-5.464zm32.1 85.422l-29.525-83.6-5.151 1.82 29.525 83.6 5.151-1.82zm-61.003-51.245l6.178 19.465 5.207-1.653-6.178-19.465-5.207 1.653zm-1.028 19.471l6.233-19.464-5.203-1.666-6.233 19.464 5.203 1.666zm9.81-3.564h-12.412v5.463h12.412v-5.463zm158.577 52.817h-38.383v5.463h38.383v-5.463zm-2.732-37.565v40.297h5.463v-40.297h-5.463zm-4.103 2.732h6.835v-5.463h-6.835v5.463zm-2.732-65.227v62.495h5.464v-62.495h-5.464zm-83.055 2.732h85.787v-5.463h-85.787v5.463zm2.731 49.703v-52.435h-5.463v52.435h5.463zm-8.747 12.828c5.162-1.989 7.942-6.465 8.725-12.476l-5.418-.705c-.603 4.633-2.488 7.011-5.272 8.083l1.965 5.098zm-8.856.183h7.873v-5.464h-7.873v5.464zm2.732 37.346v-40.078h-5.463v40.078h5.463zm35.651-2.732H835.24v5.463h38.383v-5.463zm-2.732-16.569v19.301h5.463V192.39h-5.463zm33.46-2.732h-30.728v5.464h30.728v-5.464zm2.731 22.033V192.39h-5.463v19.301h5.463zm-5.139-40.078v-42.155h-5.463v42.155h5.463zm-23.727 2.732h20.995v-5.464h-20.995v5.464zm5.837-14.292c-.763 4.454-3.034 7.361-6.927 9.055l2.179 5.01c5.657-2.461 9.073-6.954 10.132-13.143l-5.384-.922zm-.039-30.595v31.056h5.463v-31.056h-5.463zm15.197-2.732h-12.466v5.463h12.466v-5.463zm-431.439 1.799l78.03-28.447-1.872-5.133-78.029 28.448 1.871 5.132zm26.383 75.392l-24.712-78.776-5.213 1.636 24.712 78.776 5.213-1.636zm74.487-30.196l-78.029 28.448 1.871 5.132 78.03-28.447-1.872-5.133zM542.26 98.329l24.712 78.776 5.212-1.635-24.712-78.776-5.212 1.635zm-36.368 48.664l4.778 15.233 5.213-1.635-4.779-15.233-5.212 1.635zm16.259-8.703l-14.589 5.319 1.872 5.132 14.588-5.318-1.871-5.133zm8.321 16.982l-4.779-15.233-5.213 1.635 4.779 15.234 5.213-1.636zm-16.26 8.703l14.589-5.319-1.871-5.132-14.589 5.318 1.871 5.133z" fill="#000" mask="url(#d)"/><path fill-rule="evenodd" clip-rule="evenodd" d="M537.846 111.972c.241-9.789-3.455-19.55-11.56-25.442-3.138-2.281-6.856-3.112-10.517-3.802 14.874-.55 20.038-17.333 22.108-30.325-.719 11.652 4.932 24.238 16.48 25.4-11.496 7.29-15.441 20.67-16.511 34.169zM87.96 71.152c6.11-8.189 11.952-15.982 17.759-24.42 2.77-4.025 5.553-8.803 8.138-12.975-5.705-.537-8.817.066-14.504-.535-.002 0 2.29-12.938 3.639-22.238-8.358 9.245-15.127 24.968-18.407 33.856 4.012.248 8.114.434 12.133.318-2.818 8.695-5.843 17.341-8.758 25.994z" fill="#FEBE03" stroke="#F8F8F8" stroke-width="2.696" stroke-miterlimit="1.5" stroke-linecap="round" stroke-linejoin="round"/><path fill-rule="evenodd" clip-rule="evenodd" d="M974.94 242.726c4.5-5.134 9.467-9.857 14.146-14.802-6.431-.382-12.929-1.474-19.373-1.168-.085-4.896-.362-9.764-1.335-14.572-3.867 3.989-8.059 7.866-11.259 12.499-1.886-5.511-4.56-11.007-7.742-15.767-3.096 5.481-5.837 11.664-7.576 17.773-4.374-.912-8.983-1.42-13.434-1.43 1.327 4.864 3.067 9.602 4.714 14.349-2.827 3.247-5.453 7.095-7.509 10.98 2.969.853 6.062 1.188 9.071 1.852-.622 5.083-.728 10.237-1.018 15.351 3.889-1.926 7.513-4.398 11.032-7.007 2.208 4.527 4.16 9.19 6.35 13.729 2.518-4.425 5.053-8.982 7.854-13.21 3.095 3.416 7.1 5.754 10.453 8.879-.397-4.617-.151-9.242-.179-13.868 4.763.203 9.631.037 14.404.043-3.001-4.112-5.989-8.231-8.774-12.52" fill="#FEBE03"/><path d="M974.94 242.726c4.5-5.134 9.467-9.857 14.146-14.802-6.431-.382-12.929-1.474-19.373-1.168-.085-4.896-.362-9.764-1.335-14.572-3.867 3.989-8.059 7.866-11.259 12.499-1.886-5.511-4.56-11.007-7.742-15.767-3.096 5.481-5.837 11.664-7.576 17.773-4.374-.912-8.983-1.42-13.434-1.43 1.327 4.864 3.067 9.602 4.714 14.349-2.827 3.247-5.453 7.095-7.509 10.98 2.969.853 6.062 1.188 9.071 1.852-.622 5.083-.728 10.237-1.018 15.351 3.889-1.926 7.513-4.398 11.032-7.007 2.208 4.527 4.16 9.19 6.35 13.729 2.518-4.425 5.053-8.982 7.854-13.21 3.095 3.416 7.1 5.754 10.453 8.879-.397-4.617-.151-9.242-.179-13.868 4.763.203 9.631.037 14.404.043-3.001-4.112-5.989-8.231-8.774-12.52M38.746 67.83c-4.614-3.536-9.106-7.2-13.576-10.942m23.978 3.295c-3.685-5.66-6.432-11.895-9.562-17.901m21.489 14.571c-.63-5.757-.7-11.748.486-17.407m746.798 3.677c-.472 6.973-.226 13.92-.408 20.889M823.846 33c-4.162 10.5-7.326 21.652-9.968 32.69m21.359-17.032c-5.67 4.902-11.618 14.407-16.194 20.845" stroke="#F8F8F8" stroke-width="2.696" stroke-miterlimit="1.5" stroke-linecap="round" stroke-linejoin="round"/><path fill-rule="evenodd" clip-rule="evenodd" d="M999.251 30.408c-26.531 17.339-31 19.4-41.443 9.221 2.589 9.727 1.406 16.801-3.42 24.036 11.945-3.925 14.124-.339 20.188 4.149-3.732-12.703 1.502-16.883 24.675-37.406z" fill="#FEBE03" stroke="#F8F8F8" stroke-width="2.696" stroke-miterlimit="1.5" stroke-linecap="round" stroke-linejoin="round"/><path d="M989.29 56.238c.379 1.335.529 2.751.773 4.12m-5.762 4.481c.983-.163 1.976-.464 2.948-.708m4.006 2.504c-.003 1.31.215 3.005.597 4.269m2.539-8.044c1.311.114 2.692-.456 4.002-.632m-32.912-43.265c.142 1.497.378 2.975.653 4.447m-6.11 3.95a31.487 31.487 0 003.058-.441m4.151 2.699c.022 1.4.28 2.889.544 4.265m2.736-8.097c1.183-.318 2.277-.747 3.501-.898" stroke="#F8F8F8" stroke-width="2.696" stroke-miterlimit="1.5" stroke-linecap="round" stroke-linejoin="round"/><path fill-rule="evenodd" clip-rule="evenodd" d="M270.364 248.73c-2.701 5.163-6.044 10.038-9.235 14.837-2.792-5.032-5.419-10.187-8.148-15.257 3.36-5.186 5.838-11.19 8.261-16.955 3.736 6.116 6.776 12.01 9.122 17.375z" fill="#FEBE03" stroke="#F8F8F8" stroke-width="2.696" stroke-miterlimit="1.5" stroke-linecap="round" stroke-linejoin="round"/><path d="M237.012 274.836c1.226-5.907 2.444-11.787 3.796-17.667-5.73 5.264-11.064 11.387-15.92 17.559 1.443-7.647 3.741-15.109 5.809-22.577-5.023 2.666-9.221 7.746-13.306 11.724" stroke="#F8F8F8" stroke-width="2.696" stroke-miterlimit="1.5" stroke-linecap="round" stroke-linejoin="round"/><defs><linearGradient id="paint0_linear_7_70" x1="102.759" y1="71.484" x2="943.802" y2="141.829" gradientUnits="userSpaceOnUse"><stop offset="0" stop-color="#DA1515"/><stop offset=".63" stop-color="#A40000"/><stop offset="1" stop-color="#761443"/></linearGradient></defs></svg>