<svg width="34" height="34" fill="none" xmlns="http://www.w3.org/2000/svg"><path d="M33.693 17.015c-.085 8.833-6.87 16.338-16.34 16.412C8.685 33.495.999 26.816.888 17.164.785 8.24 7.665.744 17.069.623c9.737-.127 16.553 7.719 16.624 16.392zm-16.68 5.27l.17.12c1.254.932 2.506 1.867 3.767 2.79.176.129.388.221.598.285.411.127.727-.028.893-.426a3.49 3.49 0 00.188-.62c.892-4.192 1.783-8.384 2.664-12.578.05-.243.058-.514.012-.758-.081-.433-.471-.662-.903-.576-.115.023-.228.06-.338.103-1.439.553-2.877 1.109-4.315 1.664-2.502.966-5.005 1.932-7.508 2.9-1.346.52-2.691 1.041-4.033 1.57a1.66 1.66 0 00-.486.291c-.324.287-.258.64.14.805.163.067.339.102.508.154 1.192.365 2.384.726 3.573 1.101.21.067.365.04.546-.079.553-.365 1.118-.712 1.68-1.065l7.398-4.658c.095-.06.188-.141.29-.159.117-.02.244.02.367.035l-.155.289c-.003.005-.01.01-.014.013-2.473 2.26-4.945 4.52-7.413 6.784a.443.443 0 00-.13.264c-.095 1.1-.18 2.2-.265 3.3-.02.24-.033.481-.052.747.381-.034.656-.217.901-.448.369-.346.728-.702 1.092-1.053l.825-.795z" fill="#fff"/></svg>